<svg width="1728" height="230" viewBox="0 0 1728 230" fill="none" xmlns="http://www.w3.org/2000/svg">
<path d="M1728 8.04288e-06C1397.5 82 1341.17 201 864 201C399 169.5 161.5 62 0 8.04288e-06C175.189 8.04288e-06 386.826 0 864 0C1341.17 0 1580.68 8.04288e-06 1728 8.04288e-06Z" fill="url(#paint0_linear_236_170)"/>
<path d="M1728 5.40962e-05C1728 45.6296 1728 48.092 1728 201C1463.22 201 702 45.6296 702 0C819.123 5.40962e-05 1060.32 5.40962e-05 1325.1 5.40962e-05C1589.87 5.40962e-05 1657.73 5.40962e-05 1728 5.40962e-05Z" fill="url(#paint1_linear_236_170)"/>
<path d="M857 9.16924e-07C561.5 101 258.584 230 0 230C0 230 0.000114173 230 0 5.51879e-05C258.584 5.51879e-05 787.065 -8.31353e-06 857 9.16924e-07Z" fill="url(#paint2_linear_236_170)"/>
<defs>
<linearGradient id="paint0_linear_236_170" x1="864" y1="0" x2="864" y2="566.5" gradientUnits="userSpaceOnUse">
<stop stop-color="white"/>
<stop offset="1" stop-color="white" stop-opacity="0"/>
</linearGradient>
<linearGradient id="paint1_linear_236_170" x1="1215" y1="-1.35772e-05" x2="1393.5" y2="539.5" gradientUnits="userSpaceOnUse">
<stop stop-color="white"/>
<stop offset="1" stop-color="white" stop-opacity="0"/>
</linearGradient>
<linearGradient id="paint2_linear_236_170" x1="428.5" y1="0" x2="428.5" y2="648.234" gradientUnits="userSpaceOnUse">
<stop stop-color="white"/>
<stop offset="1" stop-color="white" stop-opacity="0"/>
</linearGradient>
</defs>
</svg>
