<svg width="745" height="442" viewBox="0 0 745 442" fill="none" xmlns="http://www.w3.org/2000/svg">
<g clip-path="url(#clip0_183_6145)">
<path d="M604.421 269.4L602.621 259.66L592.881 257.86L601.581 253.13L600.291 243.31L607.481 250.13L616.411 245.87L612.151 254.8L618.971 261.99L609.151 260.7L604.421 269.4Z" fill="#3D889B"/>
<path d="M466.19 344.19L464.39 334.45L454.65 332.65L463.35 327.92L462.06 318.1L469.24 324.92L478.18 320.66L473.92 329.59L480.73 336.78L470.92 335.49L466.19 344.19Z" fill="#3D889B"/>
<path d="M350.7 308.19L348.89 298.46L339.16 296.65L347.86 291.92L346.57 282.11L353.75 288.92L362.69 284.66L358.43 293.6L365.24 300.78L355.42 299.49L350.7 308.19Z" fill="#3D889B"/>
<path d="M103.21 374.19L101.4 364.45L91.6699 362.64L100.37 357.92L99.0799 348.1L106.26 354.92L115.2 350.66L110.94 359.59L117.75 366.78L107.94 365.49L103.21 374.19Z" fill="#3D889B"/>
<path d="M172.21 270.69L170.4 260.96L160.67 259.15L169.37 254.42L168.08 244.61L175.26 251.42L184.2 247.16L179.94 256.1L186.75 263.28L176.93 261.99L172.21 270.69Z" fill="#3D889B"/>
<path d="M434.69 194.2L432.89 184.46L423.15 182.65L431.85 177.93L430.56 168.11L437.75 174.92L446.68 170.67L442.42 179.6L449.24 186.79L439.42 185.5L434.69 194.2Z" fill="#3D889B"/>
<path d="M20.7099 86.2L18.9099 76.47L9.16992 74.66L17.8699 69.93L16.5799 60.12L23.7699 66.93L32.6999 62.67L28.4399 71.61L35.2599 78.79L25.4399 77.5L20.7099 86.2Z" fill="#3D889B"/>
<path d="M584.69 66.7L582.88 56.97L573.15 55.16L581.85 50.43L580.56 40.62L587.74 47.43L596.68 43.17L592.42 52.11L599.23 59.29L589.41 58L584.69 66.7Z" fill="#3D889B"/>
<path d="M688.29 258.58L689.54 253.33L685.09 250.28L690.47 249.85L691.99 244.68L694.06 249.66L699.46 249.51L695.36 253.02L697.16 258.1L692.56 255.29L688.29 258.58Z" fill="#3D889B"/>
<path d="M573.901 308.42L575.151 303.17L570.711 300.12L576.081 299.69L577.611 294.52L579.681 299.5L585.071 299.35L580.981 302.86L582.781 307.95L578.181 305.13L573.901 308.42Z" fill="#3D889B"/>
<path d="M291.751 441.82L293.001 436.57L288.561 433.52L293.931 433.09L295.461 427.92L297.531 432.9L302.921 432.75L298.831 436.26L300.631 441.34L296.031 438.53L291.751 441.82Z" fill="#3D889B"/>
<path d="M225.18 181.85L226.44 176.6L221.99 173.55L227.36 173.12L228.89 167.95L230.96 172.93L236.35 172.78L232.26 176.29L234.06 181.37L229.46 178.56L225.18 181.85Z" fill="#3D889B"/>
<path d="M3.2 333.34L4.45 328.09L0 325.04L5.38 324.61L6.9 319.44L8.97 324.42L14.37 324.27L10.27 327.78L12.08 332.87L7.47 330.05L3.2 333.34Z" fill="#3D889B"/>
<path d="M18.7703 215.33L20.0203 210.08L15.5703 207.03L20.9503 206.6L22.4703 201.43L24.5403 206.41L29.9403 206.26L25.8403 209.77L27.6503 214.85L23.0403 212.04L18.7703 215.33Z" fill="#3D889B"/>
<path d="M272.251 63.84L273.501 58.59L269.061 55.54L274.431 55.11L275.961 49.94L278.031 54.92L283.421 54.77L279.331 58.28L281.131 63.36L276.531 60.55L272.251 63.84Z" fill="#3D889B"/>
<path d="M419.149 88.36L420.399 83.12L415.949 80.06L421.329 79.63L422.859 74.46L424.929 79.44L430.319 79.3L426.219 82.8L428.029 87.89L423.419 85.07L419.149 88.36Z" fill="#3D889B"/>
<path d="M690.449 78.37L693.909 74.24L691.299 69.52L696.299 71.55L699.989 67.61L699.609 72.98L704.489 75.27L699.259 76.57L698.599 81.92L695.739 77.35L690.449 78.37Z" fill="#3D889B"/>
<path d="M48.2207 0H46.2207V278.67H48.2207V0Z" fill="#22668D"/>
<path d="M115.35 0H113.35V173.5H115.35V0Z" fill="#22668D"/>
<path d="M195.85 0H193.85V99.5H195.85V0Z" fill="#22668D"/>
<path d="M352.35 0H350.35V125.62H352.35V0Z" fill="#22668D"/>
<path d="M286.85 0H284.85V266.17H286.85V0Z" fill="#22668D"/>
<path d="M235.561 0H233.561V344.5H235.561V0Z" fill="#22668D"/>
<path d="M409.811 0H407.811V372.88H409.811V0Z" fill="#22668D"/>
<path d="M476.26 0H474.26V243.5H476.26V0Z" fill="#22668D"/>
<path d="M529.43 0H527.43V116H529.43V0Z" fill="#22668D"/>
<path d="M565.43 0H563.43V354.04H565.43V0Z" fill="#22668D"/>
<path d="M648.1 0H646.1V171.5H648.1V0Z" fill="#22668D"/>
<path d="M713.1 0H711.1V314H713.1V0Z" fill="#22668D"/>
<path opacity="0.1" d="M83.7494 186.39L67.1094 161.28L94.9494 149.75L113.689 126.17L133.259 149.07L161.479 159.61L145.739 185.3L144.429 215.4L115.139 208.36L86.1094 216.43L83.7494 186.39Z" fill="url(#paint0_radial_183_6145)"/>
<path opacity="0.1" d="M449.34 267.45L430.58 243.87L457.31 229.97L473.93 204.84L495.41 225.97L524.45 234.01L511 260.97L512.32 291.07L482.52 286.61L454.31 297.16L449.34 267.45Z" fill="white"/>
<path opacity="0.1" d="M229.3 392.27L199.62 397.46L200.21 367.33L186.1 340.71L214.93 331.96L235.89 310.32L253.12 335.03L280.18 348.28L262 372.3L257.77 402.13L229.3 392.27Z" fill="url(#paint1_radial_183_6145)"/>
<path opacity="0.1" d="M320.55 153.29L304.4 127.86L332.46 116.88L351.65 93.66L370.77 116.94L398.78 128.03L382.55 153.4L380.66 183.47L351.51 175.87L322.33 183.37L320.55 153.29Z" fill="white"/>
<path opacity="0.1" d="M282.53 280.58L262.01 284.17L262.41 263.34L252.66 244.93L272.6 238.88L287.1 223.92L299.01 241.01L317.72 250.17L305.15 266.78L302.21 287.41L282.53 280.58Z" fill="url(#paint2_radial_183_6145)"/>
<path opacity="0.1" d="M405.52 402.08L385 405.66L385.41 384.83L375.66 366.42L395.59 360.37L410.09 345.41L422 362.5L440.71 371.67L428.14 388.28L425.21 408.9L405.52 402.08Z" fill="url(#paint3_radial_183_6145)"/>
<path opacity="0.1" d="M710.131 342.17L689.771 346.6L689.311 325.77L678.811 307.78L698.481 300.91L712.341 285.36L724.951 301.95L744.031 310.33L732.151 327.45L730.071 348.17L710.131 342.17Z" fill="url(#paint4_radial_183_6145)"/>
<path opacity="0.1" d="M525.02 139.59L504.5 143.18L504.9 122.35L495.15 103.94L515.09 97.89L529.59 82.93L541.5 100.02L560.21 109.18L547.64 125.79L544.7 146.42L525.02 139.59Z" fill="url(#paint5_radial_183_6145)"/>
<path opacity="0.1" d="M191.53 119.09L171.01 122.68L171.42 101.85L161.67 83.44L181.61 77.39L196.1 62.43L208.01 79.52L226.73 88.68L214.15 105.29L211.22 125.92L191.53 119.09Z" fill="url(#paint6_radial_183_6145)"/>
<path opacity="0.1" d="M639.809 208.43L610.089 213.37L610.919 183.25L597.039 156.51L625.939 148L647.079 126.54L664.099 151.39L691.049 164.86L672.669 188.74L668.189 218.53L639.809 208.43Z" fill="url(#paint7_radial_183_6145)"/>
<path opacity="0.1" d="M536.769 383.19L518.949 358.91L546.199 346.06L563.789 321.6L584.429 343.54L613.129 352.71L598.639 379.13L598.779 409.26L569.179 403.63L540.569 413.08L536.769 383.19Z" fill="url(#paint8_radial_183_6145)"/>
<path opacity="0.1" d="M27.0296 290.16L15.3496 272.91L34.5296 264.75L47.3296 248.32L61.0096 264.03L80.5996 271.13L69.8796 288.99L69.1796 309.81L48.8796 305.15L28.8596 310.91L27.0296 290.16Z" fill="url(#paint9_radial_183_6145)"/>
<path d="M134.97 202.84L114.96 198.04L95.1304 203.54L93.5204 183.03L82.1504 165.87L101.16 158L113.97 141.89L127.33 157.54L146.61 164.74L135.86 182.28L134.97 202.84Z" fill="url(#paint10_radial_183_6145)"/>
<path d="M501.799 279.38L481.439 276.33L462.169 283.54L458.779 263.25L445.959 247.14L464.219 237.65L475.569 220.48L490.249 234.91L510.079 240.41L500.889 258.82L501.799 279.38Z" fill="url(#paint11_radial_183_6145)"/>
<path d="M249.569 388.71L230.129 381.97L209.859 385.51L210.259 364.94L200.619 346.75L220.309 340.78L234.629 325.99L246.399 342.88L264.879 351.92L252.469 368.33L249.569 388.71Z" fill="url(#paint12_radial_183_6145)"/>
<path d="M371.44 170.73L351.53 165.54L331.6 170.66L330.38 150.12L319.35 132.75L338.51 125.24L351.63 109.38L364.68 125.29L383.82 132.86L372.73 150.19L371.44 170.73Z" fill="url(#paint13_radial_183_6145)"/>
<path d="M294.02 273.99L283.36 270.29L272.24 272.23L272.46 260.95L267.18 250.97L277.98 247.7L285.83 239.59L292.29 248.85L302.42 253.81L295.61 262.81L294.02 273.99Z" fill="url(#paint14_radial_183_6145)"/>
<path d="M417.02 395.48L406.35 391.78L395.24 393.72L395.46 382.44L390.18 372.47L400.98 369.19L408.83 361.09L415.28 370.35L425.41 375.31L418.6 384.31L417.02 395.48Z" fill="url(#paint15_radial_183_6145)"/>
<path d="M660.11 205.04L640.72 198.14L620.42 201.51L620.99 180.94L611.51 162.68L631.25 156.86L645.69 142.2L657.32 159.18L675.72 168.38L663.17 184.69L660.11 205.04Z" fill="url(#paint16_radial_183_6145)"/>
<path d="M721.329 335.1L710.529 331.85L699.499 334.25L699.249 322.97L693.559 313.22L704.219 309.5L711.729 301.08L718.559 310.06L728.889 314.6L722.459 323.87L721.329 335.1Z" fill="url(#paint17_radial_183_6145)"/>
<path d="M536.51 132.99L525.85 129.3L514.73 131.24L514.95 119.96L509.67 109.98L520.47 106.71L528.32 98.6L534.78 107.86L544.91 112.82L538.1 121.82L536.51 132.99Z" fill="url(#paint18_radial_183_6145)"/>
<path d="M203.029 112.49L192.359 108.8L181.249 110.74L181.469 99.46L176.189 89.48L186.989 86.21L194.839 78.1L201.289 87.36L211.429 92.32L204.619 101.32L203.029 112.49Z" fill="url(#paint19_radial_183_6145)"/>
<path d="M588.719 397.17L568.499 393.33L548.959 399.78L546.369 379.37L534.189 362.77L552.809 354L564.819 337.29L578.919 352.28L598.519 358.54L588.619 376.59L588.719 397.17Z" fill="url(#paint20_radial_183_6145)"/>
<path d="M59.5895 297.35L48.5995 294.82L37.7495 297.94L36.7595 286.7L30.4395 277.36L40.8195 272.94L47.7595 264.04L55.1695 272.55L65.7794 276.39L59.9695 286.07L59.5895 297.35Z" fill="url(#paint21_radial_183_6145)"/>
</g>
<defs>
<radialGradient id="paint0_radial_183_6145" cx="0" cy="0" r="1" gradientUnits="userSpaceOnUse" gradientTransform="translate(110.82 175.635) rotate(21.6727) scale(46.4809)">
<stop offset="0.0112" stop-color="#F7941D" stop-opacity="0"/>
<stop offset="0.2814" stop-color="#FAB86A" stop-opacity="0.2748"/>
<stop offset="0.5317" stop-color="#FCD7AA" stop-opacity="0.5294"/>
<stop offset="0.7413" stop-color="#FEEDD8" stop-opacity="0.7425"/>
<stop offset="0.9019" stop-color="#FFFAF4" stop-opacity="0.9059"/>
<stop offset="0.9944" stop-color="white"/>
</radialGradient>
<radialGradient id="paint1_radial_183_6145" cx="0" cy="0" r="1" gradientUnits="userSpaceOnUse" gradientTransform="translate(236.128 359.175) rotate(-15.4079) scale(46.2723 46.2723)">
<stop offset="0.0112" stop-color="#F7941D" stop-opacity="0"/>
<stop offset="0.2814" stop-color="#FAB86A" stop-opacity="0.2748"/>
<stop offset="0.5317" stop-color="#FCD7AA" stop-opacity="0.5294"/>
<stop offset="0.7413" stop-color="#FEEDD8" stop-opacity="0.7425"/>
<stop offset="0.9019" stop-color="#FFFAF4" stop-opacity="0.9059"/>
<stop offset="0.9944" stop-color="white"/>
</radialGradient>
<radialGradient id="paint2_radial_183_6145" cx="0" cy="0" r="1" gradientUnits="userSpaceOnUse" gradientTransform="translate(285.192 255.664) scale(32.1386 32.1386)">
<stop offset="0.0112" stop-color="#F7941D" stop-opacity="0"/>
<stop offset="0.2814" stop-color="#FAB86A" stop-opacity="0.2748"/>
<stop offset="0.5317" stop-color="#FCD7AA" stop-opacity="0.5294"/>
<stop offset="0.7413" stop-color="#FEEDD8" stop-opacity="0.7425"/>
<stop offset="0.9019" stop-color="#FFFAF4" stop-opacity="0.9059"/>
<stop offset="0.9944" stop-color="white"/>
</radialGradient>
<radialGradient id="paint3_radial_183_6145" cx="0" cy="0" r="1" gradientUnits="userSpaceOnUse" gradientTransform="translate(408.186 377.158) scale(32.1391 32.1391)">
<stop offset="0.0112" stop-color="#F7941D" stop-opacity="0"/>
<stop offset="0.2814" stop-color="#FAB86A" stop-opacity="0.2748"/>
<stop offset="0.5317" stop-color="#FCD7AA" stop-opacity="0.5294"/>
<stop offset="0.7413" stop-color="#FEEDD8" stop-opacity="0.7425"/>
<stop offset="0.9019" stop-color="#FFFAF4" stop-opacity="0.9059"/>
<stop offset="0.9944" stop-color="white"/>
</radialGradient>
<radialGradient id="paint4_radial_183_6145" cx="0" cy="0" r="1" gradientUnits="userSpaceOnUse" gradientTransform="translate(711.756 317.16) rotate(-2.37282) scale(32.1389 32.1389)">
<stop offset="0.0112" stop-color="#F7941D" stop-opacity="0"/>
<stop offset="0.2814" stop-color="#FAB86A" stop-opacity="0.2748"/>
<stop offset="0.5317" stop-color="#FCD7AA" stop-opacity="0.5294"/>
<stop offset="0.7413" stop-color="#FEEDD8" stop-opacity="0.7425"/>
<stop offset="0.9019" stop-color="#FFFAF4" stop-opacity="0.9059"/>
<stop offset="0.9944" stop-color="white"/>
</radialGradient>
<radialGradient id="paint5_radial_183_6145" cx="0" cy="0" r="1" gradientUnits="userSpaceOnUse" gradientTransform="translate(527.683 114.672) scale(32.1391 32.1391)">
<stop offset="0.0112" stop-color="#F7941D" stop-opacity="0"/>
<stop offset="0.2814" stop-color="#FAB86A" stop-opacity="0.2748"/>
<stop offset="0.5317" stop-color="#FCD7AA" stop-opacity="0.5294"/>
<stop offset="0.7413" stop-color="#FEEDD8" stop-opacity="0.7425"/>
<stop offset="0.9019" stop-color="#FFFAF4" stop-opacity="0.9059"/>
<stop offset="0.9944" stop-color="white"/>
</radialGradient>
<radialGradient id="paint6_radial_183_6145" cx="0" cy="0" r="1" gradientUnits="userSpaceOnUse" gradientTransform="translate(194.198 94.1719) scale(32.1391 32.1391)">
<stop offset="0.0112" stop-color="#F7941D" stop-opacity="0"/>
<stop offset="0.2814" stop-color="#FAB86A" stop-opacity="0.2748"/>
<stop offset="0.5317" stop-color="#FCD7AA" stop-opacity="0.5294"/>
<stop offset="0.7413" stop-color="#FEEDD8" stop-opacity="0.7425"/>
<stop offset="0.9019" stop-color="#FFFAF4" stop-opacity="0.9059"/>
<stop offset="0.9944" stop-color="white"/>
</radialGradient>
<radialGradient id="paint7_radial_183_6145" cx="0" cy="0" r="1" gradientUnits="userSpaceOnUse" gradientTransform="translate(646.909 175.39) rotate(-14.9285) scale(46.2715 46.2715)">
<stop offset="0.0112" stop-color="#F7941D" stop-opacity="0"/>
<stop offset="0.2814" stop-color="#FAB86A" stop-opacity="0.2748"/>
<stop offset="0.5317" stop-color="#FCD7AA" stop-opacity="0.5294"/>
<stop offset="0.7413" stop-color="#FEEDD8" stop-opacity="0.7425"/>
<stop offset="0.9019" stop-color="#FFFAF4" stop-opacity="0.9059"/>
<stop offset="0.9944" stop-color="white"/>
</radialGradient>
<radialGradient id="paint8_radial_183_6145" cx="0" cy="0" r="1" gradientUnits="userSpaceOnUse" gradientTransform="translate(563.339 371.22) rotate(19.1832) scale(46.4966 46.4966)">
<stop offset="0.0112" stop-color="#F7941D" stop-opacity="0"/>
<stop offset="0.2814" stop-color="#FAB86A" stop-opacity="0.2748"/>
<stop offset="0.5317" stop-color="#FCD7AA" stop-opacity="0.5294"/>
<stop offset="0.7413" stop-color="#FEEDD8" stop-opacity="0.7425"/>
<stop offset="0.9019" stop-color="#FFFAF4" stop-opacity="0.9059"/>
<stop offset="0.9944" stop-color="white"/>
</radialGradient>
<radialGradient id="paint9_radial_183_6145" cx="0" cy="0" r="1" gradientUnits="userSpaceOnUse" gradientTransform="translate(45.7007 282.594) rotate(21.3822) scale(32.1525 32.1525)">
<stop offset="0.0112" stop-color="#F7941D" stop-opacity="0"/>
<stop offset="0.2814" stop-color="#FAB86A" stop-opacity="0.2748"/>
<stop offset="0.5317" stop-color="#FCD7AA" stop-opacity="0.5294"/>
<stop offset="0.7413" stop-color="#FEEDD8" stop-opacity="0.7425"/>
<stop offset="0.9019" stop-color="#FFFAF4" stop-opacity="0.9059"/>
<stop offset="0.9944" stop-color="white"/>
</radialGradient>
<radialGradient id="paint10_radial_183_6145" cx="0" cy="0" r="1" gradientUnits="userSpaceOnUse" gradientTransform="translate(112.008 175.68) rotate(21.6727) scale(31.7499)">
<stop offset="0.00561806" stop-color="#F7C979"/>
<stop offset="0.1904" stop-color="#F7C36E"/>
<stop offset="0.511" stop-color="#F7B352"/>
<stop offset="0.9266" stop-color="#F79824"/>
<stop offset="0.9888" stop-color="#F7941D"/>
</radialGradient>
<radialGradient id="paint11_radial_183_6145" cx="0" cy="0" r="1" gradientUnits="userSpaceOnUse" gradientTransform="translate(478.021 252.014) scale(31.7955 31.7955)">
<stop offset="0.00561806" stop-color="#F7C979"/>
<stop offset="0.1904" stop-color="#F7C36E"/>
<stop offset="0.511" stop-color="#F7B352"/>
<stop offset="0.9266" stop-color="#F79824"/>
<stop offset="0.9888" stop-color="#F7941D"/>
</radialGradient>
<radialGradient id="paint12_radial_183_6145" cx="0" cy="0" r="1" gradientUnits="userSpaceOnUse" gradientTransform="translate(234.791 359.366) rotate(-15.4079) scale(31.6075 31.6074)">
<stop offset="0.00561806" stop-color="#F7C979"/>
<stop offset="0.1904" stop-color="#F7C36E"/>
<stop offset="0.511" stop-color="#F7B352"/>
<stop offset="0.9266" stop-color="#F79824"/>
<stop offset="0.9888" stop-color="#F7941D"/>
</radialGradient>
<radialGradient id="paint13_radial_183_6145" cx="0" cy="0" r="1" gradientUnits="userSpaceOnUse" gradientTransform="translate(349.035 143.179) rotate(23.0421) scale(31.76)">
<stop offset="0.00561806" stop-color="#F7C979"/>
<stop offset="0.1904" stop-color="#F7C36E"/>
<stop offset="0.511" stop-color="#F7B352"/>
<stop offset="0.9266" stop-color="#F79824"/>
<stop offset="0.9888" stop-color="#F7941D"/>
</radialGradient>
<radialGradient id="paint14_radial_183_6145" cx="0" cy="0" r="1" gradientUnits="userSpaceOnUse" gradientTransform="translate(284.801 256.79) scale(17.4088 17.4088)">
<stop offset="0.00561806" stop-color="#F7C979"/>
<stop offset="0.1904" stop-color="#F7C36E"/>
<stop offset="0.511" stop-color="#F7B352"/>
<stop offset="0.9266" stop-color="#F79824"/>
<stop offset="0.9888" stop-color="#F7941D"/>
</radialGradient>
<radialGradient id="paint15_radial_183_6145" cx="0" cy="0" r="1" gradientUnits="userSpaceOnUse" gradientTransform="translate(407.795 378.284) scale(17.4087 17.4087)">
<stop offset="0.00561806" stop-color="#F7C979"/>
<stop offset="0.1904" stop-color="#F7C36E"/>
<stop offset="0.511" stop-color="#F7B352"/>
<stop offset="0.9266" stop-color="#F79824"/>
<stop offset="0.9888" stop-color="#F7941D"/>
</radialGradient>
<radialGradient id="paint16_radial_183_6145" cx="0" cy="0" r="1" gradientUnits="userSpaceOnUse" gradientTransform="translate(645.571 175.571) rotate(-14.9285) scale(31.6067 31.6067)">
<stop offset="0.00561806" stop-color="#F7C979"/>
<stop offset="0.1904" stop-color="#F7C36E"/>
<stop offset="0.511" stop-color="#F7B352"/>
<stop offset="0.9266" stop-color="#F79824"/>
<stop offset="0.9888" stop-color="#F7941D"/>
</radialGradient>
<radialGradient id="paint17_radial_183_6145" cx="0" cy="0" r="1" gradientUnits="userSpaceOnUse" gradientTransform="translate(711.41 318.302) rotate(-2.37282) scale(17.4095 17.4095)">
<stop offset="0.00561806" stop-color="#F7C979"/>
<stop offset="0.1904" stop-color="#F7C36E"/>
<stop offset="0.511" stop-color="#F7B352"/>
<stop offset="0.9266" stop-color="#F79824"/>
<stop offset="0.9888" stop-color="#F7941D"/>
</radialGradient>
<radialGradient id="paint18_radial_183_6145" cx="0" cy="0" r="1" gradientUnits="userSpaceOnUse" gradientTransform="translate(527.291 115.797) scale(17.4087 17.4087)">
<stop offset="0.00561806" stop-color="#F7C979"/>
<stop offset="0.1904" stop-color="#F7C36E"/>
<stop offset="0.511" stop-color="#F7B352"/>
<stop offset="0.9266" stop-color="#F79824"/>
<stop offset="0.9888" stop-color="#F7941D"/>
</radialGradient>
<radialGradient id="paint19_radial_183_6145" cx="0" cy="0" r="1" gradientUnits="userSpaceOnUse" gradientTransform="translate(193.807 95.2979) scale(17.4092 17.4092)">
<stop offset="0.00561806" stop-color="#F7C979"/>
<stop offset="0.1904" stop-color="#F7C36E"/>
<stop offset="0.511" stop-color="#F7B352"/>
<stop offset="0.9266" stop-color="#F79824"/>
<stop offset="0.9888" stop-color="#F7941D"/>
</radialGradient>
<radialGradient id="paint20_radial_183_6145" cx="0" cy="0" r="1" gradientUnits="userSpaceOnUse" gradientTransform="translate(564.513 371.186) rotate(19.1832) scale(31.7605 31.7605)">
<stop offset="0.00561806" stop-color="#F7C979"/>
<stop offset="0.1904" stop-color="#F7C36E"/>
<stop offset="0.511" stop-color="#F7B352"/>
<stop offset="0.9266" stop-color="#F79824"/>
<stop offset="0.9888" stop-color="#F7941D"/>
</radialGradient>
<radialGradient id="paint21_radial_183_6145" cx="0" cy="0" r="1" gradientUnits="userSpaceOnUse" gradientTransform="translate(46.8751 282.603) rotate(21.3822) scale(17.4162)">
<stop offset="0.00561806" stop-color="#F7C979"/>
<stop offset="0.1904" stop-color="#F7C36E"/>
<stop offset="0.511" stop-color="#F7B352"/>
<stop offset="0.9266" stop-color="#F79824"/>
<stop offset="0.9888" stop-color="#F7941D"/>
</radialGradient>
<clipPath id="clip0_183_6145">
<rect width="744.03" height="441.82" fill="white"/>
</clipPath>
</defs>
</svg>
