<svg width="392" height="498" viewBox="0 0 392 498" fill="none" xmlns="http://www.w3.org/2000/svg">
<path d="M61.2064 172.663C4.28137 189.089 6.61842 288.21 88.2566 272.155C169.902 256.099 131.055 152.509 61.2064 172.663Z" fill="#AE7D55"/>
<path d="M49.0942 269.727C59.1798 273.995 72.1703 275.316 88.2572 272.151C125.453 264.837 137.632 239.356 133.267 215.684C101.062 225.165 66.7137 241.502 49.0942 269.727Z" fill="#8D5D39"/>
<path d="M67.9946 195.422C34.5401 205.071 35.9156 263.32 83.887 253.884C131.865 244.448 109.042 183.574 67.9946 195.422Z" fill="#FFAD94"/>
<path d="M62.8468 253.22C68.4651 255.112 75.4579 255.547 83.8882 253.886C104.386 249.853 111.96 236.434 110.704 223.309C110.711 223.308 85.2583 233.887 62.8468 253.22Z" fill="#E78C75"/>
<path d="M279.516 149.39C222.591 165.816 228.448 263.412 310.086 247.357C391.731 231.301 349.364 129.235 279.516 149.39Z" fill="#AE7D55"/>
<path d="M242.021 198.008C240.594 227.348 262.416 256.732 310.095 247.356C320.805 245.248 329.366 241.655 336.026 237.056C326.392 224.562 282.391 190.591 242.021 198.008Z" fill="#8D5D39"/>
<path d="M287.453 173.137C256.29 182.128 259.5 235.554 304.19 226.763C348.88 217.98 325.687 162.105 287.453 173.137Z" fill="#FFAD94"/>
<path d="M267.027 198.281C265.423 214.812 277.294 232.053 304.191 226.763C309.951 225.632 314.586 223.713 318.203 221.263C293.296 201.795 267.027 198.281 267.027 198.281Z" fill="#E78C75"/>
<path d="M195.58 200.613C111.439 205.714 36.9796 282.305 30.8179 350.867C25.8713 405.911 60.0759 456.645 205.489 454.47C335.21 452.524 376.062 407.013 380.46 354.866C386.692 280.918 307.102 193.852 195.58 200.613Z" fill="#AE7D55"/>
<path d="M140.274 239.837C211.279 208.6 241.409 203.241 239.628 202.824C223.696 199.065 213.303 199.581 195.577 200.613C139.777 203.859 84.9867 240.441 55.1845 288.161C85.8331 263.255 110.783 252.812 140.274 239.837Z" fill="#906141"/>
<path d="M201.788 290.445C160.043 294.023 124.016 330.436 121.818 362.145C120.052 387.609 137.693 410.516 209.915 407.399C274.349 404.62 294.07 383.031 295.599 358.908C297.759 324.71 257.112 285.707 201.788 290.445Z" fill="#FDF2EE"/>
<path fill-rule="evenodd" clip-rule="evenodd" d="M114.861 294.307C125.286 292.763 135.555 298.916 140.461 308.753C140.467 306.983 140.304 305.176 139.953 303.349C137.256 289.482 124.697 279.777 111.899 281.674C99.1 283.572 90.9176 296.348 93.6132 310.208C94.1129 312.781 94.9539 315.204 96.0686 317.444C96.1239 305.799 103.752 295.95 114.861 294.307Z" fill="#3D2B22"/>
<path fill-rule="evenodd" clip-rule="evenodd" d="M275.377 272.836C287.014 271.114 298.455 278.983 302.46 290.858C302.66 288.451 302.534 285.948 302.037 283.411C299.341 269.544 286.782 259.839 273.983 261.736C261.185 263.634 253.003 276.41 255.698 290.27C255.946 291.528 256.269 292.743 256.67 293.931C257.55 283.199 264.924 274.382 275.377 272.836Z" fill="#3D2B22"/>
<path d="M211.016 358.745C209.561 358.698 208.391 357.726 208.362 356.486C208.244 351.708 201.021 309.57 199.693 304.039C199.386 302.757 200.393 301.475 201.936 301.182C203.485 300.889 204.988 301.69 205.295 302.971C206.589 308.361 213.932 350.64 214.074 356.24C214.11 357.559 212.851 358.673 211.276 358.745C211.19 358.752 211.103 358.752 211.016 358.745Z" fill="#81634C"/>
<path d="M180.804 340.572C180.804 340.572 185.276 384.643 215.387 379.298C245.499 373.953 235.983 331.374 235.983 331.374C235.983 331.374 216.334 354.134 180.804 340.572Z" fill="#FF6B5D"/>
<path d="M180.804 340.571C180.804 340.571 181.673 349.149 185.236 358.279C193.089 343.502 228.78 341.519 237.314 349.401C237.837 339.669 235.98 331.374 235.98 331.374C235.98 331.374 216.333 354.131 180.804 340.571Z" fill="#AA3535"/>
<path d="M198.624 347.997C191.301 347.755 185.874 345.638 182.213 343.506C176.809 340.355 173.274 336.141 171.18 332.075C169.73 329.263 175.314 327.93 176.495 330.179C178.299 333.612 181.304 337.076 185.578 339.569C192.165 343.417 200.325 344.269 209.818 342.101C226.466 338.306 233.44 330.952 235.792 323.452C236.431 321.125 241.6 321.234 241.633 323.397C239.333 332.229 231.784 341.998 211.169 346.698C206.493 347.768 202.315 348.119 198.624 347.997Z" fill="#81634C"/>
<path fill-rule="evenodd" clip-rule="evenodd" d="M181.085 299.93C189.948 294.659 215.457 291.99 222.625 295.09C229.794 298.197 217.651 313.557 204.352 315.511C191.045 317.458 169.662 306.719 181.085 299.93Z" fill="#3D2B22"/>
<path d="M214.152 456.185C212.509 448.991 165.654 433.403 163.756 444.773C163.282 447.614 162.907 450.612 162.68 453.656C161.897 464.27 162.963 475.519 168.035 483.254C174.37 492.921 210.328 478.306 216.17 462.409L214.152 456.185Z" fill="#FFB1AD"/>
<path d="M222.467 455.053C225.533 448.692 262.887 428.488 266.03 431.963C268.507 435.947 270.878 440.915 272.258 446.484C275.726 460.452 272.965 478.197 268.916 477.491C263.396 476.53 226.882 476.872 220.65 461.145L222.467 455.053Z" fill="#FFB1AD"/>
<path d="M218.809 465.518C217.793 466.684 217.386 467.527 214.547 467.5C211.709 467.481 210.498 455.876 212.32 453.711C214.149 451.539 217.395 454.42 217.395 454.42C217.395 454.42 220.822 452.296 222.874 453.117C226.732 454.655 225.101 465.231 223.066 466.561C221.038 467.883 218.809 465.518 218.809 465.518Z" fill="#FFB1AD"/>
<path opacity="0.33" d="M215.738 467.381C216.595 467.275 218.195 466.45 218.811 465.511C219.836 466.488 221.059 467.052 222.023 466.936C222.627 466.901 223.216 466.513 223.76 465.761C224.939 467.288 228.372 469.374 228.396 469.314C241.32 476.778 264.59 476.733 268.902 477.49C268.902 477.49 241.77 472.503 229.722 462.433C229.856 461.425 230.053 460.572 230.096 459.507C231.506 458.654 235.151 460.08 237.261 460.109C240.132 460.176 243.287 460.811 246.374 460.435C247.939 460.248 252.637 458.309 252.587 456.913C252.538 455.516 244.777 453.194 241.722 453.337C239.975 453.423 233.445 456.964 230.117 457.65C230.04 454.688 229.517 451.302 228.965 449.319C228.965 449.319 226.321 450.966 223.683 453.551C223.683 453.551 224.827 454.655 224.337 458.977C224.166 460.5 223.703 462.069 222.998 463.513C222.446 463.559 221.788 463.62 221.064 463.68C220.276 462.264 219.221 460.394 217.864 461.806C217.731 461.939 216.402 464.388 215.198 464.848C213.688 465.434 212.233 463.98 211.984 463.315C211.671 462.496 211.503 460.437 211.528 458.284C211.549 456.78 211.687 454.848 212.245 453.734C209.563 451.659 207.662 451.173 207.662 451.173C207.21 452.791 207.035 454.885 206.606 458.631C202.826 457.513 194.419 452.139 192.585 452.045C189.484 451.889 178.193 454.572 178.201 455.994C178.21 457.423 188.562 461.423 190.144 461.617C193.272 462.003 196.438 461.367 199.334 461.302C201.497 461.275 205.122 459.814 206.589 460.719C206.62 461.352 206.687 461.91 206.796 462.449C186.093 483.416 168.035 483.227 168.035 483.227C173.752 491.947 203.533 480.92 213.623 467.021C213.617 467.043 214.881 467.488 215.738 467.381Z" fill="#D8726D"/>
<path d="M21.4884 85.585C27.7369 84.3342 33.4576 79.2858 37.0014 71.8031L37.3279 71.1192C40.3098 64.7946 44.9102 55.5859 56.2611 54.6876C66.0055 53.9143 74.4416 59.104 80.3638 68.5799L81.4118 67.8943C80.8353 67.1115 70.6424 47.3523 54.7813 48.6075C39.121 49.8462 33.7926 61.1797 30.6016 67.9475L30.2883 68.6158C27.6298 74.2207 23.3982 77.9769 19.2618 78.404C15.4049 78.8082 12.6135 76.2727 10.9469 74.0779L5.02208 78.5727C9.00329 83.8259 14.3303 86.3908 20.0265 85.7992C20.5211 85.7585 21.0057 85.6825 21.4884 85.585Z" fill="#FD95FF"/>
<path d="M43.2215 89.9224C47.8867 88.9896 54.3057 84.0063 57.5114 74.7749C59.5376 68.9403 58.3638 62.8059 66.2501 60.756C69.3662 59.9435 74.909 60.2092 79.5089 67.816C80.5692 69.5699 81.635 67.6915 80.5538 65.9466C74.9464 56.8776 70.6006 55.7192 64.9842 56.8458C64.9346 56.8571 64.885 56.8684 64.8349 56.8725C57.0244 58.5264 53.7647 63.4878 50.6371 71.9113C48.5089 77.646 44.9209 83.2699 36.8028 82.3137C33.0719 81.8772 28.059 80.6798 22.5468 84.7509L26.9631 90.7338C29.8684 88.5813 32.2063 89.017 35.4388 89.6245C38.0926 90.128 40.6649 90.4289 43.2215 89.9224Z" fill="#7FD858"/>
<path d="M81.423 68.6423C74.0203 61.5464 71.5216 55.455 72.1172 50.2138C72.7944 44.2075 78.0871 41.0565 82.3257 38.5195C82.8142 38.2265 83.2962 37.9413 83.7637 37.6573C89.1445 34.3474 88.593 31.3164 87.9596 27.8156C87.6168 25.9229 87.2616 23.9663 88.1394 22.0814L95.0229 24.8655C95.0451 25.2247 95.1761 25.9433 95.2716 26.4915C95.9536 30.2339 98.164 39.5914 87.6546 44.0024C74.6955 49.4382 73.0781 57.0961 80.2065 63.9257C81.6874 65.3492 87.428 70.3072 86.0053 71.7964C85.9311 71.8602 82.8252 69.9856 81.423 68.6423Z" fill="#FF8158"/>
<path d="M70.3907 267.519C98.1531 245.737 200.336 204.615 238.986 202.604L77.05 59.7029L70.3907 267.519Z" fill="#FF5F62"/>
<mask id="mask0_443_4695" style="mask-type:luminance" maskUnits="userSpaceOnUse" x="70" y="59" width="169" height="209">
<path d="M70.3682 267.519C100.37 244.981 181.855 210.143 238.989 202.591L77.0509 59.7185L70.3682 267.519Z" fill="white"/>
</mask>
<g mask="url(#mask0_443_4695)">
<path d="M93.9647 115.035L97.1384 84.2353L97.1735 84.3118L123.305 100.883L119.44 130.201L93.9647 115.035Z" fill="#FFE0E3"/>
<path d="M71.6889 69.1569L74.8625 38.3576L74.8976 38.4341L101.029 55.0055L97.164 84.3236L71.6889 69.1569Z" fill="#FFE0E3"/>
<path d="M116.287 160.952L119.461 130.152L119.496 130.229L145.628 146.8L141.763 176.118L116.287 160.952Z" fill="#FFE0E3"/>
<path d="M145.631 146.804L148.805 116.012L148.847 116.081L174.979 132.659L171.113 161.97L145.631 146.804Z" fill="#FFE0E3"/>
<path d="M64.5692 129.143L67.75 98.3435L67.7852 98.42L93.9173 114.999L90.0515 144.31L64.5692 129.143Z" fill="#FFE0E3"/>
<path d="M86.89 175.061L90.0708 144.261L90.106 144.337L116.237 160.909L112.372 190.227L86.89 175.061Z" fill="#FFE0E3"/>
<path d="M57.5462 189.201L60.7204 158.409L60.7621 158.478L86.8871 175.057L83.0291 204.375L57.5462 189.201Z" fill="#FFE0E3"/>
<path d="M138.569 206.836L141.75 176.036L141.785 176.113L167.917 192.692L164.052 222.002L138.569 206.836Z" fill="#FFE0E3"/>
<path d="M167.921 192.695L171.094 161.896L171.13 161.972L197.261 178.544L193.396 207.862L167.921 192.695Z" fill="#FFE0E3"/>
<path d="M109.18 220.944L112.355 190.152L112.396 190.221L138.521 206.8L134.656 236.111L109.18 220.944Z" fill="#FFE0E3"/>
<path d="M79.8368 235.092L83.0104 204.293L83.0456 204.369L109.177 220.941L105.312 250.259L79.8368 235.092Z" fill="#FFE0E3"/>
<path d="M160.843 252.678L164.016 221.879L164.059 221.955L190.183 238.527L186.318 267.845L160.843 252.678Z" fill="#FFE0E3"/>
<path d="M190.184 238.53L193.366 207.738L193.401 207.814L219.532 224.386L215.667 253.704L190.184 238.53Z" fill="#FFE0E3"/>
<path d="M197.254 178.592L200.435 147.799L200.47 147.868L226.602 164.447L222.737 193.765L197.254 178.592Z" fill="#FFE0E3"/>
<path d="M219.527 224.433L222.701 193.634L222.743 193.71L248.868 210.289L245.002 239.6L219.527 224.433Z" fill="#FFE0E3"/>
<path d="M131.454 266.786L134.628 235.987L134.663 236.063L160.795 252.642L156.929 281.953L131.454 266.786Z" fill="#FFE0E3"/>
<path d="M102.103 280.934L105.284 250.135L105.319 250.211L131.45 266.783L127.585 296.101L102.103 280.934Z" fill="#FFE0E3"/>
<path d="M50.4921 249.204L53.6657 218.405L53.708 218.481L79.833 235.06L75.9744 264.37L50.4921 249.204Z" fill="#FFE0E3"/>
<path d="M72.765 295.046L75.9387 264.246L75.9738 264.323L102.106 280.901L98.2401 310.212L72.765 295.046Z" fill="#FFE0E3"/>
</g>
<path opacity="0.4" d="M70.3907 267.519C91.931 248.545 190.481 206.856 238.986 202.604C195.31 192.254 97.941 227.39 97.941 227.39C88.2649 184.54 77.05 59.7029 77.05 59.7029L70.3907 267.519Z" fill="#BA2E38"/>
</svg>
