<svg width="520" height="833" viewBox="0 0 520 833" fill="none" xmlns="http://www.w3.org/2000/svg">
<path opacity="0.4" d="M260 833C403.594 833 520 818.621 520 800.884C520 783.146 403.594 768.767 260 768.767C116.406 768.767 0 783.146 0 800.884C0 818.621 116.406 833 260 833Z" fill="#13273B"/>
<path d="M22.4325 512.454C29.2939 499.584 98.7495 461.824 152.778 462.681C152.778 462.681 161.351 518.464 160.495 537.344C159.639 556.223 62.7379 614.583 49.8781 612.006C37.0112 609.429 13.8593 557.08 22.4325 512.454Z" fill="#955E3D"/>
<path d="M464.972 458.477C455.083 447.76 378.349 428.779 326.291 443.268C326.291 443.268 332.074 499.411 337.669 517.456C343.265 535.508 451.753 567.473 463.548 561.73C475.343 555.993 484.535 499.483 464.972 458.477Z" fill="#955E3D"/>
<path d="M236.228 414.938C157.919 412.728 108.393 475.658 84.6007 549.803C67.8211 602.109 107.896 686.604 237.148 694.025C347.665 700.366 390.912 634.017 393.148 581.876C396.55 502.686 340.026 417.867 236.228 414.938Z" fill="#AE7D55"/>
<path d="M179.912 449.717C174.913 473.758 183.587 487.096 187.226 488.37C203.215 493.97 232.61 462.954 234.364 464.178C244.239 471.059 254.229 478.336 265.284 482.791C274.303 486.419 289.249 489.615 292.679 481.222C296.254 472.47 298.109 456.649 300.972 453.54C304.324 449.897 318.406 451.359 322.455 441.44C298.807 425.77 269.923 415.945 236.199 414.945C206.638 414.067 181.048 422.661 159.277 437.856C165.808 442.498 173 445.816 179.912 449.717Z" fill="#955E3D"/>
<path d="M393.156 581.876C390.919 634.017 347.679 700.359 237.163 694.025C203.215 692.074 175.432 684.812 153.2 674.217C123.022 659.828 94.4612 633.887 81.1699 593.551C101.373 602.613 393.156 581.876 393.156 581.876Z" fill="#955E3D"/>
<path d="M237.794 477.076C193.001 476.709 155.91 531.621 148.732 584.417C142.971 626.805 156.622 687.986 233.659 693.766C302.381 698.92 319.541 644.166 324.849 603.995C332.379 547.025 297.173 477.559 237.794 477.076Z" fill="#FDF2EE"/>
<mask id="mask0_183_5992" style="mask-type:luminance" maskUnits="userSpaceOnUse" x="147" y="477" width="179" height="218">
<path d="M237.792 477.076C192.999 476.709 155.908 531.621 148.73 584.417C142.969 626.805 156.62 687.986 233.657 693.766C302.379 698.92 319.539 644.166 324.847 603.995C332.378 547.025 297.171 477.559 237.792 477.076Z" fill="white"/>
</mask>
<g mask="url(#mask0_183_5992)">
<path d="M309.141 541.101C297.619 535.825 284.076 551.106 299.834 558.93C314.269 566.099 319.253 545.729 309.141 541.101Z" fill="#FF7679"/>
<path d="M210.227 543.346C198.705 538.07 185.162 553.351 200.92 561.175C215.355 568.344 220.339 547.975 210.227 543.346Z" fill="#FF7679"/>
<path d="M181.182 613.316C169.66 608.04 156.117 623.321 171.875 631.145C186.31 638.314 191.294 617.944 181.182 613.316Z" fill="#FF7679"/>
<path d="M264.104 679.572C252.582 674.296 239.039 689.577 254.797 697.401C269.232 704.57 274.216 684.2 264.104 679.572Z" fill="#FF7679"/>
<path d="M208.938 655.279C197.416 650.003 183.873 665.284 199.631 673.108C214.059 680.277 219.05 659.907 208.938 655.279Z" fill="#FF7679"/>
<path d="M223.926 594.688C212.404 589.412 198.861 604.693 214.62 612.517C229.054 619.686 234.039 599.316 223.926 594.688Z" fill="#FF7679"/>
<path d="M246.741 634.031C235.219 628.755 221.676 644.036 237.434 651.86C251.862 659.029 256.853 638.66 246.741 634.031Z" fill="#FF7679"/>
<path d="M311.227 650.01C299.705 644.734 286.162 660.015 301.92 667.839C316.355 675.008 321.339 654.639 311.227 650.01Z" fill="#FF7679"/>
<path d="M283.639 612.467C272.117 607.191 258.574 622.472 274.332 630.296C288.767 637.472 293.752 617.095 283.639 612.467Z" fill="#FF7679"/>
<path d="M166.432 565.113C154.91 559.837 141.367 575.118 157.125 582.942C171.56 590.118 176.544 569.741 166.432 565.113Z" fill="#FF7679"/>
<path d="M202.077 492.731C190.555 487.455 177.012 502.736 192.77 510.56C207.205 517.729 212.189 497.36 202.077 492.731Z" fill="#FF7679"/>
<path d="M247.049 472.981C235.527 467.705 221.984 482.986 237.743 490.81C252.177 497.979 257.162 477.609 247.049 472.981Z" fill="#FF7679"/>
<path d="M321.167 585.806C309.645 580.53 296.102 595.811 311.86 603.635C326.295 610.804 331.279 590.434 321.167 585.806Z" fill="#FF7679"/>
<path d="M266.016 564.364C254.494 559.088 240.951 574.369 256.709 582.193C271.144 589.362 276.128 568.992 266.016 564.364Z" fill="#FF7679"/>
<path d="M256.35 515.858C244.828 510.582 231.285 525.863 247.043 533.687C261.478 540.856 266.462 520.486 256.35 515.858Z" fill="#FF7679"/>
<path d="M292.008 491.637C280.486 486.361 266.943 501.642 282.702 509.466C297.136 516.635 302.121 496.266 292.008 491.637Z" fill="#FF7679"/>
</g>
<path d="M322.996 608.566C321.708 639.458 306.72 662.707 297.571 672.374C283.92 686.806 263.724 696.012 233.675 693.751C185.516 690.145 162.127 664.881 152.77 636.09L322.996 608.566Z" fill="#DFCECA"/>
<path d="M117.714 776.612C117.714 776.612 104.991 785.056 106.811 794.679C110.565 808.456 183.372 809.226 212.17 801.308C220.074 787.409 193.744 713.725 173.411 678.068C149.928 643.396 125.575 628.561 105.214 633.643C101.496 633.744 103.776 730.511 117.714 776.612Z" fill="#AE7D55"/>
<path d="M112.399 681.364C143.714 699.848 178.093 719.966 203.259 747.454C195.132 722.938 183.53 695.803 173.418 678.06C149.935 643.388 125.582 628.554 105.221 633.635C103.603 633.679 103.121 652.033 104.236 676.541C106.955 678.154 109.673 679.759 112.399 681.364Z" fill="#955E3D"/>
<path d="M362.447 776.612C362.447 776.612 375.17 785.055 373.35 794.679C369.596 808.455 296.788 809.226 267.991 801.308C260.086 787.409 286.417 713.725 306.75 678.067C330.232 643.396 354.585 628.561 374.947 633.643C378.672 633.743 376.392 730.51 362.447 776.612Z" fill="#AE7D55"/>
<path d="M376.512 648.305C376.383 639.235 375.843 633.664 374.951 633.643C354.59 628.561 330.237 643.389 306.754 678.068C301.461 687.353 295.757 699.215 290.363 711.926C315.471 685.582 343.061 661.916 376.512 648.305Z" fill="#955E3D"/>
<path d="M120.068 131.761C60.9266 135.208 41.3921 232.401 124.558 234.774C207.732 237.148 192.637 127.531 120.068 131.761Z" fill="#AE7D55"/>
<path d="M86.8878 223.753C95.7862 230.143 108.167 234.301 124.555 234.767C162.446 235.849 179.933 213.687 180.885 189.636C147.386 191.77 110.286 200.117 86.8878 223.753Z" fill="#8D5D39"/>
<path d="M121.68 155.458C86.9232 157.48 75.4458 214.596 124.315 215.988C173.192 217.382 164.326 152.968 121.68 155.458Z" fill="#FFAD94"/>
<path d="M103.936 210.692C109 213.778 115.725 215.747 124.314 215.989C145.195 216.582 155.537 205.168 157.2 192.089C157.207 192.09 130.051 196.786 103.936 210.692Z" fill="#E78C75"/>
<path d="M338.132 157.229C278.99 160.676 263.225 257.159 346.391 259.532C429.564 261.906 410.7 153 338.132 157.229Z" fill="#AE7D55"/>
<path d="M290.855 196.37C283.006 224.671 297.825 258.15 346.396 259.537C357.307 259.846 366.448 258.232 373.956 255.218C367.308 240.905 331.865 198.054 290.855 196.37Z" fill="#8D5D39"/>
<path d="M340.647 182.144C308.271 184.03 299.645 236.847 345.171 238.145C390.697 239.449 380.37 179.829 340.647 182.144Z" fill="#FFAD94"/>
<path d="M315.188 202.158C309.985 217.927 317.77 237.365 345.17 238.147C351.037 238.316 355.981 237.467 360.048 235.877C340.038 211.388 315.188 202.158 315.188 202.158Z" fill="#E78C75"/>
<path d="M244.972 188.677C161.777 175.076 72.2841 233.34 51.1781 298.852C34.2336 351.448 56.4269 408.482 198.744 438.465C325.704 465.206 375.573 429.836 391.344 379.945C413.705 309.196 355.241 206.705 244.972 188.677Z" fill="#AE7D55"/>
<path d="M182.403 214.728C258.539 199.937 289.108 201.362 287.463 200.562C272.75 193.379 262.499 191.587 244.982 188.68C189.839 179.528 128.342 203.112 88.7654 243.076C124.144 225.55 150.78 220.873 182.403 214.728Z" fill="#906141"/>
<path d="M231.245 277.666C189.739 271.94 146.58 299.501 137.454 329.943C130.126 354.389 142.289 380.626 213.422 393.531C276.884 405.046 300.873 388.343 307.676 365.153C317.313 332.275 286.253 285.259 231.245 277.666Z" fill="#FDF2EE"/>
<path fill-rule="evenodd" clip-rule="evenodd" d="M145.615 262.251C156.123 263.047 164.784 271.315 167.404 281.992C167.8 280.268 168.039 278.47 168.098 276.61C168.521 262.489 158.408 250.251 145.506 249.276C132.604 248.301 121.81 258.956 121.388 273.069C121.309 275.689 121.596 278.237 122.189 280.669C124.807 269.323 134.417 261.401 145.615 262.251Z" fill="#3D2B22"/>
<path fill-rule="evenodd" clip-rule="evenodd" d="M306.912 276.726C318.641 277.615 328.069 287.816 329.361 300.283C330.086 297.979 330.514 295.511 330.588 292.926C331.011 278.806 320.898 266.567 307.996 265.592C295.094 264.617 284.3 275.272 283.878 289.385C283.842 290.667 283.89 291.924 284.019 293.17C287.241 282.898 296.375 275.926 306.912 276.726Z" fill="#3D2B22"/>
<path d="M225.213 346.32C223.804 345.954 222.877 344.747 223.121 343.531C224.058 338.844 226.288 296.149 226.211 290.461C226.194 289.142 227.458 288.115 229.027 288.169C230.604 288.225 231.893 289.338 231.911 290.656C231.986 296.199 229.842 339.059 228.748 344.552C228.492 345.846 227.019 346.656 225.467 346.378C225.381 346.366 225.297 346.346 225.213 346.32Z" fill="#81634C"/>
<path d="M199.738 321.922C199.738 321.922 194.401 365.893 224.95 367.331C255.498 368.769 255.586 325.138 255.586 325.138C255.586 325.138 231.411 342.997 199.738 321.922Z" fill="#FF6B5D"/>
<path d="M199.742 321.921C199.742 321.921 198.702 330.48 200.168 340.17C211.08 327.493 246.33 333.441 252.919 343.014C255.571 333.637 255.586 325.137 255.586 325.137C255.586 325.137 231.413 342.993 199.742 321.921Z" fill="#AA3535"/>
<path d="M215.491 333.099C208.401 331.246 203.573 327.983 200.472 325.095C195.894 320.829 193.374 315.938 192.226 311.51C191.43 308.447 197.171 308.38 197.827 310.835C198.831 314.581 201 318.623 204.621 321.998C210.199 327.206 217.97 329.839 227.707 329.821C244.781 329.796 253.202 324.164 257.147 317.369C258.282 315.241 263.3 316.488 262.856 318.606C258.669 326.711 249.156 334.571 228.013 334.602C223.217 334.614 219.064 334.034 215.491 333.099Z" fill="#81634C"/>
<path fill-rule="evenodd" clip-rule="evenodd" d="M208.969 282.344C218.775 279.161 244.244 282.191 250.554 286.798C256.862 291.411 241.637 303.711 228.235 302.679C214.827 301.639 196.333 286.442 208.969 282.344Z" fill="#3D2B22"/>
<path d="M206.798 442.062C206.778 434.682 164.503 409.126 160.151 419.796C159.063 422.462 158.037 425.304 157.146 428.223C154.047 438.402 152.613 449.609 155.859 458.274C159.911 469.102 198.201 462.793 207.398 448.578L206.798 442.062Z" fill="#FFB1AD"/>
<path d="M215.158 442.777C219.548 437.25 260.429 425.799 262.731 429.882C264.271 434.315 265.49 439.684 265.611 445.421C265.921 459.811 259.324 476.508 255.53 474.924C250.356 472.768 214.664 465.033 212.044 448.317L215.158 442.777Z" fill="#FFB1AD"/>
<path d="M209.289 452.184C208.041 453.098 207.458 453.829 204.695 453.177C201.931 452.531 203.303 440.944 205.557 439.235C207.818 437.52 210.35 441.048 210.35 441.048C210.35 441.048 214.161 439.734 215.982 440.987C219.407 443.34 215.489 453.295 213.212 454.142C210.943 454.984 209.289 452.184 209.289 452.184Z" fill="#FFB1AD"/>
<path opacity="0.33" d="M205.881 453.324C206.741 453.41 208.482 452.958 209.29 452.179C210.075 453.358 211.143 454.178 212.11 454.278C212.706 454.377 213.366 454.129 214.062 453.516C214.876 455.266 217.766 458.058 217.802 458.005C228.765 468.138 251.473 473.234 255.513 474.924C255.513 474.924 230.146 464.068 220.611 451.586C220.963 450.634 221.343 449.844 221.619 448.815C223.182 448.295 226.424 450.491 228.476 450.984C231.261 451.684 234.199 453.001 237.292 453.315C238.86 453.479 243.869 452.625 244.128 451.252C244.387 449.879 237.328 445.901 234.317 445.366C232.594 445.064 225.446 447.075 222.048 447.008C222.625 444.104 222.86 440.685 222.758 438.629C222.758 438.629 219.817 439.651 216.675 441.59C216.675 441.59 217.547 442.92 216.118 447.027C215.616 448.474 214.819 449.902 213.814 451.155C213.266 451.078 212.61 450.992 211.89 450.89C211.434 449.336 210.816 447.279 209.182 448.356C209.023 448.457 207.187 450.552 205.912 450.735C204.31 450.973 203.211 449.233 203.114 448.529C202.99 447.661 203.278 445.617 203.777 443.522C204.129 442.06 204.688 440.206 205.478 439.243C203.319 436.626 201.571 435.732 201.571 435.732C200.774 437.211 200.142 439.214 198.899 442.774C195.459 440.848 188.441 433.751 186.673 433.254C183.682 432.416 172.078 432.54 171.774 433.928C171.468 435.324 180.685 441.511 182.185 442.051C185.151 443.117 188.38 443.196 191.218 443.772C193.334 444.224 197.192 443.6 198.424 444.806C198.314 445.43 198.257 445.989 198.245 446.539C173.436 462.416 155.864 458.244 155.864 458.244C159.52 468.011 190.996 463.833 203.897 452.506C203.887 452.526 205.021 453.239 205.881 453.324Z" fill="#D8726D"/>
<path d="M100.953 22.1294C106.993 24.1615 114.465 22.6378 121.261 17.9176L121.884 17.4875C127.616 13.4912 136.187 7.80162 146.476 12.6843C155.31 16.8741 160.043 25.5815 160.464 36.7512L161.714 36.6796C161.604 35.7133 162.596 13.4975 148.218 6.67463C134.022 -0.0624408 123.764 7.1063 117.63 11.3826L117.025 11.8058C111.932 15.3394 106.394 16.4854 102.594 14.7927C99.0491 13.2194 97.89 9.62877 97.5368 6.89456L90.1631 7.83647C91.0018 14.3769 94.3448 19.2578 99.5784 21.5859C100.028 21.7973 100.486 21.9731 100.953 22.1294Z" fill="#FD95FF"/>
<path d="M117.639 36.728C122.148 38.2462 130.193 37.1273 137.565 30.7225C142.225 26.6744 144.259 20.7702 152.117 22.9264C155.223 23.7763 159.898 26.7714 160.102 35.661C160.149 37.7105 162.007 36.6136 161.938 34.5614C161.587 23.9014 158.395 20.7294 152.965 18.9048C152.916 18.8899 152.868 18.8749 152.822 18.8535C145.227 16.3916 139.932 19.0674 133.029 24.8108C128.331 28.7214 122.422 31.8078 115.858 26.9295C112.84 24.6901 109.089 21.1515 102.284 21.9318L103.137 29.322C106.727 28.9048 108.537 30.4487 111.038 32.5878C113.089 34.3481 115.17 35.892 117.639 36.728Z" fill="#7FD858"/>
<path d="M161.355 37.3229C158.465 27.4778 159.329 20.9498 162.453 16.7024C166.029 11.8324 172.186 11.7404 177.124 11.6548C177.693 11.6445 178.253 11.6376 178.8 11.6246C185.113 11.4387 186.142 8.53553 187.335 5.1842C187.979 3.37215 188.645 1.49842 190.343 0.301983L194.927 6.14947C194.768 6.47204 194.524 7.16047 194.334 7.68339C193.064 11.2684 190.325 20.4846 179.017 19.0669C165.075 17.316 159.863 23.1491 162.646 32.6265C163.222 34.5994 165.733 41.7617 163.759 42.3433C163.663 42.3617 161.902 39.187 161.355 37.3229Z" fill="#FF8158"/>
<path d="M108.162 226.287C140.037 211.174 248.761 193.636 286.905 200.212L160.394 25.0647L108.162 226.287Z" fill="#FF5F62"/>
<mask id="mask1_183_5992" style="mask-type:luminance" maskUnits="userSpaceOnUse" x="108" y="25" width="179" height="202">
<path d="M108.16 226.268C142.381 210.918 229.526 194.952 286.919 200.216L160.373 25.0671L108.16 226.268Z" fill="white"/>
</mask>
<g mask="url(#mask1_183_5992)">
<path d="M164.731 82.7732L174.6 53.4344L174.617 53.5168L196.463 75.4564L186.245 103.198L164.731 82.7732Z" fill="#FFE0E3"/>
<path d="M153.11 33.1093L162.978 3.77048L162.996 3.8529L184.842 25.7925L174.624 53.5339L153.11 33.1093Z" fill="#FFE0E3"/>
<path d="M176.389 132.486L186.258 103.147L186.275 103.229L208.121 125.169L197.904 152.91L176.389 132.486Z" fill="#FFE0E3"/>
<path d="M208.126 125.161L217.994 95.8293L218.02 95.9056L239.865 117.852L229.648 145.587L208.126 125.161Z" fill="#FFE0E3"/>
<path d="M132.95 90.0487L142.825 60.7109L142.843 60.7933L164.688 82.7401L154.471 110.474L132.95 90.0487Z" fill="#FFE0E3"/>
<path d="M144.606 139.761L154.482 110.423L154.499 110.506L176.345 132.445L166.128 160.187L144.606 139.761Z" fill="#FFE0E3"/>
<path d="M112.869 147.079L122.736 117.747L122.762 117.824L144.6 139.769L134.389 167.512L112.869 147.079Z" fill="#FFE0E3"/>
<path d="M188.014 182.158L197.89 152.82L197.907 152.902L219.752 174.849L209.536 202.583L188.014 182.158Z" fill="#FFE0E3"/>
<path d="M219.758 174.841L229.627 145.502L229.644 145.584L251.49 167.524L241.273 195.265L219.758 174.841Z" fill="#FFE0E3"/>
<path d="M156.24 189.434L166.107 160.102L166.133 160.179L187.971 182.124L177.754 209.859L156.24 189.434Z" fill="#FFE0E3"/>
<path d="M124.5 196.759L134.369 167.42L134.387 167.503L156.233 189.442L146.015 217.184L124.5 196.759Z" fill="#FFE0E3"/>
<path d="M199.639 231.786L209.508 202.447L209.532 202.531L231.371 224.469L221.154 252.211L199.639 231.786Z" fill="#FFE0E3"/>
<path d="M231.376 224.461L241.251 195.13L241.269 195.212L263.115 217.152L252.897 244.893L231.376 224.461Z" fill="#FFE0E3"/>
<path d="M251.476 167.557L261.351 138.226L261.369 138.301L283.214 160.248L272.997 187.989L251.476 167.557Z" fill="#FFE0E3"/>
<path d="M263.102 217.185L272.971 187.846L272.995 187.93L294.833 209.875L284.617 237.61L263.102 217.185Z" fill="#FFE0E3"/>
<path d="M167.866 239.062L177.734 209.723L177.752 209.806L199.597 231.753L189.38 259.487L167.866 239.062Z" fill="#FFE0E3"/>
<path d="M136.12 246.386L145.995 217.049L146.013 217.131L167.859 239.071L157.641 266.812L136.12 246.386Z" fill="#FFE0E3"/>
<path d="M92.7699 204.049L102.639 174.71L102.663 174.793L124.501 196.739L114.292 224.474L92.7699 204.049Z" fill="#FFE0E3"/>
<path d="M104.395 253.677L114.264 224.338L114.281 224.42L136.126 246.367L125.909 274.101L104.395 253.677Z" fill="#FFE0E3"/>
</g>
<path opacity="0.4" d="M108.162 226.287C133.349 212.539 238.654 193.645 286.905 200.212C246.579 180.47 143.868 193.233 143.868 193.233C143.859 149.302 160.394 25.0647 160.394 25.0647L108.162 226.287Z" fill="#BA2E38"/>
<path d="M228.554 442.577C201.144 386.01 121.857 375.804 110.033 376.754C96.8566 377.805 106.875 407.503 127.92 422.272C127.92 422.272 126 484.857 131.049 506.278C119.865 529.203 123.806 542.62 147.792 528.166C163.069 530.851 229.841 500.678 233.459 457.686L228.554 442.577Z" fill="#FDCC1D"/>
<path d="M226.792 442.721C193.442 405.466 106.768 399.751 97.5689 402.335C88.0464 405.012 105.732 512.274 125.353 506.652C138.737 502.816 223.174 498.756 233.459 457.671L226.792 442.721Z" fill="#A9EF75"/>
<path opacity="0.33" d="M226.791 442.721C223.174 438.683 219.06 435.056 214.572 431.788C212.961 430.615 214.083 445.709 213.169 449.962C211.946 455.677 183.479 443.189 177.675 443.513C169.922 443.945 151.251 451.899 151.661 455.447C152.064 458.988 164.578 462.623 168.57 462.688C176.445 462.818 184.148 460.378 191.326 459.449C194.951 458.981 204.769 455.318 206.754 455.526C218.743 456.779 222.936 475.767 223.907 474.744C228.424 469.994 231.775 464.387 233.451 457.671L226.791 442.721Z" fill="#63A46C"/>
<path d="M245.448 437.899C258.408 378.949 331.431 353.289 342.91 351.756C355.705 350.043 353.598 379.769 337.156 397.951C337.156 397.951 354.763 457.117 355.331 478.833C372.118 498.778 371.751 512.727 344.622 503.615C330.403 509.438 257.977 494.006 244.275 453.324L245.448 437.899Z" fill="#FDCC1D"/>
<path d="M247.175 437.669C270.349 395.583 351.758 372.485 361.187 373.018C370.961 373.572 381.483 479.358 360.957 478.005C346.975 477.084 263.984 490.752 244.27 453.309L247.175 437.669Z" fill="#A9EF75"/>
<path opacity="0.33" d="M247.176 437.669C249.7 433.076 252.8 428.787 256.346 424.763C257.619 423.316 260.115 437.892 261.999 441.757C264.538 446.961 288.956 429.182 294.609 428.29C302.175 427.102 322.098 430.816 322.587 434.271C323.076 437.733 311.906 443.794 308.073 444.686C300.499 446.443 292.48 445.709 285.331 446.299C281.72 446.601 271.378 445.133 269.515 445.745C258.259 449.423 258.719 468.497 257.54 467.719C252.045 464.092 247.485 459.399 244.277 453.317L247.176 437.669Z" fill="#63A46C"/>
<path d="M240.874 464.667C238.659 467.849 237.875 470.037 230.805 470.742C223.735 471.448 217.621 442.923 221.591 437.035C225.554 431.147 234.393 437.438 234.393 437.438C234.393 437.438 242.355 431.241 247.67 432.731C257.668 435.531 256.438 462.263 251.748 466.107C247.052 469.965 240.874 464.667 240.874 464.667Z" fill="#A9EF75"/>
<path d="M393.667 514.332C394.034 517.614 394.401 520.954 394.746 524.337C396.516 541.597 397.875 559.858 398.479 575.664C398.493 575.924 398.501 576.183 398.501 576.435C399.083 591.68 398.961 604.556 397.817 611.963C397.724 612.56 397.63 613.122 397.53 613.64C396.954 616.548 396.163 618.304 395.149 618.635C389.05 620.643 295.4 637.457 218.924 648.664C202.878 651.033 187.581 653.134 174.016 654.811C142.823 658.655 120.75 660.202 119.542 657.158C118.226 653.868 114.234 638.264 109.818 618.067C107.365 606.831 104.776 594.17 102.446 581.423C95.3686 542.706 90.6937 503.154 99.3244 500.08C117.319 493.674 373.86 454.173 382.879 460.392C384.555 461.543 386.396 467.618 388.201 476.774C388.805 479.847 389.41 483.252 389.999 486.952C391.301 495.006 392.553 504.378 393.667 514.332Z" fill="#408FBB"/>
<path d="M324.844 538.43C300.304 552.387 318.817 584.95 343.983 570.496C369.141 556.05 347.169 525.733 324.844 538.43Z" fill="#FFE7FF"/>
<path d="M398.508 576.434C399.091 591.679 398.969 604.556 397.825 611.963C397.732 612.56 397.638 613.122 397.537 613.64C375.328 620.902 361.137 592.039 383.865 579.112C388.943 576.219 394.013 575.564 398.508 576.434Z" fill="#FFE7FF"/>
<path d="M166.241 615.835C141.701 629.792 160.214 662.355 185.379 647.901C210.538 633.448 188.565 603.131 166.241 615.835Z" fill="#FFE7FF"/>
<path d="M119.224 614.669C115.945 616.555 112.78 617.635 109.81 618.067C107.357 606.831 104.768 594.17 102.438 581.423C123.914 572.022 143.512 600.734 119.224 614.669Z" fill="#FFE7FF"/>
<path d="M393.668 514.332C394.035 517.614 394.402 520.954 394.747 524.337C372.357 531.988 357.93 502.902 380.758 489.917C383.894 488.139 387.015 487.204 390 486.952C391.302 495.006 392.553 504.377 393.668 514.332Z" fill="#FFE7FF"/>
<path d="M277.139 593.22C252.599 607.176 271.112 639.739 296.278 625.286C321.443 610.833 299.471 580.516 277.139 593.22Z" fill="#FFE7FF"/>
<path d="M256.094 504.644C231.554 518.6 250.067 551.163 275.233 536.71C300.391 522.264 278.419 491.947 256.094 504.644Z" fill="#FFE7FF"/>
<path d="M214.545 560.556C190.005 574.513 208.518 607.076 233.684 592.622C258.85 578.177 236.87 547.859 214.545 560.556Z" fill="#FFE7FF"/>
<path d="M154.159 528.31C129.619 542.267 148.131 574.83 173.297 560.376C198.463 545.923 176.483 515.613 154.159 528.31Z" fill="#FFE7FF"/>
<path opacity="0.33" d="M391.803 499.209C390.185 488.96 387.754 466.495 382.878 460.399C373.859 454.187 117.311 493.681 99.3159 500.088C96.5757 501.066 95.1804 505.731 94.7704 512.871C92.9148 550.486 115.901 647.585 119.533 657.165C123.798 667.839 384.827 622.032 395.148 618.642C402.29 616.771 397.924 543.843 391.803 499.209ZM380.001 614.065C375.549 615.554 321.082 629.662 263.321 638.954C196.67 649.679 125.712 655.344 123.561 649.852C121.094 643.547 108.457 590.074 102.696 548.579C147.511 543.742 332.144 515.383 377.318 506.645C382.806 550.71 386.258 611.97 380.001 614.065Z" fill="#004F7C"/>
<path d="M80.7894 486.167C72.4105 487.081 81.3432 532.139 84.8531 535.119C88.3629 538.099 386.676 493.408 398.148 489.773C404.124 487.88 399.608 442.34 390.236 441.382C380.879 440.425 101.705 481.935 80.7894 486.167Z" fill="#408FBB"/>
<mask id="mask2_183_5992" style="mask-type:luminance" maskUnits="userSpaceOnUse" x="77" y="441" width="324" height="95">
<path d="M80.7894 486.167C72.4105 487.081 81.3432 532.139 84.8531 535.119C88.3629 538.099 386.676 493.408 398.148 489.773C404.124 487.88 399.608 442.339 390.236 441.382C380.879 440.425 101.705 481.934 80.7894 486.167Z" fill="white"/>
</mask>
<g mask="url(#mask2_183_5992)">
<path d="M343.305 435.393C318.765 449.35 337.278 481.913 362.444 467.46C387.602 453.006 365.63 422.689 343.305 435.393Z" fill="#FFF4FF"/>
<path d="M303.03 482.337C278.49 496.294 297.003 528.857 322.168 514.404C347.327 499.958 325.354 469.641 303.03 482.337Z" fill="#FFF4FF"/>
<path d="M398.248 460.701C373.708 474.657 392.221 507.22 417.387 492.767C442.553 478.314 420.573 447.997 398.248 460.701Z" fill="#FFF4FF"/>
<path d="M262.795 445.053C238.255 459.009 256.768 491.572 281.934 477.119C307.092 462.673 285.12 432.356 262.795 445.053Z" fill="#FFF4FF"/>
<path d="M207.87 477.234C183.33 491.191 201.842 523.754 227.008 509.3C252.167 494.854 230.194 464.537 207.87 477.234Z" fill="#FFF4FF"/>
<path d="M161.481 509.934C136.941 523.89 155.454 556.453 180.619 542C205.785 527.554 183.806 497.237 161.481 509.934Z" fill="#FFF4FF"/>
<path d="M134.862 465.293C110.322 479.25 128.835 511.812 154 497.359C179.159 482.906 157.186 452.589 134.862 465.293Z" fill="#FFF4FF"/>
<path d="M85.5004 501.995C60.9604 515.951 79.4733 548.514 104.639 534.061C129.798 519.615 107.825 489.298 85.5004 501.995Z" fill="#FFF4FF"/>
</g>
<path d="M216.041 465.085C221.896 508.135 237.575 611.891 243.933 645.123C244.22 646.023 283.562 639.941 283.289 639.041C279.844 605.499 264.308 502.549 257.382 459.024C257.325 458.211 216.286 464.228 216.041 465.085Z" fill="#A9EF75"/>
<path opacity="0.33" d="M267.15 524.524C266.848 522.501 265.733 513.144 265.431 511.15C265.352 510.625 227.29 516.506 223.521 517.175C223.824 519.205 225.377 528.915 225.686 530.98L267.15 524.524Z" fill="#63A46C"/>
<path d="M416.275 455.008C487.622 422.574 533.473 552.185 457.631 573.807C374.884 597.402 371.28 475.464 416.275 455.008Z" fill="#AE7D55"/>
<path d="M411.314 474.571C465.076 450.128 504.561 545.642 447.404 561.945C385.047 579.717 377.409 489.982 411.314 474.571Z" fill="#FFAD94"/>
<path d="M63.357 501.758C-13.9886 489.162 -24.3094 626.272 54.5536 627.251C140.58 628.324 112.135 509.704 63.357 501.758Z" fill="#AE7D55"/>
<path d="M73.2686 519.335C14.9754 509.841 1.88551 612.373 61.3151 613.115C126.146 613.921 110.028 525.323 73.2686 519.335Z" fill="#FFAD94"/>
</svg>
