<svg width="520" height="482" viewBox="0 0 520 482" fill="none" xmlns="http://www.w3.org/2000/svg">
<path opacity="0.4" d="M260 482C403.594 482 520 467.621 520 449.884C520 432.146 403.594 417.767 260 417.767C116.406 417.767 0 432.146 0 449.884C0 467.621 116.406 482 260 482Z" fill="#13273B"/>
<path d="M22.4315 161.454C29.2929 148.584 98.7485 110.824 152.777 111.681C152.777 111.681 161.35 167.464 160.494 186.344C159.638 205.223 62.7369 263.583 49.8771 261.006C37.0102 258.429 13.8583 206.08 22.4315 161.454Z" fill="#955E3D"/>
<path d="M464.972 107.477C455.082 96.7598 378.348 77.7793 326.291 92.2684C326.291 92.2684 332.073 148.411 337.669 166.456C343.264 184.508 451.752 216.473 463.548 210.73C475.343 204.993 484.534 148.483 464.972 107.477Z" fill="#955E3D"/>
<path d="M236.228 63.9377C157.919 61.728 108.393 124.658 84.6011 198.803C67.8216 251.109 107.897 335.604 237.149 343.025C347.665 349.366 390.912 283.017 393.149 230.876C396.551 151.686 340.027 66.8672 236.228 63.9377Z" fill="#AE7D55"/>
<path d="M179.913 98.7175C174.915 122.758 183.589 136.096 187.228 137.37C203.216 142.97 232.611 111.954 234.366 113.178C244.241 120.059 254.231 127.336 265.285 131.791C274.305 135.419 289.25 138.615 292.681 130.222C296.255 121.47 298.111 105.649 300.973 102.54C304.325 98.8975 318.407 100.359 322.457 90.4401C298.809 74.7705 269.924 64.9455 236.2 63.945C206.64 63.0669 181.05 71.6611 159.279 86.8556C165.809 91.4982 173.002 94.8163 179.913 98.7175Z" fill="#955E3D"/>
<path d="M393.156 230.876C390.919 283.017 347.679 349.359 237.163 343.025C203.216 341.074 175.432 333.812 153.201 323.217C123.022 308.828 94.4617 282.887 81.1704 242.551C101.373 251.613 393.156 230.876 393.156 230.876Z" fill="#955E3D"/>
<path d="M237.795 126.076C193.001 125.709 155.911 180.621 148.733 233.417C142.972 275.805 156.623 336.986 233.659 342.766C302.381 347.92 319.542 293.166 324.85 252.995C332.38 196.025 297.174 126.559 237.795 126.076Z" fill="#FDF2EE"/>
<mask id="mask0_1027_1595" style="mask-type:luminance" maskUnits="userSpaceOnUse" x="147" y="126" width="179" height="218">
<path d="M237.793 126.076C192.999 125.709 155.909 180.621 148.731 233.417C142.97 275.805 156.621 336.986 233.657 342.766C302.379 347.92 319.54 293.166 324.848 252.995C332.378 196.025 297.172 126.559 237.793 126.076Z" fill="white"/>
</mask>
<g mask="url(#mask0_1027_1595)">
<path d="M309.141 190.101C297.619 184.825 284.076 200.106 299.834 207.93C314.269 215.099 319.253 194.729 309.141 190.101Z" fill="#FF7679"/>
<path d="M210.227 192.346C198.705 187.07 185.162 202.351 200.92 210.175C215.355 217.344 220.339 196.974 210.227 192.346Z" fill="#FF7679"/>
<path d="M181.183 262.316C169.661 257.04 156.118 272.321 171.876 280.145C186.311 287.314 191.295 266.944 181.183 262.316Z" fill="#FF7679"/>
<path d="M264.104 328.572C252.582 323.296 239.039 338.577 254.797 346.401C269.232 353.57 274.216 333.2 264.104 328.572Z" fill="#FF7679"/>
<path d="M208.938 304.279C197.416 299.003 183.873 314.284 199.631 322.108C214.059 329.277 219.05 308.907 208.938 304.279Z" fill="#FF7679"/>
<path d="M223.928 243.688C212.406 238.412 198.863 253.693 214.621 261.517C229.056 268.686 234.04 248.316 223.928 243.688Z" fill="#FF7679"/>
<path d="M246.742 283.031C235.22 277.755 221.677 293.036 237.435 300.86C251.863 308.029 256.854 287.659 246.742 283.031Z" fill="#FF7679"/>
<path d="M311.227 299.01C299.705 293.734 286.162 309.015 301.92 316.839C316.355 324.008 321.339 303.638 311.227 299.01Z" fill="#FF7679"/>
<path d="M283.639 261.467C272.117 256.191 258.574 271.472 274.332 279.296C288.767 286.472 293.752 266.095 283.639 261.467Z" fill="#FF7679"/>
<path d="M166.433 214.112C154.911 208.836 141.368 224.117 157.126 231.941C171.561 239.118 176.545 218.741 166.433 214.112Z" fill="#FF7679"/>
<path d="M202.077 141.731C190.555 136.455 177.012 151.736 192.77 159.56C207.205 166.729 212.19 146.359 202.077 141.731Z" fill="#FF7679"/>
<path d="M247.05 121.981C235.528 116.705 221.985 131.986 237.743 139.81C252.178 146.979 257.162 126.609 247.05 121.981Z" fill="#FF7679"/>
<path d="M321.167 234.806C309.645 229.53 296.102 244.811 311.86 252.635C326.295 259.804 331.279 239.434 321.167 234.806Z" fill="#FF7679"/>
<path d="M266.017 213.364C254.495 208.088 240.952 223.369 256.71 231.193C271.145 238.362 276.129 217.992 266.017 213.364Z" fill="#FF7679"/>
<path d="M256.351 164.858C244.829 159.582 231.286 174.863 247.044 182.687C261.479 189.856 266.463 169.486 256.351 164.858Z" fill="#FF7679"/>
<path d="M292.009 140.637C280.487 135.361 266.944 150.642 282.702 158.466C297.137 165.635 302.121 145.266 292.009 140.637Z" fill="#FF7679"/>
</g>
<path d="M322.996 257.566C321.708 288.459 306.72 311.707 297.571 321.374C283.92 335.806 263.724 345.012 233.675 342.752C185.516 339.145 162.127 313.881 152.77 285.09L322.996 257.566Z" fill="#DFCECA"/>
<path d="M117.715 425.612C117.715 425.612 104.992 434.056 106.812 443.679C110.566 457.456 183.373 458.226 212.171 450.308C220.075 436.409 193.745 362.725 173.412 327.068C149.929 292.396 125.576 277.561 105.215 282.643C101.497 282.744 103.777 379.511 117.715 425.612Z" fill="#AE7D55"/>
<path d="M112.399 330.364C143.714 348.848 178.093 368.966 203.258 396.454C195.131 371.939 183.53 344.803 173.418 327.06C149.935 292.389 125.582 277.554 105.221 282.636C103.602 282.679 103.121 301.033 104.235 325.542C106.954 327.154 109.673 328.759 112.399 330.364Z" fill="#955E3D"/>
<path d="M362.447 425.612C362.447 425.612 375.17 434.056 373.35 443.679C369.596 457.456 296.788 458.226 267.991 450.308C260.086 436.409 286.417 362.725 306.75 327.068C330.232 292.396 354.585 277.561 374.947 282.643C378.672 282.744 376.392 379.511 362.447 425.612Z" fill="#AE7D55"/>
<path d="M376.512 297.305C376.383 288.236 375.843 282.664 374.951 282.643C354.59 277.561 330.237 292.389 306.754 327.068C301.461 336.353 295.757 348.215 290.363 360.926C315.471 334.582 343.061 310.916 376.512 297.305Z" fill="#955E3D"/>
<path d="M228.555 91.5776C201.145 35.0101 121.858 24.8037 110.034 25.7538C96.8576 26.8046 106.876 56.5027 127.921 71.2726C127.921 71.2726 126.001 133.857 131.05 155.278C119.866 178.203 123.807 191.62 147.793 177.167C163.07 179.851 229.842 149.678 233.46 106.686L228.555 91.5776Z" fill="#FDCC1D"/>
<path d="M226.793 91.7215C193.443 54.4657 106.769 48.7507 97.5699 51.3347C88.0473 54.0123 105.733 161.274 125.354 155.652C138.738 151.816 223.175 147.756 233.46 106.671L226.793 91.7215Z" fill="#A9EF75"/>
<path opacity="0.33" d="M226.793 91.7216C223.175 87.6837 219.062 84.056 214.574 80.7882C212.962 79.6149 214.084 94.7087 213.171 98.9626C211.948 104.678 183.481 92.1895 177.677 92.5134C169.924 92.9452 151.253 100.899 151.663 104.447C152.066 107.989 164.58 111.624 168.572 111.688C176.447 111.818 184.15 109.378 191.328 108.449C194.953 107.981 204.771 104.318 206.756 104.526C218.745 105.779 222.938 124.767 223.909 123.745C228.426 118.994 231.777 113.387 233.453 106.671L226.793 91.7216Z" fill="#63A46C"/>
<path d="M245.45 86.8989C258.41 27.949 331.433 2.28884 342.912 0.755714C355.707 -0.95736 353.6 28.7695 337.158 46.9511C337.158 46.9511 354.765 106.117 355.333 127.833C372.12 147.778 371.753 161.727 344.624 152.615C330.405 158.438 257.979 143.006 244.277 102.324L245.45 86.8989Z" fill="#FDCC1D"/>
<path d="M247.176 86.6686C270.35 44.5831 351.759 21.4854 361.188 22.018C370.962 22.5723 381.484 128.358 360.958 127.005C346.976 126.084 263.984 139.752 244.271 102.309L247.176 86.6686Z" fill="#A9EF75"/>
<path opacity="0.33" d="M247.176 86.6686C249.7 82.0764 252.8 77.7865 256.346 73.7629C257.619 72.3162 260.115 86.8917 261.999 90.7569C264.538 95.9609 288.956 78.1824 294.609 77.2899C302.175 76.1022 322.098 79.8163 322.587 83.2712C323.076 86.7334 311.906 92.7939 308.073 93.6864C300.499 95.4427 292.48 94.7085 285.331 95.2987C281.72 95.601 271.378 94.1327 269.515 94.7445C258.259 98.4226 258.719 117.497 257.54 116.719C252.045 113.092 247.485 108.399 244.277 102.317L247.176 86.6686Z" fill="#63A46C"/>
<path d="M240.875 113.668C238.66 116.849 237.876 119.037 230.806 119.743C223.736 120.448 217.623 91.9231 221.593 86.0353C225.556 80.1475 234.395 86.4383 234.395 86.4383C234.395 86.4383 242.357 80.2411 247.672 81.731C257.669 84.5309 256.439 111.264 251.75 115.107C247.053 118.965 240.875 113.668 240.875 113.668Z" fill="#A9EF75"/>
<path d="M393.668 163.332C394.035 166.614 394.402 169.954 394.747 173.337C396.516 190.597 397.875 208.858 398.48 224.664C398.494 224.924 398.501 225.183 398.501 225.435C399.084 240.68 398.961 253.556 397.818 260.963C397.724 261.56 397.631 262.122 397.53 262.64C396.955 265.548 396.164 267.304 395.15 267.635C389.05 269.643 295.4 286.457 218.925 297.664C202.879 300.033 187.581 302.134 174.016 303.811C142.824 307.655 120.751 309.202 119.542 306.158C118.226 302.868 114.234 287.264 109.818 267.067C107.366 255.831 104.777 243.17 102.446 230.423C95.3691 191.706 90.6942 152.154 99.3249 149.08C117.32 142.674 373.86 103.173 382.88 109.392C384.555 110.543 386.397 116.618 388.202 125.774C388.806 128.847 389.41 132.252 390 135.952C391.302 144.006 392.553 153.378 393.668 163.332Z" fill="#408FBB"/>
<path d="M324.846 187.43C300.306 201.387 318.818 233.949 343.984 219.496C369.143 205.05 347.17 174.733 324.846 187.43Z" fill="#FFE7FF"/>
<path d="M398.508 225.434C399.091 240.679 398.969 253.556 397.825 260.963C397.732 261.56 397.638 262.122 397.537 262.64C375.328 269.902 361.137 241.039 383.865 228.112C388.943 225.218 394.013 224.563 398.508 225.434Z" fill="#FFE7FF"/>
<path d="M166.241 264.835C141.701 278.792 160.214 311.355 185.38 296.901C210.538 282.448 188.566 252.131 166.241 264.835Z" fill="#FFE7FF"/>
<path d="M119.226 263.669C115.946 265.555 112.781 266.635 109.811 267.067C107.358 255.831 104.769 243.17 102.439 230.423C123.915 221.022 143.514 249.734 119.226 263.669Z" fill="#FFE7FF"/>
<path d="M393.668 163.332C394.035 166.614 394.402 169.954 394.747 173.337C372.357 180.988 357.93 151.902 380.758 138.917C383.894 137.139 387.015 136.204 390 135.952C391.302 144.006 392.553 153.377 393.668 163.332Z" fill="#FFE7FF"/>
<path d="M277.14 242.22C252.6 256.177 271.113 288.739 296.279 274.286C321.444 259.833 299.472 229.516 277.14 242.22Z" fill="#FFE7FF"/>
<path d="M256.095 153.644C231.555 167.6 250.068 200.163 275.234 185.71C300.392 171.264 278.42 140.947 256.095 153.644Z" fill="#FFE7FF"/>
<path d="M214.545 209.556C190.005 223.513 208.518 256.076 233.683 241.623C258.849 227.177 236.87 196.859 214.545 209.556Z" fill="#FFE7FF"/>
<path d="M154.16 177.31C129.62 191.267 148.132 223.83 173.298 209.376C198.464 194.923 176.484 164.613 154.16 177.31Z" fill="#FFE7FF"/>
<path opacity="0.33" d="M391.804 148.209C390.186 137.96 387.755 115.495 382.879 109.399C373.86 103.187 117.312 142.681 99.3169 149.088C96.5767 150.066 95.1814 154.731 94.7714 161.871C92.9158 199.486 115.902 296.585 119.534 306.165C123.799 316.839 384.828 271.032 395.149 267.642C402.291 265.771 397.925 192.843 391.804 148.209ZM380.002 263.065C375.55 264.554 321.083 278.662 263.322 287.954C196.671 298.679 125.712 304.344 123.562 298.852C121.095 292.547 108.458 239.074 102.697 197.579C147.512 192.742 332.145 164.383 377.319 155.645C382.807 199.71 386.259 260.97 380.002 263.065Z" fill="#004F7C"/>
<path d="M80.7899 135.167C72.411 136.081 81.3437 181.139 84.8536 184.119C88.3634 187.099 386.677 142.408 398.148 138.773C404.125 136.88 399.608 91.3396 390.237 90.3823C380.88 89.425 101.705 130.935 80.7899 135.167Z" fill="#408FBB"/>
<mask id="mask1_1027_1595" style="mask-type:luminance" maskUnits="userSpaceOnUse" x="77" y="90" width="324" height="95">
<path d="M80.7899 135.167C72.411 136.081 81.3437 181.139 84.8536 184.119C88.3634 187.099 386.677 142.408 398.148 138.773C404.125 136.88 399.608 91.3392 390.237 90.3819C380.88 89.4246 101.705 130.934 80.7899 135.167Z" fill="white"/>
</mask>
<g mask="url(#mask1_1027_1595)">
<path d="M343.307 84.3933C318.767 98.3498 337.279 130.913 362.445 116.459C387.604 102.006 365.631 71.6892 343.307 84.3933Z" fill="#FFF4FF"/>
<path d="M303.03 131.337C278.49 145.294 297.003 177.857 322.169 163.404C347.327 148.958 325.355 118.64 303.03 131.337Z" fill="#FFF4FF"/>
<path d="M398.249 109.701C373.709 123.657 392.222 156.22 417.388 141.767C442.553 127.314 420.574 96.9966 398.249 109.701Z" fill="#FFF4FF"/>
<path d="M262.797 94.0528C238.257 108.009 256.77 140.572 281.935 126.119C307.094 111.673 285.122 81.3559 262.797 94.0528Z" fill="#FFF4FF"/>
<path d="M207.87 126.234C183.33 140.191 201.843 172.753 227.009 158.3C252.167 143.854 230.195 113.537 207.87 126.234Z" fill="#FFF4FF"/>
<path d="M161.481 158.934C136.941 172.89 155.454 205.453 180.62 191C205.786 176.554 183.806 146.237 161.481 158.934Z" fill="#FFF4FF"/>
<path d="M134.862 114.293C110.322 128.25 128.835 160.812 154 146.359C179.159 131.906 157.186 101.589 134.862 114.293Z" fill="#FFF4FF"/>
<path d="M85.5014 150.995C60.9614 164.951 79.4743 197.514 104.64 183.061C129.798 168.615 107.826 138.298 85.5014 150.995Z" fill="#FFF4FF"/>
</g>
<path d="M216.041 114.085C221.895 157.135 237.574 260.891 243.932 294.123C244.22 295.023 283.561 288.941 283.288 288.041C279.843 254.499 264.308 151.549 257.382 108.024C257.324 107.211 216.285 113.228 216.041 114.085Z" fill="#A9EF75"/>
<path opacity="0.33" d="M267.15 173.524C266.848 171.501 265.733 162.144 265.431 160.15C265.352 159.625 227.29 165.506 223.521 166.175C223.824 168.205 225.377 177.915 225.686 179.98L267.15 173.524Z" fill="#63A46C"/>
<path d="M416.275 104.008C487.622 71.5745 533.473 201.185 457.631 222.807C374.884 246.402 371.28 124.464 416.275 104.008Z" fill="#AE7D55"/>
<path d="M411.313 123.571C465.075 99.1276 504.56 194.642 447.403 210.945C385.046 228.717 377.408 138.982 411.313 123.571Z" fill="#FFAD94"/>
<path d="M63.356 150.758C-13.9895 138.162 -24.3104 275.272 54.5527 276.251C140.579 277.324 112.134 158.704 63.356 150.758Z" fill="#AE7D55"/>
<path d="M73.2672 168.335C14.9739 158.841 1.88404 261.373 61.3136 262.115C126.145 262.921 110.027 174.323 73.2672 168.335Z" fill="#FFAD94"/>
</svg>
