<svg width="520" height="832" viewBox="0 0 520 832" fill="none" xmlns="http://www.w3.org/2000/svg">
<path opacity="0.4" d="M260 832C403.594 832 520 817.621 520 799.883C520 782.146 403.594 767.767 260 767.767C116.406 767.767 0 782.146 0 799.883C0 817.621 116.406 832 260 832Z" fill="#13273B"/>
<path d="M22.4325 511.454C29.2939 498.584 98.7495 460.824 152.778 461.681C152.778 461.681 161.351 517.464 160.495 536.344C159.639 555.223 62.7379 613.583 49.8781 611.006C37.0112 608.429 13.8593 556.08 22.4325 511.454Z" fill="#955E3D"/>
<path d="M464.972 457.477C455.083 446.76 378.349 427.779 326.291 442.268C326.291 442.268 332.074 498.411 337.669 516.456C343.265 534.508 451.753 566.473 463.548 560.73C475.343 554.993 484.535 498.483 464.972 457.477Z" fill="#955E3D"/>
<path d="M236.228 413.938C157.919 411.728 108.393 474.658 84.6007 548.803C67.8211 601.109 107.896 685.604 237.148 693.025C347.665 699.366 390.912 633.017 393.148 580.876C396.55 501.686 340.026 416.867 236.228 413.938Z" fill="#AE7D55"/>
<path d="M179.912 448.717C174.913 472.758 183.587 486.096 187.226 487.37C203.215 492.97 232.61 461.954 234.364 463.178C244.239 470.059 254.229 477.336 265.284 481.791C274.303 485.419 289.249 488.615 292.679 480.222C296.254 471.47 298.109 455.649 300.972 452.54C304.324 448.897 318.406 450.359 322.455 440.44C298.807 424.77 269.923 414.945 236.199 413.945C206.638 413.067 181.048 421.661 159.277 436.856C165.808 441.498 173 444.816 179.912 448.717Z" fill="#955E3D"/>
<path d="M393.156 580.876C390.919 633.017 347.679 699.359 237.163 693.025C203.215 691.074 175.432 683.812 153.2 673.217C123.022 658.828 94.4612 632.887 81.1699 592.551C101.373 601.613 393.156 580.876 393.156 580.876Z" fill="#955E3D"/>
<path d="M237.794 476.076C193.001 475.709 155.91 530.621 148.732 583.417C142.971 625.805 156.622 686.986 233.659 692.766C302.381 697.92 319.541 643.166 324.849 602.995C332.379 546.025 297.173 476.559 237.794 476.076Z" fill="#FDF2EE"/>
<mask id="mask0_183_5993" style="mask-type:luminance" maskUnits="userSpaceOnUse" x="147" y="476" width="179" height="218">
<path d="M237.792 476.076C192.999 475.709 155.908 530.621 148.73 583.417C142.969 625.805 156.62 686.986 233.657 692.766C302.379 697.92 319.539 643.166 324.847 602.995C332.378 546.025 297.171 476.559 237.792 476.076Z" fill="white"/>
</mask>
<g mask="url(#mask0_183_5993)">
<path d="M309.141 540.101C297.619 534.825 284.076 550.106 299.834 557.93C314.269 565.099 319.253 544.729 309.141 540.101Z" fill="#FF7679"/>
<path d="M210.227 542.346C198.705 537.07 185.162 552.351 200.92 560.175C215.355 567.344 220.339 546.975 210.227 542.346Z" fill="#FF7679"/>
<path d="M181.182 612.316C169.66 607.04 156.117 622.321 171.875 630.145C186.31 637.314 191.294 616.944 181.182 612.316Z" fill="#FF7679"/>
<path d="M264.104 678.572C252.582 673.296 239.039 688.577 254.797 696.401C269.232 703.57 274.216 683.2 264.104 678.572Z" fill="#FF7679"/>
<path d="M208.938 654.279C197.416 649.003 183.873 664.284 199.631 672.108C214.059 679.277 219.05 658.907 208.938 654.279Z" fill="#FF7679"/>
<path d="M223.926 593.688C212.404 588.412 198.861 603.693 214.62 611.517C229.054 618.686 234.039 598.316 223.926 593.688Z" fill="#FF7679"/>
<path d="M246.741 633.031C235.219 627.755 221.676 643.036 237.434 650.86C251.862 658.029 256.853 637.66 246.741 633.031Z" fill="#FF7679"/>
<path d="M311.227 649.01C299.705 643.734 286.162 659.015 301.92 666.839C316.355 674.008 321.339 653.639 311.227 649.01Z" fill="#FF7679"/>
<path d="M283.639 611.467C272.117 606.191 258.574 621.472 274.332 629.296C288.767 636.472 293.752 616.095 283.639 611.467Z" fill="#FF7679"/>
<path d="M166.432 564.113C154.91 558.837 141.367 574.118 157.125 581.942C171.56 589.118 176.544 568.741 166.432 564.113Z" fill="#FF7679"/>
<path d="M202.077 491.731C190.555 486.455 177.012 501.736 192.77 509.56C207.205 516.729 212.189 496.36 202.077 491.731Z" fill="#FF7679"/>
<path d="M247.049 471.981C235.527 466.705 221.984 481.986 237.743 489.81C252.177 496.979 257.162 476.609 247.049 471.981Z" fill="#FF7679"/>
<path d="M321.167 584.806C309.645 579.53 296.102 594.811 311.86 602.635C326.295 609.804 331.279 589.434 321.167 584.806Z" fill="#FF7679"/>
<path d="M266.016 563.364C254.494 558.088 240.951 573.369 256.709 581.193C271.144 588.362 276.128 567.992 266.016 563.364Z" fill="#FF7679"/>
<path d="M256.35 514.858C244.828 509.582 231.285 524.863 247.043 532.687C261.478 539.856 266.462 519.486 256.35 514.858Z" fill="#FF7679"/>
<path d="M292.008 490.637C280.486 485.361 266.943 500.642 282.702 508.466C297.136 515.635 302.121 495.266 292.008 490.637Z" fill="#FF7679"/>
</g>
<path d="M322.996 607.566C321.708 638.458 306.72 661.707 297.571 671.374C283.92 685.806 263.724 695.012 233.675 692.751C185.516 689.145 162.127 663.881 152.77 635.09L322.996 607.566Z" fill="#DFCECA"/>
<path d="M117.714 775.612C117.714 775.612 104.991 784.056 106.811 793.679C110.565 807.456 183.372 808.226 212.17 800.308C220.074 786.409 193.744 712.725 173.411 677.068C149.928 642.396 125.575 627.561 105.214 632.643C101.496 632.744 103.776 729.511 117.714 775.612Z" fill="#AE7D55"/>
<path d="M112.399 680.364C143.714 698.848 178.093 718.966 203.259 746.454C195.132 721.938 183.53 694.803 173.418 677.06C149.935 642.388 125.582 627.554 105.221 632.635C103.603 632.679 103.121 651.033 104.236 675.541C106.955 677.154 109.673 678.759 112.399 680.364Z" fill="#955E3D"/>
<path d="M362.447 775.612C362.447 775.612 375.17 784.055 373.35 793.679C369.596 807.455 296.788 808.226 267.991 800.308C260.086 786.409 286.417 712.725 306.75 677.067C330.232 642.396 354.585 627.561 374.947 632.643C378.672 632.743 376.392 729.51 362.447 775.612Z" fill="#AE7D55"/>
<path d="M376.512 647.305C376.383 638.235 375.843 632.664 374.951 632.643C354.59 627.561 330.237 642.389 306.754 677.068C301.461 686.353 295.757 698.215 290.363 710.926C315.471 684.582 343.061 660.916 376.512 647.305Z" fill="#955E3D"/>
<path d="M100.209 158.663C43.2838 175.089 45.6209 274.21 127.259 258.155C208.904 242.099 170.057 138.509 100.209 158.663Z" fill="#AE7D55"/>
<path d="M88.0962 255.727C98.1817 259.995 111.172 261.316 127.259 258.151C164.455 250.837 176.634 225.356 172.269 201.684C140.064 211.165 105.716 227.502 88.0962 255.727Z" fill="#8D5D39"/>
<path d="M106.996 181.422C73.5411 191.071 74.9166 249.32 122.888 239.884C170.866 230.448 148.043 169.574 106.996 181.422Z" fill="#FFAD94"/>
<path d="M101.847 239.22C107.466 241.112 114.458 241.547 122.889 239.886C143.386 235.852 150.961 222.434 149.704 209.309C149.712 209.308 124.259 219.887 101.847 239.22Z" fill="#E78C75"/>
<path d="M318.515 135.39C261.59 151.816 267.447 249.412 349.085 233.357C430.73 217.301 388.363 115.235 318.515 135.39Z" fill="#AE7D55"/>
<path d="M281.022 184.008C279.595 213.348 301.417 242.732 349.096 233.356C359.806 231.248 368.367 227.655 375.027 223.056C365.393 210.562 321.392 176.592 281.022 184.008Z" fill="#8D5D39"/>
<path d="M326.453 159.137C295.29 168.128 298.501 221.554 343.19 212.763C387.881 203.98 364.688 148.105 326.453 159.137Z" fill="#FFAD94"/>
<path d="M306.027 184.281C304.423 200.812 316.293 218.053 343.191 212.764C348.951 211.632 353.586 209.713 357.203 207.263C332.296 187.795 306.027 184.281 306.027 184.281Z" fill="#E78C75"/>
<path d="M234.58 186.613C150.439 191.714 75.9796 268.305 69.8179 336.867C64.8713 391.911 99.0759 442.645 244.489 440.47C374.21 438.525 415.062 393.013 419.46 340.866C425.692 266.918 346.102 179.852 234.58 186.613Z" fill="#AE7D55"/>
<path d="M179.275 225.837C250.28 194.6 280.41 189.241 278.629 188.824C262.697 185.065 252.304 185.581 234.578 186.613C178.778 189.859 123.988 226.441 94.1855 274.161C124.834 249.255 149.784 238.812 179.275 225.837Z" fill="#906141"/>
<path d="M240.787 276.445C199.043 280.023 163.016 316.436 160.817 348.145C159.052 373.609 176.692 396.516 248.914 393.399C313.349 390.62 333.069 369.031 334.598 344.908C336.759 310.71 296.112 271.707 240.787 276.445Z" fill="#FDF2EE"/>
<path fill-rule="evenodd" clip-rule="evenodd" d="M153.861 280.307C164.285 278.763 174.554 284.916 179.46 294.753C179.467 292.983 179.304 291.176 178.952 289.349C176.256 275.482 163.697 265.777 150.898 267.674C138.1 269.572 129.917 282.348 132.613 296.208C133.112 298.781 133.953 301.204 135.068 303.444C135.123 291.799 142.752 281.95 153.861 280.307Z" fill="#3D2B22"/>
<path fill-rule="evenodd" clip-rule="evenodd" d="M314.378 258.836C326.014 257.114 337.456 264.983 341.461 276.858C341.66 274.451 341.535 271.948 341.038 269.411C338.342 255.544 325.782 245.839 312.984 247.736C300.185 249.634 292.003 262.41 294.699 276.27C294.946 277.528 295.27 278.743 295.67 279.931C296.551 269.199 303.925 260.382 314.378 258.836Z" fill="#3D2B22"/>
<path d="M250.017 344.745C248.562 344.698 247.392 343.726 247.362 342.486C247.245 337.708 240.021 295.57 238.694 290.039C238.387 288.757 239.393 287.475 240.936 287.182C242.486 286.889 243.988 287.69 244.296 288.971C245.589 294.361 252.933 336.64 253.074 342.24C253.11 343.559 251.852 344.673 250.276 344.745C250.19 344.752 250.104 344.752 250.017 344.745Z" fill="#81634C"/>
<path d="M219.805 326.572C219.805 326.572 224.276 370.643 254.388 365.298C284.5 359.953 274.984 317.373 274.984 317.373C274.984 317.373 255.335 340.134 219.805 326.572Z" fill="#FF6B5D"/>
<path d="M219.805 326.571C219.805 326.571 220.674 335.149 224.237 344.279C232.09 329.502 267.781 327.518 276.315 335.401C276.838 325.668 274.981 317.373 274.981 317.373C274.981 317.373 255.334 340.131 219.805 326.571Z" fill="#AA3535"/>
<path d="M237.624 333.997C230.301 333.755 224.873 331.638 221.213 329.506C215.809 326.355 212.274 322.141 210.179 318.075C208.729 315.263 214.314 313.93 215.494 316.179C217.298 319.612 220.303 323.076 224.578 325.569C231.165 329.417 239.324 330.269 248.817 328.101C265.465 324.306 272.44 316.952 274.791 309.452C275.43 307.125 280.599 307.234 280.632 309.397C278.332 318.229 270.784 327.998 250.168 332.698C245.493 333.768 241.314 334.119 237.624 333.997Z" fill="#81634C"/>
<path fill-rule="evenodd" clip-rule="evenodd" d="M220.084 285.93C228.948 280.659 254.457 277.99 261.625 281.09C268.793 284.197 256.651 299.557 243.351 301.511C230.044 303.458 208.661 292.719 220.084 285.93Z" fill="#3D2B22"/>
<path d="M253.151 442.185C251.508 434.991 204.653 419.403 202.756 430.773C202.281 433.614 201.906 436.612 201.679 439.656C200.896 450.271 201.962 461.519 207.035 469.254C213.37 478.921 249.327 464.306 255.17 448.409L253.151 442.185Z" fill="#FFB1AD"/>
<path d="M261.467 441.053C264.532 434.692 301.887 414.488 305.03 417.963C307.507 421.947 309.877 426.915 311.257 432.484C314.726 446.452 311.965 464.197 307.916 463.491C302.395 462.53 265.882 462.872 259.649 447.145L261.467 441.053Z" fill="#FFB1AD"/>
<path d="M257.809 451.518C256.793 452.684 256.385 453.527 253.547 453.501C250.709 453.481 249.498 441.876 251.32 439.711C253.148 437.539 256.394 440.42 256.394 440.42C256.394 440.42 259.822 438.296 261.874 439.117C265.731 440.655 264.1 451.231 262.066 452.561C260.038 453.883 257.809 451.518 257.809 451.518Z" fill="#FFB1AD"/>
<path opacity="0.33" d="M254.739 453.381C255.596 453.275 257.195 452.45 257.811 451.511C258.837 452.488 260.059 453.052 261.024 452.936C261.627 452.901 262.216 452.513 262.761 451.761C263.939 453.288 267.372 455.374 267.396 455.314C280.32 462.778 303.59 462.733 307.903 463.49C307.903 463.49 280.771 458.503 268.723 448.433C268.857 447.425 269.054 446.572 269.097 445.507C270.506 444.654 274.152 446.08 276.262 446.109C279.132 446.176 282.287 446.811 285.374 446.435C286.939 446.248 291.637 444.309 291.588 442.913C291.538 441.516 283.777 439.194 280.722 439.337C278.975 439.423 272.446 442.964 269.117 443.65C269.041 440.689 268.518 437.302 267.965 435.319C267.965 435.319 265.322 436.966 262.683 439.551C262.683 439.551 263.827 440.655 263.337 444.977C263.166 446.5 262.703 448.069 261.999 449.513C261.447 449.559 260.788 449.62 260.064 449.68C259.277 448.264 258.221 446.395 256.865 447.806C256.732 447.939 255.402 450.388 254.199 450.848C252.688 451.435 251.234 449.98 250.984 449.315C250.672 448.496 250.503 446.438 250.529 444.284C250.55 442.78 250.687 440.849 251.245 439.734C248.564 437.659 246.662 437.173 246.662 437.173C246.21 438.791 246.035 440.885 245.606 444.631C241.827 443.513 233.419 438.14 231.586 438.045C228.484 437.889 217.193 440.572 217.202 441.994C217.211 443.423 227.563 447.423 229.145 447.617C232.272 448.003 235.439 447.367 238.334 447.302C240.497 447.275 244.123 445.815 245.59 446.719C245.62 447.352 245.688 447.91 245.797 448.449C225.093 469.416 207.036 469.227 207.036 469.227C212.752 477.948 242.534 466.92 252.623 453.021C252.618 453.043 253.881 453.488 254.739 453.381Z" fill="#D8726D"/>
<path d="M60.4899 71.585C66.7383 70.3342 72.4591 65.2858 76.0029 57.8031L76.3293 57.1192C79.3113 50.7946 83.9117 41.5859 95.2625 40.6876C105.007 39.9143 113.443 45.104 119.365 54.5799L120.413 53.8943C119.837 53.1115 109.644 33.3523 93.7828 34.6075C78.1225 35.8462 72.7941 47.1797 69.603 53.9475L69.2897 54.6158C66.6313 60.2207 62.3996 63.9769 58.2632 64.404C54.4064 64.8082 51.615 62.2727 49.9484 60.0779L44.0235 64.5727C48.0048 69.8259 53.3318 72.3908 59.028 71.7992C59.5226 71.7585 60.0071 71.6825 60.4899 71.585Z" fill="#FD95FF"/>
<path d="M82.2235 75.9223C86.8887 74.9895 93.3076 70.0063 96.5134 60.7749C98.5396 54.9403 97.3658 48.8059 105.252 46.756C108.368 45.9435 113.911 46.2092 118.511 53.816C119.571 55.5698 120.637 53.6915 119.556 51.9466C113.948 42.8776 109.603 41.7191 103.986 42.8458C103.937 42.8571 103.887 42.8684 103.837 42.8725C96.0264 44.5263 92.7666 49.4878 89.6391 57.9113C87.5108 63.646 83.9229 69.2699 75.8047 68.3137C72.0738 67.8771 67.0609 66.6797 61.5487 70.7508L65.965 76.7338C68.8703 74.5812 71.2083 75.0169 74.4408 75.6244C77.0946 76.128 79.6669 76.4288 82.2235 75.9223Z" fill="#7FD858"/>
<path d="M120.425 54.6423C113.022 47.5464 110.523 41.455 111.119 36.2138C111.796 30.2075 117.089 27.0565 121.327 24.5195C121.816 24.2265 122.298 23.9413 122.765 23.6573C128.146 20.3474 127.594 17.3164 126.961 13.8156C126.618 11.9229 126.263 9.96627 127.141 8.08142L134.024 10.8655C134.047 11.2247 134.178 11.9433 134.273 12.4915C134.955 16.2339 137.166 25.5914 126.656 30.0024C113.697 35.4382 112.08 43.0961 119.208 49.9257C120.689 51.3492 126.429 56.3072 125.007 57.7964C124.933 57.8602 121.827 55.9856 120.425 54.6423Z" fill="#FF8158"/>
<path d="M109.392 253.519C137.155 231.737 239.338 190.615 277.988 188.604L116.051 45.7029L109.392 253.519Z" fill="#FF5F62"/>
<mask id="mask1_183_5993" style="mask-type:luminance" maskUnits="userSpaceOnUse" x="109" y="45" width="169" height="209">
<path d="M109.368 253.519C139.369 230.981 220.854 196.143 277.989 188.591L116.05 45.7185L109.368 253.519Z" fill="white"/>
</mask>
<g mask="url(#mask1_183_5993)">
<path d="M132.964 101.035L136.138 70.2352L136.173 70.3118L162.305 86.8831L158.439 116.201L132.964 101.035Z" fill="#FFE0E3"/>
<path d="M110.687 55.1568L113.861 24.3576L113.896 24.4341L140.027 41.0055L136.162 70.3236L110.687 55.1568Z" fill="#FFE0E3"/>
<path d="M155.287 146.952L158.46 116.152L158.495 116.229L184.627 132.8L180.762 162.118L155.287 146.952Z" fill="#FFE0E3"/>
<path d="M184.63 132.804L187.804 102.012L187.846 102.081L213.978 118.659L210.112 147.97L184.63 132.804Z" fill="#FFE0E3"/>
<path d="M103.568 115.143L106.749 84.3435L106.784 84.42L132.916 100.999L129.05 130.309L103.568 115.143Z" fill="#FFE0E3"/>
<path d="M125.89 161.061L129.071 130.261L129.106 130.337L155.237 146.909L151.372 176.227L125.89 161.061Z" fill="#FFE0E3"/>
<path d="M96.5457 175.201L99.7199 144.409L99.7616 144.478L125.887 161.057L122.029 190.375L96.5457 175.201Z" fill="#FFE0E3"/>
<path d="M177.568 192.836L180.749 162.036L180.784 162.113L206.916 178.691L203.05 208.002L177.568 192.836Z" fill="#FFE0E3"/>
<path d="M206.919 178.695L210.093 147.896L210.128 147.972L236.26 164.544L232.394 193.862L206.919 178.695Z" fill="#FFE0E3"/>
<path d="M148.18 206.944L151.355 176.152L151.396 176.221L177.521 192.8L173.656 222.111L148.18 206.944Z" fill="#FFE0E3"/>
<path d="M118.835 221.092L122.009 190.293L122.044 190.369L148.176 206.941L144.31 236.259L118.835 221.092Z" fill="#FFE0E3"/>
<path d="M199.841 238.678L203.015 207.879L203.057 207.955L229.182 224.527L225.316 253.845L199.841 238.678Z" fill="#FFE0E3"/>
<path d="M229.184 224.53L232.366 193.738L232.401 193.814L258.532 210.386L254.667 239.704L229.184 224.53Z" fill="#FFE0E3"/>
<path d="M236.253 164.591L239.434 133.799L239.469 133.868L265.601 150.447L261.736 179.765L236.253 164.591Z" fill="#FFE0E3"/>
<path d="M258.527 210.433L261.7 179.634L261.743 179.71L287.868 196.289L284.002 225.6L258.527 210.433Z" fill="#FFE0E3"/>
<path d="M170.453 252.786L173.626 221.987L173.661 222.063L199.793 238.642L195.928 267.953L170.453 252.786Z" fill="#FFE0E3"/>
<path d="M141.103 266.934L144.284 236.135L144.319 236.211L170.45 252.783L166.585 282.101L141.103 266.934Z" fill="#FFE0E3"/>
<path d="M89.4916 235.204L92.6652 204.405L92.7075 204.481L118.832 221.06L114.974 250.37L89.4916 235.204Z" fill="#FFE0E3"/>
<path d="M111.765 281.046L114.939 250.246L114.974 250.323L141.106 266.901L137.24 296.212L111.765 281.046Z" fill="#FFE0E3"/>
</g>
<path opacity="0.4" d="M109.392 253.519C130.932 234.545 229.482 192.856 277.988 188.604C234.312 178.254 136.943 213.39 136.943 213.39C127.266 170.54 116.051 45.7029 116.051 45.7029L109.392 253.519Z" fill="#BA2E38"/>
<path d="M228.554 441.577C201.144 385.01 121.857 374.804 110.033 375.754C96.8566 376.805 106.875 406.503 127.92 421.272C127.92 421.272 126 483.857 131.049 505.278C119.865 528.203 123.806 541.62 147.792 527.166C163.069 529.851 229.841 499.678 233.459 456.686L228.554 441.577Z" fill="#FDCC1D"/>
<path d="M226.792 441.721C193.442 404.466 106.768 398.751 97.5689 401.335C88.0464 404.012 105.732 511.274 125.353 505.652C138.737 501.816 223.174 497.756 233.459 456.671L226.792 441.721Z" fill="#A9EF75"/>
<path opacity="0.33" d="M226.791 441.721C223.174 437.683 219.06 434.056 214.572 430.788C212.961 429.615 214.083 444.709 213.169 448.962C211.946 454.677 183.479 442.189 177.675 442.513C169.922 442.945 151.251 450.899 151.661 454.447C152.064 457.988 164.578 461.623 168.57 461.688C176.445 461.818 184.148 459.378 191.326 458.449C194.951 457.981 204.769 454.318 206.754 454.526C218.743 455.779 222.936 474.767 223.907 473.744C228.424 468.994 231.775 463.387 233.451 456.671L226.791 441.721Z" fill="#63A46C"/>
<path d="M245.448 436.899C258.408 377.949 331.431 352.289 342.91 350.756C355.705 349.043 353.598 378.769 337.156 396.951C337.156 396.951 354.763 456.117 355.331 477.833C372.118 497.778 371.751 511.727 344.622 502.615C330.403 508.438 257.977 493.006 244.275 452.324L245.448 436.899Z" fill="#FDCC1D"/>
<path d="M247.175 436.669C270.349 394.583 351.758 371.485 361.187 372.018C370.961 372.572 381.483 478.358 360.957 477.005C346.975 476.084 263.984 489.752 244.27 452.309L247.175 436.669Z" fill="#A9EF75"/>
<path opacity="0.33" d="M247.176 436.669C249.7 432.076 252.8 427.787 256.346 423.763C257.619 422.316 260.115 436.892 261.999 440.757C264.538 445.961 288.956 428.182 294.609 427.29C302.175 426.102 322.098 429.816 322.587 433.271C323.076 436.733 311.906 442.794 308.073 443.686C300.499 445.443 292.48 444.709 285.331 445.299C281.72 445.601 271.378 444.133 269.515 444.745C258.259 448.423 258.719 467.497 257.54 466.719C252.045 463.092 247.485 458.399 244.277 452.317L247.176 436.669Z" fill="#63A46C"/>
<path d="M240.874 463.667C238.659 466.849 237.875 469.037 230.805 469.742C223.735 470.448 217.621 441.923 221.591 436.035C225.554 430.147 234.393 436.438 234.393 436.438C234.393 436.438 242.355 430.241 247.67 431.731C257.668 434.531 256.438 461.263 251.748 465.107C247.052 468.965 240.874 463.667 240.874 463.667Z" fill="#A9EF75"/>
<path d="M393.667 513.332C394.034 516.614 394.401 519.954 394.746 523.337C396.516 540.597 397.875 558.858 398.479 574.664C398.493 574.924 398.501 575.183 398.501 575.435C399.083 590.679 398.961 603.556 397.817 610.963C397.724 611.56 397.63 612.122 397.53 612.64C396.954 615.548 396.163 617.304 395.149 617.635C389.05 619.643 295.4 636.457 218.924 647.664C202.878 650.033 187.581 652.134 174.016 653.811C142.823 657.655 120.75 659.202 119.542 656.158C118.226 652.868 114.234 637.264 109.818 617.067C107.365 605.831 104.776 593.17 102.446 580.423C95.3686 541.706 90.6937 502.154 99.3244 499.08C117.319 492.674 373.86 453.173 382.879 459.392C384.555 460.543 386.396 466.618 388.201 475.774C388.805 478.847 389.41 482.252 389.999 485.952C391.301 494.006 392.553 503.377 393.667 513.332Z" fill="#408FBB"/>
<path d="M324.844 537.43C300.304 551.387 318.817 583.95 343.983 569.496C369.141 555.05 347.169 524.733 324.844 537.43Z" fill="#FFE7FF"/>
<path d="M398.508 575.434C399.091 590.679 398.969 603.556 397.825 610.963C397.732 611.56 397.638 612.122 397.537 612.64C375.328 619.902 361.137 591.039 383.865 578.112C388.943 575.219 394.013 574.564 398.508 575.434Z" fill="#FFE7FF"/>
<path d="M166.241 614.835C141.701 628.792 160.214 661.355 185.379 646.901C210.538 632.448 188.565 602.131 166.241 614.835Z" fill="#FFE7FF"/>
<path d="M119.224 613.669C115.945 615.555 112.78 616.635 109.81 617.067C107.357 605.831 104.768 593.17 102.438 580.423C123.914 571.022 143.512 599.734 119.224 613.669Z" fill="#FFE7FF"/>
<path d="M393.668 513.332C394.035 516.614 394.402 519.954 394.747 523.337C372.357 530.988 357.93 501.902 380.758 488.917C383.894 487.139 387.015 486.204 390 485.952C391.302 494.006 392.553 503.377 393.668 513.332Z" fill="#FFE7FF"/>
<path d="M277.139 592.22C252.599 606.176 271.112 638.739 296.278 624.286C321.443 609.833 299.471 579.516 277.139 592.22Z" fill="#FFE7FF"/>
<path d="M256.094 503.644C231.554 517.6 250.067 550.163 275.233 535.71C300.391 521.264 278.419 490.947 256.094 503.644Z" fill="#FFE7FF"/>
<path d="M214.545 559.556C190.005 573.513 208.518 606.076 233.684 591.622C258.85 577.177 236.87 546.859 214.545 559.556Z" fill="#FFE7FF"/>
<path d="M154.159 527.31C129.619 541.267 148.131 573.83 173.297 559.376C198.463 544.923 176.483 514.613 154.159 527.31Z" fill="#FFE7FF"/>
<path opacity="0.33" d="M391.803 498.209C390.185 487.96 387.754 465.495 382.878 459.399C373.859 453.187 117.311 492.681 99.3159 499.088C96.5757 500.066 95.1804 504.731 94.7704 511.871C92.9148 549.486 115.901 646.585 119.533 656.165C123.798 666.839 384.827 621.032 395.148 617.642C402.29 615.771 397.924 542.843 391.803 498.209ZM380.001 613.065C375.549 614.554 321.082 628.662 263.321 637.954C196.67 648.679 125.712 654.344 123.561 648.852C121.094 642.547 108.457 589.074 102.696 547.579C147.511 542.742 332.144 514.383 377.318 505.645C382.806 549.71 386.258 610.97 380.001 613.065Z" fill="#004F7C"/>
<path d="M80.7894 485.167C72.4105 486.081 81.3432 531.139 84.8531 534.119C88.3629 537.099 386.676 492.408 398.148 488.773C404.124 486.88 399.608 441.34 390.236 440.382C380.879 439.425 101.705 480.935 80.7894 485.167Z" fill="#408FBB"/>
<mask id="mask2_183_5993" style="mask-type:luminance" maskUnits="userSpaceOnUse" x="77" y="440" width="324" height="95">
<path d="M80.7894 485.167C72.4105 486.081 81.3432 531.139 84.8531 534.119C88.3629 537.099 386.676 492.408 398.148 488.773C404.124 486.88 399.608 441.339 390.236 440.382C380.879 439.425 101.705 480.934 80.7894 485.167Z" fill="white"/>
</mask>
<g mask="url(#mask2_183_5993)">
<path d="M343.305 434.393C318.765 448.35 337.278 480.913 362.444 466.46C387.602 452.006 365.63 421.689 343.305 434.393Z" fill="#FFF4FF"/>
<path d="M303.03 481.337C278.49 495.294 297.003 527.857 322.168 513.404C347.327 498.958 325.354 468.641 303.03 481.337Z" fill="#FFF4FF"/>
<path d="M398.248 459.701C373.708 473.657 392.221 506.22 417.387 491.767C442.553 477.314 420.573 446.997 398.248 459.701Z" fill="#FFF4FF"/>
<path d="M262.795 444.053C238.255 458.009 256.768 490.572 281.934 476.119C307.092 461.673 285.12 431.356 262.795 444.053Z" fill="#FFF4FF"/>
<path d="M207.87 476.234C183.33 490.191 201.842 522.754 227.008 508.3C252.167 493.854 230.194 463.537 207.87 476.234Z" fill="#FFF4FF"/>
<path d="M161.481 508.934C136.941 522.89 155.454 555.453 180.619 541C205.785 526.554 183.806 496.237 161.481 508.934Z" fill="#FFF4FF"/>
<path d="M134.862 464.293C110.322 478.25 128.835 510.812 154 496.359C179.159 481.906 157.186 451.589 134.862 464.293Z" fill="#FFF4FF"/>
<path d="M85.5004 500.995C60.9604 514.951 79.4733 547.514 104.639 533.061C129.798 518.615 107.825 488.298 85.5004 500.995Z" fill="#FFF4FF"/>
</g>
<path d="M216.041 464.085C221.896 507.135 237.575 610.891 243.933 644.123C244.22 645.023 283.562 638.941 283.289 638.041C279.844 604.499 264.308 501.549 257.382 458.024C257.325 457.211 216.286 463.228 216.041 464.085Z" fill="#A9EF75"/>
<path opacity="0.33" d="M267.15 523.524C266.848 521.501 265.733 512.144 265.431 510.15C265.352 509.625 227.29 515.506 223.521 516.175C223.824 518.205 225.377 527.915 225.686 529.98L267.15 523.524Z" fill="#63A46C"/>
<path d="M416.275 454.008C487.622 421.574 533.473 551.185 457.631 572.807C374.884 596.402 371.28 474.464 416.275 454.008Z" fill="#AE7D55"/>
<path d="M411.314 473.571C465.076 449.128 504.561 544.642 447.404 560.945C385.047 578.717 377.409 488.982 411.314 473.571Z" fill="#FFAD94"/>
<path d="M63.357 500.758C-13.9886 488.162 -24.3094 625.272 54.5536 626.251C140.58 627.324 112.135 508.704 63.357 500.758Z" fill="#AE7D55"/>
<path d="M73.2686 518.335C14.9754 508.841 1.88551 611.373 61.3151 612.115C126.146 612.921 110.028 524.323 73.2686 518.335Z" fill="#FFAD94"/>
</svg>
