<svg width="59" height="59" viewBox="0 0 59 59" fill="none" xmlns="http://www.w3.org/2000/svg">
<g id="fi_11041809">
<g id="Page-1">
<g id="filled-outline">
<g id="quote-left-saying-speech">
<path id="Combined-Shape" d="M15.9792 7.375C23.8316 7.375 29.5 13.8577 29.4998 23.4565C29.4495 37.403 18.9653 47.2635 3.8402 49.1571C2.43696 49.3328 1.89588 47.389 3.18809 46.8144C8.9917 44.2338 11.9228 40.9591 12.3014 37.7178C12.5843 35.2962 11.2679 33.1749 9.61487 32.7777C5.32954 31.7479 2.45834 26.4113 2.45834 20.8958C2.45834 13.4285 8.51182 7.375 15.9792 7.375Z" fill="#9DDCF1"/>
<path id="Combined-Shape_2" d="M45.4792 7.375C53.3316 7.375 59 13.8577 58.9998 23.4565C58.9495 37.403 48.4653 47.2635 33.3402 49.1571C31.937 49.3328 31.3959 47.389 32.6881 46.8144C38.4917 44.2338 41.4228 40.9591 41.8014 37.7178C42.0843 35.2962 40.7679 33.1749 39.1149 32.7777C34.8295 31.7479 31.9583 26.4113 31.9583 20.8958C31.9583 13.4285 38.0118 7.375 45.4792 7.375Z" fill="#9DDCF1"/>
<path id="Combined-Shape_3" d="M53.5494 10.2037C51.3436 8.38714 48.5819 7.375 45.4792 7.375C38.0118 7.375 31.9583 13.4285 31.9583 20.8958C31.9583 26.4113 34.8295 31.7479 39.1149 32.7777C40.7679 33.1749 42.0843 35.2962 41.8014 37.7178C41.4228 40.9591 38.4917 44.2338 32.6881 46.8144C31.3959 47.389 31.937 49.3328 33.3402 49.1571C36.1877 48.8007 38.8707 48.1618 41.3505 47.2665C44.6888 45.0931 46.432 42.6251 46.7181 40.1761C47.0009 37.7545 45.6845 35.6332 44.0315 35.236C39.7462 34.2063 36.875 28.8697 36.875 23.3542C36.875 15.8868 42.9285 9.83333 50.3958 9.83333C51.4928 9.83333 52.5472 9.95985 53.5494 10.2037Z" fill="white" fill-opacity="0.4"/>
<path id="Combined-Shape_4" d="M24.0494 10.2037C21.8436 8.38714 19.0819 7.375 15.9792 7.375C8.51182 7.375 2.45834 13.4285 2.45834 20.8958C2.45834 26.4113 5.32954 31.7479 9.61487 32.7777C11.2679 33.1749 12.5843 35.2962 12.3014 37.7178C11.9228 40.9591 8.9917 44.2338 3.18809 46.8144C1.89588 47.389 2.43696 49.3328 3.8402 49.1571C6.68766 48.8007 9.37065 48.1618 11.8505 47.2665C15.1888 45.0931 16.932 42.6251 17.2181 40.1761C17.5009 37.7545 16.1845 35.6332 14.5315 35.236C10.2462 34.2063 7.375 28.8697 7.375 23.3542C7.375 15.8868 13.4285 9.83333 20.8958 9.83333C21.9928 9.83333 23.0472 9.95985 24.0494 10.2037Z" fill="white" fill-opacity="0.4"/>
<g id="Group">
<path id="Combined-Shape_5" d="M15.9792 7.375C23.8316 7.375 29.5 13.8577 29.4998 23.4565C29.4495 37.403 18.9653 47.2635 3.8402 49.1571C2.43696 49.3328 1.89588 47.389 3.18809 46.8144C8.9917 44.2338 11.9228 40.9591 12.3014 37.7178C12.5843 35.2962 11.2679 33.1749 9.61487 32.7777C5.32954 31.7479 2.45834 26.4113 2.45834 20.8958C2.45834 13.4285 8.51182 7.375 15.9792 7.375ZM27.0415 23.4521C27.0417 15.1475 22.395 9.83333 15.9792 9.83333C9.86952 9.83333 4.91667 14.7862 4.91667 20.8958C4.91667 25.4003 7.21534 29.6728 10.1892 30.3874C13.1109 31.0895 15.1642 34.3982 14.7432 38.003C14.4496 40.5163 13.07 42.9371 10.6135 45.0982C20.6215 41.6411 27.0042 33.7858 27.0415 23.4521Z" fill="#303C64"/>
<path id="Combined-Shape_6" d="M45.4792 7.375C53.3316 7.375 59 13.8577 58.9998 23.4565C58.9495 37.403 48.4653 47.2635 33.3402 49.1571C31.937 49.3328 31.3959 47.389 32.6881 46.8144C38.4917 44.2338 41.4228 40.9591 41.8014 37.7178C42.0843 35.2962 40.7679 33.1749 39.1149 32.7777C34.8295 31.7479 31.9583 26.4113 31.9583 20.8958C31.9583 13.4285 38.0118 7.375 45.4792 7.375ZM56.5415 23.4521C56.5416 15.1475 51.895 9.83333 45.4792 9.83333C39.3695 9.83333 34.4167 14.7862 34.4167 20.8958C34.4167 25.4003 36.7153 29.6728 39.6892 30.3874C42.6109 31.0895 44.6642 34.3982 44.2432 38.003C43.9496 40.5163 42.57 42.9371 40.1135 45.0982C50.1215 41.6411 56.5042 33.7858 56.5415 23.4521Z" fill="#303C64"/>
</g>
</g>
</g>
</g>
</g>
</svg>
