<svg width="1918" height="1679" viewBox="0 0 1918 1679" fill="none" xmlns="http://www.w3.org/2000/svg">
<path opacity="0.32" d="M690.547 1457.45C685.522 1451.95 679.286 1447.18 673.513 1442.37C672.123 1441.21 670.092 1443.03 671.446 1444.29C676.827 1449.49 682.137 1455.13 688.23 1459.6C689.834 1460.83 691.936 1458.97 690.547 1457.45Z" fill="black"/>
<path opacity="0.32" d="M735.556 1476.78C726.371 1473.31 717.071 1469.92 707.696 1467.05C706.291 1466.64 705.266 1468.82 706.671 1469.46C715.742 1473.61 725.118 1477.31 734.456 1480.85C736.999 1481.83 738.099 1477.72 735.556 1476.78Z" fill="black"/>
<path opacity="0.32" d="M797.198 1486.01C786.78 1485.3 776.824 1484.4 766.829 1481.09C764.946 1480.46 764.254 1483.37 766.022 1484.08C775.825 1488.02 786.588 1490.7 797.198 1489.84C799.581 1489.64 799.62 1486.17 797.198 1486.01Z" fill="black"/>
<path opacity="0.32" d="M849.052 1481.05C841.01 1483.14 833.617 1484.53 825.359 1483.62C823.808 1483.45 823.448 1486.58 824.998 1486.92C833.076 1488.66 842.2 1488.53 849.918 1484.75C851.757 1483.88 851.108 1480.53 849.052 1481.05Z" fill="black"/>
<path opacity="0.32" d="M912.421 1461.3C904.877 1466.79 897.535 1470.29 888.332 1471.01C886.573 1471.16 886.539 1473.96 888.332 1474C897.67 1474.11 907.38 1470.83 914.485 1464.21C915.94 1462.83 914.011 1460.1 912.421 1461.3Z" fill="black"/>
<path opacity="0.32" d="M969.252 1433.21C960.905 1437.29 952.822 1442.13 944.663 1446.56C943.159 1447.38 944.475 1449.6 946.016 1448.85C954.363 1444.68 962.936 1440.86 971.094 1436.32C973.162 1435.19 971.32 1432.19 969.252 1433.21Z" fill="black"/>
<path opacity="0.32" d="M1028.6 1397.11C1018.04 1400.44 1008.34 1406.58 1000.44 1414.58C999.125 1415.91 1001.06 1417.81 1002.4 1416.63C1010.58 1409.45 1019.46 1404.5 1029.6 1401.02C1032.02 1400.19 1031.05 1396.32 1028.6 1397.11Z" fill="black"/>
<path opacity="0.32" d="M1081.27 1373.28C1073.93 1377.79 1066.4 1380.87 1058.09 1383.1C1056.16 1383.6 1057.02 1386.29 1058.87 1385.97C1067.47 1384.63 1075.85 1381.22 1083.13 1376.47C1085.13 1375.2 1083.34 1372.04 1081.27 1373.28Z" fill="black"/>
<path opacity="0.32" d="M1138.82 1364.02C1131.8 1365.02 1124.86 1366.35 1117.87 1367.53C1116.53 1367.74 1116.81 1370.14 1118.19 1369.99C1125.35 1369.14 1132.58 1368.46 1139.71 1367.38C1141.96 1367.06 1141.01 1363.7 1138.82 1364.02Z" fill="black"/>
<path opacity="0.32" d="M1186.79 1363.94C1180.08 1361.15 1173.14 1360.32 1166.05 1361.57C1164.44 1361.86 1164.78 1364.94 1166.42 1364.77C1173.14 1364.06 1179.55 1365.02 1185.82 1367.85C1187.95 1368.81 1188.96 1364.85 1186.79 1363.94Z" fill="black"/>
<path opacity="0.32" d="M1243.39 1383.15C1237.95 1378.78 1230.83 1376.68 1223.4 1377.04C1221.55 1377.13 1221.52 1379.53 1223.4 1379.56C1229.99 1379.62 1235.75 1381.74 1240.6 1385.55C1242.48 1386.99 1245.24 1384.65 1243.39 1383.15Z" fill="black"/>
<path opacity="0.32" d="M1298.21 1404.3C1290.85 1399.59 1282.67 1396.1 1274.96 1392.14C1273.49 1391.39 1272.16 1393.83 1273.66 1394.69C1281.3 1399.12 1288.97 1404.22 1296.88 1407.87C1298.69 1408.69 1299.86 1405.36 1298.21 1404.3Z" fill="black"/>
<path opacity="0.32" d="M1354.08 1441.21C1345.31 1434.71 1335.01 1429.39 1325.5 1424.22C1323.58 1423.18 1321.98 1426.04 1323.79 1427.27C1332.85 1433.37 1342.33 1440.06 1352.1 1444.78C1354.4 1445.86 1356.14 1442.73 1354.08 1441.21Z" fill="black"/>
<path opacity="0.32" d="M1397.87 1459.52C1389.1 1459.34 1381.55 1457.79 1373.96 1453.17C1372.74 1452.43 1371.27 1454.24 1372.41 1455.17C1379.45 1460.96 1388.66 1464.62 1397.87 1463.91C1400.67 1463.73 1400.75 1459.6 1397.87 1459.52Z" fill="black"/>
<path opacity="0.32" d="M1454.15 1481.7C1444.8 1481.18 1436.58 1479.39 1428.32 1474.24C1426.58 1473.14 1425.02 1476.11 1426.76 1477.24C1434.91 1482.76 1444.55 1486.41 1454.18 1485.96C1456.61 1485.88 1456.61 1481.83 1454.15 1481.7Z" fill="black"/>
<path opacity="0.32" d="M1522.03 1490.82C1510.75 1491.42 1499.99 1491.42 1488.79 1490.02C1487.03 1489.8 1486.2 1491.98 1488.03 1492.38C1499.23 1494.9 1511.08 1495.75 1522.56 1494.28C1524.79 1493.97 1524.29 1490.7 1522.03 1490.82Z" fill="black"/>
<path opacity="0.32" d="M1603.49 1481.03C1593.37 1482.64 1583.74 1483.98 1573.47 1483.91C1571.85 1483.91 1571.36 1486.78 1573.08 1487.05C1583.31 1488.61 1594.63 1488.43 1604.58 1485.14C1607.09 1484.28 1605.99 1480.62 1603.49 1481.03Z" fill="black"/>
<path opacity="0.32" d="M1680.62 1458.36C1672.59 1464.14 1664.44 1467.66 1654.51 1468.89C1652.57 1469.11 1652.42 1472.04 1654.51 1472C1664.85 1471.93 1675.23 1468.33 1683.3 1461.85C1685.27 1460.29 1682.67 1456.88 1680.62 1458.36Z" fill="black"/>
<path opacity="0.32" d="M1765.22 1414.9C1759.69 1422.9 1752.43 1428.36 1742.13 1430.24C1740.12 1430.61 1741.03 1433.22 1742.98 1432.99C1753.53 1431.68 1764.01 1425.68 1768.78 1416.77C1769.88 1414.66 1766.62 1412.85 1765.22 1414.9Z" fill="black"/>
<path opacity="0.32" d="M1813.19 1366.95C1809.88 1372.67 1805.9 1377.84 1801.39 1382.81C1800.2 1384.11 1801.99 1385.72 1803.4 1384.66C1809.06 1380.41 1813.6 1374.9 1816.77 1368.87C1817.92 1366.68 1814.46 1364.8 1813.19 1366.95Z" fill="black"/>
<path opacity="0.32" d="M1838.75 1317.48C1838.33 1315.12 1834.22 1315.79 1834.18 1318.03C1834.01 1324.35 1831.92 1329.49 1826.59 1333.86C1824.92 1335.22 1827.14 1337.91 1829.07 1336.69C1835.94 1332.32 1840.09 1324.9 1838.75 1317.48Z" fill="black"/>
<path opacity="0.32" d="M1840.44 1258.94C1839.57 1256.98 1836.35 1258.37 1837.12 1260.44C1839 1265.61 1840.04 1270.96 1839.73 1276.53C1839.63 1278.21 1842.25 1278.6 1842.52 1276.92C1843.52 1270.71 1843.02 1264.72 1840.44 1258.94Z" fill="black"/>
<path opacity="0.32" d="M1825.95 1219.17C1824.38 1212.29 1821.57 1205.56 1817.07 1200.6C1815.37 1198.76 1812.92 1201.58 1814.52 1203.53C1818.54 1208.42 1821.7 1213.46 1823.47 1219.92C1823.96 1221.8 1826.37 1221.01 1825.95 1219.17Z" fill="black"/>
<path opacity="0.32" d="M1801.5 1175.62C1795.6 1171.16 1789.1 1167.18 1782.78 1163.3C1780.69 1162.03 1778.86 1165.18 1780.87 1166.49C1786.98 1170.44 1793.27 1174.49 1799.73 1177.85C1801.11 1178.54 1802.88 1176.65 1801.5 1175.62Z" fill="black"/>
<path opacity="0.32" d="M1761.19 1141.64C1754.08 1136.54 1746.76 1131.55 1739.15 1127.31C1736.73 1125.94 1734.73 1129.49 1736.98 1131.07C1744.12 1136.1 1751.76 1140.57 1759.37 1144.74C1761.44 1145.88 1763.03 1142.97 1761.19 1141.64Z" fill="black"/>
<path opacity="0.32" d="M1718.44 1106.09C1711.77 1100.09 1704.99 1094.17 1698.09 1088.45C1696.35 1087 1693.85 1089.4 1695.59 1090.97C1702.26 1097 1709.08 1102.8 1715.98 1108.57C1717.68 1109.98 1720.11 1107.61 1718.44 1106.09Z" fill="black"/>
<path opacity="0.32" d="M1675.75 1063.73C1671.6 1057.48 1667.11 1051.53 1662.37 1045.72C1660.66 1043.61 1657.88 1046.62 1659.48 1048.73C1663.9 1054.58 1668.5 1060.21 1673.45 1065.58C1674.6 1066.78 1676.73 1065.15 1675.75 1063.73Z" fill="black"/>
<path opacity="0.32" d="M1644.9 1019.05C1642.37 1012.9 1639.75 1006.82 1636.43 1001C1635.23 998.92 1631.16 1000.39 1632.16 1002.62C1634.9 1008.7 1638.22 1014.52 1641.75 1020.26C1642.66 1021.77 1645.57 1020.75 1644.9 1019.05Z" fill="black"/>
<path opacity="0.32" d="M1622.97 968.087C1621.34 961.072 1618.91 953.954 1616.07 947.283C1615.12 945.082 1611.4 945.908 1612.08 948.28C1614.06 955.364 1616.75 962.516 1619.97 969.256C1620.73 970.838 1623.31 969.634 1622.97 968.087Z" fill="black"/>
<path opacity="0.32" d="M1608.97 886.95C1608.94 884.35 1605.1 884.35 1605.03 886.95C1604.89 895.56 1605.27 904.134 1605.71 912.709C1605.78 914.43 1608.19 914.43 1608.29 912.709C1608.73 904.134 1609.11 895.595 1608.97 886.95Z" fill="black"/>
<path opacity="0.32" d="M1619.84 831.407C1614.31 835.529 1611.53 841.816 1612.07 848.48C1612.21 850.472 1615.31 850.541 1615.35 848.48C1615.42 842.812 1618.02 837.591 1622.41 833.846C1624.16 832.335 1621.63 830.068 1619.84 831.407Z" fill="black"/>
<path opacity="0.32" d="M1649.76 797.081C1643.24 798.804 1637.65 803.739 1636.03 809.585C1635.72 810.768 1637.69 811.613 1638.35 810.43C1641.01 805.597 1644.94 802.15 1650.72 800.19C1652.92 799.48 1652.07 796.472 1649.76 797.081Z" fill="black"/>
<path opacity="0.32" d="M1696.2 754.247C1690.04 757.936 1684.29 762.342 1678.5 766.509C1677.09 767.534 1678.96 769.72 1680.46 768.763C1686.51 764.904 1692.79 761.181 1698.43 756.843C1700.04 755.647 1697.93 753.222 1696.2 754.247Z" fill="black"/>
<path opacity="0.32" d="M1745.57 724.179C1739.87 726.96 1734.09 729.67 1728.56 732.732C1727.4 733.366 1728.21 735.443 1729.49 734.915C1733.1 733.436 1736.68 731.817 1740.22 730.163C1740.61 730.374 1741.11 730.444 1741.64 730.128C1743.48 729.072 1745.36 727.98 1747.2 726.924C1749.01 725.903 1747.45 723.299 1745.57 724.179Z" fill="black"/>
<path opacity="0.32" d="M1792.96 706.72C1792.85 705.952 1792.19 705.312 1791.56 705.099C1789.53 704.417 1786.43 707.445 1784.85 708.554C1782.45 710.217 1780.09 711.923 1777.76 713.629C1776.03 714.909 1777.54 717.809 1779.35 716.785C1781.6 715.548 1783.78 714.141 1785.99 712.819C1786.62 712.435 1787.24 712.051 1787.91 711.667C1788.31 711.795 1788.83 711.753 1789.35 711.411C1790.9 710.345 1793.33 709.194 1792.96 706.72Z" fill="black"/>
<path opacity="0.32" d="M1844.67 696.056C1838.5 697.396 1832.44 699.389 1826.34 701.128C1823.99 701.78 1824.99 705.548 1827.33 704.932C1833.43 703.302 1839.67 701.925 1845.67 699.896C1847.98 699.099 1847.05 695.512 1844.67 696.056Z" fill="black"/>
<path opacity="0.32" d="M1882.21 696.03C1879.04 695.973 1875.88 696.001 1872.71 696.086C1870.43 696.143 1870.43 698.844 1872.71 698.901C1875.88 698.986 1879.04 699.043 1882.21 698.958C1884.6 698.901 1884.6 696.086 1882.21 696.03Z" fill="black"/>
<path opacity="0.32" d="M410.229 44.5056C407.774 49.482 405.104 54.4538 403.133 59.5549C402.569 61.0307 404.975 61.5812 405.71 60.1958C408.327 55.261 410.224 50.0994 412.352 45.0154C412.828 43.8395 410.804 43.3595 410.229 44.5056Z" fill="black"/>
<path opacity="0.32" d="M425.768 10.6142C423.08 15.4685 420.177 20.3081 417.966 25.31C417.333 26.7574 419.71 27.4213 420.51 26.0724C423.358 21.2672 425.498 16.2014 427.864 11.2241C428.396 10.0721 426.396 9.49661 425.768 10.6142Z" fill="black"/>
<path opacity="0.32" d="M393.91 87.6638C387.756 94.8664 381.054 102.188 375.975 110.183C374.94 111.844 377.296 113.999 378.688 112.466C385.08 105.417 390.356 97.0101 395.673 89.1685C396.34 88.0801 394.759 86.6589 393.91 87.6638Z" fill="black"/>
<path opacity="0.32" d="M362.494 118.237C354.149 121.771 345.652 125.174 337.569 129.349C335.165 130.569 337.062 134.013 339.469 132.999C347.831 129.543 355.928 125.242 364.037 121.184C365.965 120.233 364.456 117.442 362.494 118.237Z" fill="black"/>
<path opacity="0.32" d="M288.794 129.104C281.948 131.411 274.916 131.542 268.279 128.387C265.623 127.117 263.834 130.788 266.529 132.049C273.934 135.529 282.482 135.767 289.867 132.154C291.498 131.348 290.555 128.517 288.794 129.104Z" fill="black"/>
<path opacity="0.32" d="M223.616 113.997C215.658 109.857 207.541 105.177 199.09 102.17C196.818 101.35 195.104 104.799 197.256 106.014C205.039 110.479 213.886 113.606 222.209 116.969C223.92 117.664 225.291 114.905 223.616 113.997Z" fill="black"/>
<path opacity="0.32" d="M163.063 88.613C151.63 85.1044 140.221 81.7133 128.438 79.4294C125.952 78.9433 124.633 82.5118 127.179 83.2722C138.808 86.7383 150.631 89.0137 162.563 91.2244C164.062 91.5144 164.471 89.0461 163.063 88.613Z" fill="black"/>
<path opacity="0.32" d="M84.8522 69.8105C73.9927 70.6494 63.0633 71.5444 52.2529 72.988C49.2619 73.391 50.3404 77.7931 53.2394 77.5332C63.9081 76.5716 74.5532 75.1229 85.1335 73.5651C87.2366 73.2318 86.9894 69.6339 84.8522 69.8105Z" fill="black"/>
<path opacity="0.32" d="M28.3344 76.2513C19.5384 77.709 10.6691 79.0185 2.10275 81.5341C-0.559548 82.3171 0.234636 86.1655 3.02117 85.7658C11.8597 84.504 20.4738 82.0191 29.0827 79.6993C31.2916 79.0968 30.5858 75.8447 28.3344 76.2513Z" fill="black"/>
<path opacity="0.32" d="M38.245 678.412C31.3116 677.598 24.4172 676.823 17.4839 676.009C15.809 675.816 15.3805 678.722 17.0944 678.954C23.9888 679.961 30.8832 680.969 37.7776 681.976C40.3873 682.325 40.8937 678.722 38.245 678.412Z" fill="black"/>
<path opacity="0.32" d="M90.8461 686.763C82.2198 684.172 73.3603 682.248 64.6563 680.049C62.9854 679.617 62.286 682.169 63.9568 682.64C72.622 685.114 81.2483 687.863 89.9912 689.944C92.0118 690.454 92.8667 687.352 90.8461 686.763Z" fill="black"/>
<path opacity="0.32" d="M155.03 711.489C144.251 705.991 133.168 701.103 122.123 696.14C120.529 695.414 119.086 697.705 120.719 698.545C131.422 704.081 142.125 709.77 153.094 714.81C155.296 715.803 157.231 712.634 155.03 711.489Z" fill="black"/>
<path opacity="0.32" d="M207.449 750.759C201.784 744.51 194.852 739.171 188.593 733.414C187.167 732.126 185.068 734.134 186.454 735.459C192.436 741.443 198.021 748.032 204.597 753.448C206.538 755.114 209.152 752.653 207.449 750.759Z" fill="black"/>
<path opacity="0.32" d="M238.86 798.321C235.563 790.219 231.51 782.43 227.538 774.641C226.862 773.31 224.558 774.249 225.075 775.658C228.173 783.8 231.153 792.058 234.887 799.965C235.96 802.118 239.774 800.591 238.86 798.321Z" fill="black"/>
<path opacity="0.32" d="M248.175 831.976C247.395 830.307 244.437 830.914 245.095 832.772C248.216 841.683 249.407 850.747 250.557 860.037C250.886 862.578 254.952 862.73 254.993 860.037C255.158 850.254 252.241 840.887 248.175 831.976Z" fill="black"/>
<path opacity="0.32" d="M251.297 899.029C249.873 905.907 248.705 912.784 248.011 919.776C247.756 922.297 251.881 922.909 252.246 920.387C253.232 913.433 253.743 906.441 253.998 899.411C254.071 897.807 251.626 897.425 251.297 899.029Z" fill="black"/>
<path opacity="0.32" d="M230.395 968.244C227.848 974.835 223.062 980.085 217.08 983.803C214.61 985.336 216.809 989.13 219.357 987.673C226.535 983.611 231.475 976.981 233.907 969.163C234.602 966.941 231.205 966.097 230.395 968.244Z" fill="black"/>
<path opacity="0.32" d="M189.534 1013.19C180.48 1017.26 171.618 1022.15 163.181 1027.42C160.484 1029.11 162.873 1033.15 165.685 1031.69C174.47 1027.03 183.177 1021.84 191.229 1016.07C192.963 1014.8 191.499 1012.3 189.534 1013.19Z" fill="black"/>
<path opacity="0.32" d="M119.894 1046.04C116.264 1046.88 112.56 1047.92 108.931 1049.03C108.37 1048.72 107.697 1048.65 106.986 1048.95C105.04 1049.84 103.095 1050.72 101.149 1051.6C98.7544 1052.68 100.476 1056.67 102.907 1055.9C109.043 1054.02 115.254 1051.64 121.166 1049.07C122.924 1048.34 121.615 1045.65 119.894 1046.04Z" fill="black"/>
<path opacity="0.32" d="M63.9755 1054.09C53.6639 1057.68 43.5461 1059.89 32.8468 1061.71C29.9781 1062.19 30.6371 1067.2 33.5445 1066.99C44.554 1066.27 55.6022 1062.68 65.2548 1057.15C66.8054 1056.26 65.72 1053.48 63.9755 1054.09Z" fill="black"/>
<path opacity="0.32" d="M1915.13 312.512C1903.24 311.921 1891.24 312.039 1879.36 312C1876.21 312 1876.21 317.039 1879.36 317C1891.28 316.921 1903.24 317.078 1915.13 316.488C1917.62 316.33 1917.62 312.63 1915.13 312.512Z" fill="black"/>
<path opacity="0.32" d="M1827.73 299.788C1822.82 298.595 1817.76 297.742 1812.78 297.027C1810.02 296.652 1808.77 300.368 1811.61 300.879C1816.78 301.8 1822.02 302.584 1827.27 302.993C1829.31 303.163 1829.65 300.231 1827.73 299.788Z" fill="black"/>
<path opacity="0.32" d="M1771.21 279.668C1767.21 276.771 1763.22 273.914 1759.07 271.331C1756.75 269.883 1754.73 273.562 1756.98 275.088C1761.05 277.828 1765.27 280.294 1769.53 282.76C1771.44 283.856 1773 280.92 1771.21 279.668Z" fill="black"/>
<path opacity="0.32" d="M1718.89 241.026C1715.57 232.298 1709.94 224.801 1702.07 219.379C1699.83 217.841 1697.75 221.379 1699.91 222.916C1706.82 227.876 1712.29 234.259 1715.57 241.91C1716.41 243.795 1719.64 243.064 1718.89 241.026Z" fill="black"/>
<path opacity="0.32" d="M1664.88 184.593C1660.52 173.517 1656.16 162.404 1651.45 151.444C1650.39 148.906 1646.11 149.982 1647.17 152.597C1651.65 163.865 1656.52 174.94 1661.31 186.054C1662.21 188.015 1665.67 186.631 1664.88 184.593Z" fill="black"/>
<path opacity="0.32" d="M1637.69 86.6119C1636.46 95.4639 1635.73 104.355 1635.01 113.246C1634.85 115.244 1638.15 115.714 1638.42 113.716C1639.73 104.903 1641.15 96.0906 1641.99 87.1994C1642.22 84.6927 1638.04 84.1051 1637.69 86.6119Z" fill="black"/>
<path opacity="0.32" d="M1663.5 6.56456C1652.74 16.5802 1645 28.8894 1640.11 42.8806C1639.36 45.0214 1642.65 45.9006 1643.43 43.7981C1648.44 30.6096 1656.29 19.1414 1666.37 9.50809C1668.28 7.67317 1665.4 4.76787 1663.5 6.56456Z" fill="black"/>
<mask id="mask0_774_871" style="mask-type:luminance" maskUnits="userSpaceOnUse" x="0" y="0" width="1918" height="1679">
<path d="M1917.48 0H0V1679H1917.48V0Z" fill="white"/>
</mask>
<g mask="url(#mask0_774_871)">
<path d="M1746.84 1288.71C1764.05 1321.91 1724.58 1349.05 1689.66 1341.13C1691.73 1380.81 1631.16 1397.22 1608.92 1361.87C1588.33 1385.05 1546.93 1370.83 1549.39 1341.78C1532.36 1347.02 1511.51 1335.54 1513.04 1318.38C1514.93 1297.01 1544.08 1286.59 1562.96 1298.13C1560.61 1277.29 1573.86 1254.86 1598.91 1250.43C1621.68 1246.41 1643.23 1260.07 1648.72 1278.79C1678.97 1260.2 1728.25 1252.93 1746.84 1288.71ZM1736.9 1322.09C1746.38 1309.55 1744.78 1293.49 1733.31 1282.54C1709.54 1259.82 1672.38 1270.09 1648.83 1286.84C1646.23 1288.68 1642.74 1287.46 1642.45 1284.5C1640.31 1264.66 1616.16 1251.52 1594.92 1258.42C1575.89 1264.6 1567.13 1283.81 1570.55 1300.41C1571.37 1304.25 1564.89 1305.93 1563.75 1302.38C1563.21 1302.53 1562.64 1302.5 1562.07 1302.19C1547.78 1293.36 1524.02 1299.29 1519.92 1315.36C1515.75 1331.67 1536.85 1343.28 1551.77 1334.61C1554.2 1333.2 1557.01 1335.54 1556.44 1337.76C1549.14 1365.52 1590.54 1379.41 1606.61 1354.85C1607.71 1353.17 1611.17 1352.86 1612.17 1354.85C1629.73 1390.29 1689.55 1376.69 1682.36 1337.66C1681.96 1335.6 1683.89 1332.98 1686.67 1333.89C1704.66 1339.72 1725.65 1337.01 1736.9 1322.09Z" fill="#8ECDDD"/>
<path d="M1733.3 1282.54C1744.78 1293.49 1746.38 1309.55 1736.9 1322.09C1725.64 1337.01 1704.66 1339.72 1686.67 1333.89C1683.89 1332.98 1681.96 1335.6 1682.35 1337.66C1689.55 1376.69 1629.73 1390.29 1612.16 1354.85C1611.17 1352.86 1607.71 1353.17 1606.61 1354.85C1590.54 1379.41 1549.14 1365.52 1556.44 1337.76C1557.01 1335.54 1554.2 1333.2 1551.77 1334.6C1536.84 1343.28 1515.75 1331.67 1519.92 1315.36C1524.02 1299.29 1547.78 1293.36 1562.07 1302.19C1562.64 1302.5 1563.21 1302.53 1563.74 1302.38C1564.88 1305.93 1571.37 1304.25 1570.55 1300.41C1567.13 1283.81 1575.89 1264.6 1594.92 1258.42C1616.15 1251.52 1640.31 1264.66 1642.45 1284.5C1642.73 1287.46 1646.23 1288.68 1648.83 1286.84C1672.38 1270.09 1709.54 1259.82 1733.3 1282.54Z" fill="white"/>
<path d="M-91.3544 936.325C-103.013 922.96 -97.3752 899.487 -89.3602 885.82C-82.3039 873.732 -70.3388 865.572 -56.3029 863.523C-65.4684 856.27 -70.5306 845.424 -69.3801 833.973C-67.4243 813.724 -47.5592 798.781 -27.0039 792.367C11.3456 780.379 71.6311 783.435 91.9563 817.922C104.305 793.542 150.363 796.262 171.455 812.717C195.5 831.521 192.701 865.303 167.697 880.414C187.485 885.652 198.875 906.069 186.104 923.497C171.647 943.209 145.109 941.496 128.12 928.265C126.586 967.756 64.1146 981.96 39.8777 946.264C23.3874 959.092 2.10341 965.405 -20.1393 964.532C-43.5709 963.625 -76.5131 953.383 -91.3544 936.325ZM-88.2864 907.379C-90.0888 918.326 -89.3602 929.172 -78.9291 936.694C-72.3713 941.429 -64.5864 945.526 -56.9932 948.716C-24.9714 962.181 12.5728 960.301 38.3054 937.668C40.2228 935.989 43.6359 936.996 44.633 938.91C64.6898 976.419 124.247 959.864 120.105 920.307C119.146 919.098 118.302 917.856 117.497 916.58C116.155 914.363 120.028 912.953 121.409 914.968C121.562 915.102 121.639 915.27 121.754 915.404C123.71 914.498 126.548 915.035 127.123 917.553C127.468 919.065 127.736 920.576 127.851 922.02C140.315 932.899 159.988 937.332 174.408 925.613C193.122 910.401 180.352 882.899 154.313 885.988C150.209 886.492 147.793 880.851 152.05 879.675C179.662 871.784 189.748 841.73 170.995 822.086C153.507 803.784 99.0126 796.195 96.75 829.91C96.4432 834.074 89.9621 833.771 88.8884 830.212C78.3806 794.214 28.5646 790.52 -6.29514 795.289C-24.7029 797.841 -43.4942 804.221 -54.232 818.392C-66.734 834.913 -61.7102 858.184 -38.1252 864.228C-32.9481 865.538 -36.016 872.053 -41.0398 870.978C-68.383 864.934 -84.9116 886.861 -88.2864 907.379Z" fill="#8ECDDD"/>
<path d="M-78.9289 936.694C-89.36 929.172 -90.0886 918.325 -88.2862 907.378C-84.9498 886.895 -68.3828 864.967 -41.0396 870.978C-36.0158 872.086 -32.9478 865.538 -38.125 864.228C-61.7483 858.184 -66.7721 834.913 -54.2318 818.391C-43.494 804.221 -24.7027 797.807 -6.29492 795.288C28.6031 790.554 78.3808 794.214 88.8886 830.211C89.9624 833.771 96.4434 834.073 96.7502 829.909C99.0128 796.195 153.507 803.784 170.995 822.085C189.748 841.729 179.662 871.784 152.05 879.675C147.793 880.884 150.209 886.492 154.313 885.988C180.391 882.899 193.161 910.401 174.408 925.612C159.95 937.332 140.277 932.933 127.852 922.019C127.698 920.542 127.43 919.064 127.123 917.553C126.548 915.035 123.71 914.497 121.754 915.404C121.639 915.27 121.562 915.102 121.409 914.967C120.028 912.919 116.155 914.363 117.497 916.579C118.264 917.855 119.146 919.098 120.105 920.307C124.247 959.864 64.69 976.385 44.6332 938.91C43.5978 936.996 40.223 935.988 38.3056 937.667C12.573 960.267 -25.0095 962.181 -56.993 948.715C-64.5862 945.492 -72.3328 941.428 -78.9289 936.694Z" fill="white"/>
<path d="M1997.72 885.98C2005.66 920.391 1965.15 946.847 1931.24 934.587C1944.17 965.847 1913.74 997.014 1878.25 1005.06C1842.23 1013.21 1787.93 1006.34 1777.71 971.12C1765.59 985.939 1743.18 995.517 1723.2 986.469C1705.42 978.451 1697.97 958.64 1706.38 943.416C1690.17 943.478 1671.71 941.856 1659.53 932.216C1647.06 922.357 1646.77 906.883 1655.86 895.09C1677.3 867.292 1724.01 873.157 1746.14 896.338C1745.61 856.81 1779.67 820.027 1824.35 812.539C1844.94 809.076 1869.56 812.04 1885.27 825.112C1895.43 833.567 1900.1 845.485 1897.89 856.841C1933.59 835.345 1987.78 843.145 1997.72 885.98ZM1924.89 923.792C1959.85 948.064 2002.78 911.656 1987.1 878.711C1969.96 842.739 1918.37 845.173 1891.33 870.568C1888.37 873.313 1882.89 869.663 1885.31 866.481C1901.38 845.765 1880.25 824.332 1856.59 819.621C1838.96 816.096 1820.53 818.436 1804.43 825.487C1773.08 839.276 1752.34 867.822 1753.84 898.646C1754.01 902.265 1748.67 902.796 1746.85 900.331C1746.07 900.705 1745.11 900.768 1744.47 900.081C1725.8 881.238 1688.56 874.281 1666.72 893.592C1649.59 908.723 1656.64 927.629 1677.66 933.807C1688.88 937.082 1701.14 937.238 1712.86 936.926C1715.43 936.864 1717.67 939.765 1716.03 941.731C1704.6 955.177 1711.33 976.174 1729.96 981.883C1749.81 987.967 1768.98 974.77 1776.53 959.67C1778.17 956.425 1783.41 958.36 1783.59 961.323C1785.65 1000.41 1842.3 1006.31 1876.22 998.605C1910.82 990.774 1941.5 958.703 1918.87 927.848C1916.31 924.385 1921.76 921.608 1924.89 923.792Z" fill="#8ECDDD"/>
<path d="M1987.1 878.71C2002.78 911.656 1959.84 948.064 1924.89 923.792C1921.76 921.608 1916.31 924.385 1918.87 927.848C1941.5 958.702 1910.82 990.774 1876.22 998.605C1842.3 1006.31 1785.65 1000.41 1783.59 961.323C1783.41 958.359 1778.17 956.425 1776.53 959.67C1768.98 974.77 1749.81 987.966 1729.96 981.883C1711.33 976.173 1704.6 955.177 1716.03 941.731C1717.67 939.765 1715.43 936.864 1712.86 936.926C1701.14 937.238 1688.88 937.082 1677.66 933.806C1656.64 927.629 1649.58 908.723 1666.72 893.592C1688.56 874.28 1725.79 881.237 1744.46 900.081C1745.11 900.768 1746.07 900.705 1746.85 900.331C1748.67 902.795 1754.01 902.265 1753.84 898.646C1752.34 867.822 1773.08 839.276 1804.43 825.486C1820.53 818.436 1838.95 816.096 1856.59 819.621C1880.25 824.332 1901.38 845.765 1885.31 866.481C1882.88 869.663 1888.37 873.313 1891.33 870.568C1918.37 845.172 1969.96 842.739 1987.1 878.71Z" fill="white"/>
<path d="M1892.88 128.52C1895.72 151.421 1858.94 161.865 1839.54 151.925C1845.37 164.249 1838.04 180.703 1823.47 185.673C1804.1 192.288 1783.66 175.397 1786.42 158.54C1786.58 157.466 1786.84 156.458 1787.19 155.417C1787.96 153.134 1791.6 154.108 1791.18 156.391C1788.3 171.066 1806.9 188.191 1823.66 179.494C1835.82 173.215 1837.81 159.01 1830.64 149.239C1828.76 146.687 1833.13 143.732 1835.4 146.015C1836.05 146.619 1836.58 147.291 1837.12 147.963C1837.73 146.888 1839.15 146.183 1840.69 147.022C1856.18 155.619 1892.46 147.325 1885.79 126.438C1882.68 116.8 1871.87 111.058 1860.74 111.461C1851 111.831 1843.18 116.431 1835.63 121.267C1834.4 122.509 1831.48 121.972 1831.22 119.856C1828.68 102.025 1813.15 85.5374 1791.26 85.4367C1769.93 85.3359 1757.2 99.4395 1751.06 115.491C1751.49 116.666 1749.99 118.043 1748.57 117.338C1747.54 117.405 1746.54 117.035 1746.12 116.23C1739.83 113.745 1731.74 113.913 1727.02 119.084C1717.01 129.997 1731.74 140.81 1743.62 137.956C1746.19 137.351 1748.65 140.474 1746.39 142.12C1736.49 149.272 1734.38 163.779 1744.28 172.039C1757.55 183.121 1778.83 172.174 1780.17 157.936C1780.48 154.746 1786.23 154.712 1785.92 157.936C1785.92 158.104 1785.89 158.305 1785.85 158.473C1783.85 174.356 1763.38 187.083 1745.85 179.024C1731.08 172.241 1728.78 154.746 1737.41 143.463C1725.72 142.623 1714.75 133.255 1718.54 122.173C1722.03 111.931 1736.11 107.935 1746.27 112.301C1749.53 93.3616 1771.93 78.6199 1793.56 79.6273C1815.3 80.6683 1832.86 96.4845 1835.74 114.752C1854.34 101.119 1889.74 103.1 1892.88 128.52Z" fill="#8ECDDD"/>
<path d="M1885.79 126.438C1892.46 147.325 1856.18 155.619 1840.69 147.022C1839.15 146.183 1837.73 146.888 1837.12 147.963C1836.58 147.291 1836.05 146.619 1835.4 146.015C1833.13 143.732 1828.76 146.687 1830.64 149.239C1837.81 159.01 1835.82 173.215 1823.66 179.494C1806.9 188.191 1788.3 171.066 1791.18 156.391C1791.6 154.108 1787.96 153.134 1787.19 155.417C1786.85 156.458 1786.58 157.466 1786.42 158.54L1785.85 158.473C1785.89 158.305 1785.92 158.104 1785.92 157.936C1786.23 154.712 1780.48 154.746 1780.17 157.936C1778.83 172.174 1757.55 183.121 1744.28 172.039C1734.38 163.779 1736.49 149.272 1746.39 142.12C1748.65 140.474 1746.19 137.351 1743.63 137.956C1731.74 140.81 1717.01 129.997 1727.02 119.084C1731.74 113.912 1739.83 113.745 1746.12 116.229C1746.54 117.035 1747.54 117.405 1748.57 117.338C1749.99 118.043 1751.49 116.666 1751.06 115.491C1757.2 99.4395 1769.93 85.3359 1791.26 85.4366C1813.15 85.5374 1828.68 102.025 1831.22 119.856C1831.48 121.972 1834.4 122.509 1835.63 121.266C1843.18 116.431 1851 111.831 1860.74 111.461C1871.87 111.058 1882.68 116.8 1885.79 126.438Z" fill="white"/>
</g>
<path d="M324.341 1253.11C449.756 1282.57 576.13 1302.44 703.343 1322.04C703.703 1322.1 704.003 1322.22 704.242 1322.43C706.161 1321.29 708.98 1323.09 707.66 1325.49C694.738 1349.13 677.678 1375.47 657.89 1393.99C657.111 1394.74 656.002 1394.77 655.072 1394.38C655.072 1395.49 654.293 1396.63 653.123 1396.48C655.642 1409.67 656.391 1423.3 657.681 1436.67C657.95 1439.4 654.113 1440.3 652.763 1438.2C652.674 1438.08 652.614 1437.96 652.554 1437.84C645.058 1433.88 638.162 1429.78 629.947 1427.14C629.917 1427.14 629.917 1427.11 629.917 1427.11C617.115 1446.74 603.413 1465.92 589.622 1484.77C588.902 1485.76 587.823 1485.91 586.803 1485.64C586.803 1486.75 585.424 1487.86 584.435 1487.14C557.961 1468.62 534.305 1445.54 508.67 1425.82C480.937 1404.54 452.664 1383.98 425.021 1362.65C398.157 1341.91 371.803 1320.42 347.308 1296.9C342.78 1292.55 304.913 1262.31 320.923 1254.61C321.523 1253.5 322.722 1252.69 324.341 1253.11ZM324.881 1260.63C434.195 1305.14 544.859 1346.58 653.573 1392.62C653.483 1392.17 653.573 1391.66 653.903 1391.15C660.979 1380.69 669.703 1371.25 677.229 1361.09C685.564 1349.85 693.209 1338.16 701.094 1326.63C574.481 1314.07 448.167 1288.72 324.401 1259.77C324.191 1259.92 323.922 1260.07 323.622 1260.19C323.562 1260.22 323.562 1260.31 323.562 1260.42C324.042 1260.39 324.461 1260.48 324.881 1260.63ZM387.483 1324.59C409.58 1343.26 432.516 1360.88 455.602 1378.26C478.059 1395.22 500.665 1411.92 522.822 1429.24C543.719 1445.54 566.835 1462.05 584.285 1482.25C584.375 1481.92 584.465 1481.56 584.704 1481.2C600.385 1457.89 616.425 1434.42 633.785 1412.31C634.295 1411.62 635.044 1411.47 635.734 1411.59C635.584 1411.29 635.464 1411.02 635.404 1410.75C581.796 1387.31 528.338 1363.43 474.791 1339.78C427.239 1318.77 378.159 1299.41 333.456 1272.59C342.091 1282.21 353.514 1294.23 355.253 1295.88C365.746 1305.74 376.51 1315.3 387.483 1324.59ZM640.171 1406.01C642.12 1406.88 642.18 1408.8 641.28 1410.21C644.638 1415.33 647.936 1420.55 651.234 1425.73C650.155 1415.54 649.136 1405.26 649.256 1395.1C551.874 1358.57 455.812 1318.47 359.09 1280.14C397.527 1300.43 437.973 1316.92 477.699 1334.42C531.876 1358.27 586.144 1381.95 640.171 1406.01ZM646.677 1428.73C643.679 1424.08 640.681 1419.47 637.743 1414.79C637.713 1414.88 637.713 1414.97 637.653 1415.06C636.034 1417.67 634.295 1420.25 632.616 1422.85C637.323 1424.47 642.18 1426.39 646.677 1428.73Z" fill="#8ECDDD"/>
<path d="M323.681 1260.19C323.621 1260.22 323.621 1260.31 323.621 1260.43C324.041 1260.43 324.461 1260.48 324.88 1260.66C434.194 1305.17 544.858 1346.61 653.572 1392.65C653.482 1392.2 653.572 1391.69 653.902 1391.18C660.978 1380.72 669.703 1371.28 677.228 1361.12C685.563 1349.88 693.208 1338.19 701.094 1326.66C574.48 1314.1 448.166 1288.75 324.401 1259.8C324.221 1259.92 323.981 1260.04 323.681 1260.19Z" fill="#E1F3F4"/>
<path d="M333.455 1272.59C342.09 1282.21 353.513 1294.23 355.252 1295.88C365.716 1305.77 376.509 1315.33 387.483 1324.62C409.579 1343.29 432.515 1360.91 455.601 1378.29C478.058 1395.25 500.664 1411.95 522.821 1429.27C543.718 1445.57 566.834 1462.08 584.284 1482.28C584.374 1481.95 584.464 1481.59 584.704 1481.23C600.384 1457.92 616.424 1434.45 633.784 1412.33C634.294 1411.65 635.043 1411.5 635.733 1411.62C635.583 1411.32 635.463 1411.05 635.403 1410.78C581.795 1387.34 528.338 1363.46 474.79 1339.81C427.269 1318.77 378.188 1299.41 333.455 1272.59Z" fill="#E1F3F4"/>
<path d="M359.09 1280.14C397.527 1300.43 437.972 1316.92 477.698 1334.42C531.846 1358.3 586.113 1381.95 640.17 1406.04C642.119 1406.91 642.179 1408.83 641.28 1410.24C644.638 1415.36 647.936 1420.58 651.234 1425.76C650.154 1415.57 649.135 1405.29 649.255 1395.13C551.874 1358.57 455.812 1318.47 359.09 1280.14Z" fill="#E1F3F4"/>
</svg>
