<svg width="67" height="68" viewBox="0 0 67 68" fill="none" xmlns="http://www.w3.org/2000/svg">
<g clip-path="url(#clip0_443_3010)">
<path d="M25.1212 13.0609C25.1212 10.7374 27.0048 8.85391 29.3282 8.85391V1.41626C29.3282 0.910357 28.9181 0.500244 28.4122 0.500244H20.9943C20.9943 0.507049 20.9948 0.513592 20.9948 0.520396C20.9948 2.84394 19.1112 4.72739 16.7878 4.72739C14.4643 4.72739 12.5808 2.8438 12.5808 0.520396C12.5808 0.513592 12.5813 0.507049 12.5813 0.500244H5.12301C4.61711 0.500244 4.207 0.910357 4.207 1.41626V8.85378C1.88359 8.85391 0 10.7374 0 13.0609C0 15.3845 1.88359 17.2679 4.207 17.2679V24.7054C4.207 25.2113 4.61711 25.6214 5.12301 25.6214H12.5807C12.5808 27.9449 14.4643 29.8283 16.7877 29.8283C19.1111 29.8283 20.9946 27.9449 20.9947 25.6214H28.4121C28.918 25.6214 29.3281 25.2113 29.3281 24.7054V17.2679C27.0048 17.2679 25.1212 15.3843 25.1212 13.0609Z" fill="#EF6074"/>
<path d="M2.69583 13.0609C2.69583 10.7374 4.57942 8.85391 6.90283 8.85391V0.500244H5.12301C4.61711 0.500244 4.207 0.910357 4.207 1.41626V8.85378C1.88359 8.85391 0 10.7374 0 13.0609C0 15.3845 1.88359 17.2679 4.207 17.2679V24.7054C4.207 25.2113 4.61711 25.6214 5.12301 25.6214H6.90283V17.2679C4.57929 17.2679 2.69583 15.3843 2.69583 13.0609Z" fill="#E2546C"/>
<path d="M18.1367 4.50611C18.56 4.64927 19.011 4.72739 19.4826 4.72739C21.8061 4.72739 23.6896 2.8438 23.6896 0.520396C23.6896 0.513592 23.6891 0.507049 23.6891 0.500244H20.9932C20.9932 0.507049 20.9938 0.513592 20.9938 0.520396C20.9939 2.37219 19.7989 3.94407 18.1367 4.50611Z" fill="#E2546C"/>
<path d="M15.2758 25.6213H12.5801C12.5802 27.9447 14.4637 29.8282 16.7871 29.8282C17.2587 29.8282 17.7134 29.7502 18.1366 29.6071C16.4746 29.045 15.2759 27.4731 15.2758 25.6213Z" fill="#E2546C"/>
<path d="M62.7929 21.4244V13.9869C62.7929 13.481 62.3828 13.0709 61.8769 13.0709H54.4389C54.428 10.7568 52.5491 8.88403 50.2324 8.88403C47.9156 8.88403 46.0368 10.7568 46.0259 13.0709H38.5879C38.082 13.0709 37.6718 13.481 37.6718 13.9869V21.4244C35.3483 21.4244 33.4648 23.308 33.4648 25.6314C33.4648 27.9548 35.3484 29.8384 37.6718 29.8384V38.192H62.793V29.8384C60.4695 29.8384 58.5861 27.9548 58.5861 25.6314C58.5861 23.308 60.4694 21.4244 62.7929 21.4244Z" fill="#8AF9BA"/>
<path d="M51.5817 9.10532C51.1583 8.96216 50.7035 8.88403 50.2319 8.88403C47.9151 8.88403 46.0363 10.7568 46.0254 13.0709H48.7212C48.7297 11.2279 49.9258 9.66526 51.5817 9.10532Z" fill="#77EDA6"/>
<path d="M36.1605 25.6315C36.1605 23.3079 38.0441 21.4245 40.3675 21.4245V13.0708H38.5879C38.082 13.0708 37.6718 13.4809 37.6718 13.9868V21.4243C35.3483 21.4243 33.4648 23.3079 33.4648 25.6313C33.4648 27.9547 35.3484 29.8383 37.6718 29.8383V38.1919H40.3677V29.8383C38.0441 29.8385 36.1605 27.9549 36.1605 25.6315Z" fill="#77EDA6"/>
<path d="M52.9279 33.9849C52.4563 33.9849 52.0054 34.063 51.582 34.2061C53.2441 34.7682 54.4392 36.3401 54.4392 38.192V38.1921H57.135C57.135 38.192 57.135 38.192 57.135 38.192C57.1349 35.8683 55.2513 33.9849 52.9279 33.9849Z" fill="#77EDA6"/>
<path d="M62.7931 46.5457V38.1919H54.4395C54.4395 35.8683 52.556 33.9849 50.2325 33.9849C47.909 33.9849 46.0255 35.8685 46.0255 38.1919H37.6719V63.3131H46.0259C46.0259 63.3063 46.0254 63.2996 46.0254 63.2928C46.0254 60.9694 47.909 59.0858 50.2324 59.0858C52.5558 59.0858 54.4394 60.9694 54.4394 63.2928C54.4394 63.2996 54.4389 63.3063 54.4389 63.3131H61.8769C62.3828 63.3131 62.7929 62.903 62.7929 62.3971V54.9597C65.1164 54.9597 66.9999 53.0761 66.9999 50.7527C67.0001 48.4291 65.1165 46.5457 62.7931 46.5457Z" fill="#FFE04A"/>
<path d="M51.5823 34.2059C51.159 34.0627 50.704 33.9846 50.2324 33.9846C47.9088 33.9846 46.0254 35.8682 46.0254 38.1916H48.7212C48.7212 36.3398 49.9202 34.7679 51.5823 34.2059Z" fill="#FFCB39"/>
<path d="M44.5747 50.7524C44.5747 48.429 42.6911 46.5455 40.3677 46.5455V38.1917H37.6719V46.5455C39.9954 46.5455 41.8789 48.429 41.8789 50.7524C41.8789 53.076 39.9953 54.9594 37.6719 54.9594V63.3129H40.3677V54.9594C42.6911 54.9594 44.5747 53.0759 44.5747 50.7524Z" fill="#FFCB39"/>
<path d="M52.9279 59.0854C52.4563 59.0854 52.0054 59.1636 51.582 59.3067C53.2441 59.8688 54.4392 61.4407 54.4392 63.2926C54.4392 63.2994 54.4387 63.3061 54.4387 63.3129H57.1345C57.1345 63.3061 57.135 63.2994 57.135 63.2926C57.1349 60.969 55.2513 59.0854 52.9279 59.0854Z" fill="#FFCB39"/>
<path d="M37.6719 46.5457V38.1921H29.3183C29.3182 40.5155 27.4347 42.399 25.1113 42.399C22.7879 42.399 20.9045 40.5155 20.9043 38.1921H13.4668C12.9609 38.1921 12.5508 38.6023 12.5508 39.1082V46.5457C14.8743 46.5457 16.7578 48.4293 16.7578 50.7527C16.7578 53.0762 14.8742 54.9597 12.5508 54.9597V62.3972C12.5508 62.9031 12.9609 63.3132 13.4668 63.3132H20.925C20.9361 65.6272 22.8149 67.4997 25.1315 67.4997C27.4481 67.4997 29.3268 65.6272 29.3379 63.3132H37.6719V54.9597C39.9954 54.9597 41.8789 53.0761 41.8789 50.7527C41.8789 48.4291 39.9953 46.5457 37.6719 46.5457Z" fill="#01D0FB"/>
<path d="M27.807 42.3988C30.1304 42.3988 32.0138 40.5153 32.014 38.1919H29.3181C29.318 40.0437 28.123 41.6154 26.4609 42.1775C26.8843 42.3206 27.3353 42.3988 27.807 42.3988Z" fill="#08A9F1"/>
<path d="M23.6216 63.313H20.9258C20.9369 65.627 22.8157 67.4994 25.1323 67.4994C25.6039 67.4994 26.0591 67.4213 26.4823 67.2782C24.8266 66.7182 23.6304 65.1559 23.6216 63.313Z" fill="#08A9F1"/>
<path d="M19.4536 50.7527C19.4536 48.4293 17.57 46.5457 15.2466 46.5457V38.1921H13.4668C12.9609 38.1921 12.5508 38.6023 12.5508 39.1082V46.5457C14.8743 46.5457 16.7578 48.4293 16.7578 50.7527C16.7578 53.0762 14.8742 54.9597 12.5508 54.9597V62.3972C12.5508 62.9031 12.9609 63.3132 13.4668 63.3132H15.2466V54.9597C17.57 54.9597 19.4536 53.0761 19.4536 50.7527Z" fill="#08A9F1"/>
</g>
<defs>
<clipPath id="clip0_443_3010">
<rect width="67" height="67" fill="white" transform="translate(0 0.5)"/>
</clipPath>
</defs>
</svg>
