<svg width="430" height="131" viewBox="0 0 430 131" fill="none" xmlns="http://www.w3.org/2000/svg">
<path opacity="0.26" d="M443.904 5.66274C443.405 4.45635 442.899 3.24997 442.401 2.04358C436.707 6.01035 430.965 9.80331 425.183 13.4634C424.337 14.0052 423.483 14.5471 422.629 15.0787C421.348 15.8761 420.058 16.6634 418.769 17.4506C417.986 17.9311 417.203 18.4116 416.42 18.8819C414.918 19.7816 413.407 20.671 411.904 21.5503C411.327 21.8876 410.758 22.2352 410.188 22.5624C408.108 23.7688 406.02 24.9547 403.924 26.1304C403.458 26.386 402.999 26.6416 402.532 26.8972C400.895 27.8071 399.266 28.7068 397.621 29.586C396.854 29.995 396.087 30.3937 395.312 30.8026C393.975 31.5081 392.63 32.2237 391.286 32.9189C390.424 33.3688 389.562 33.7982 388.7 34.2378C387.442 34.8716 386.185 35.5157 384.927 36.1394C384.026 36.5892 383.116 37.0288 382.207 37.4684C380.91 38.1023 379.612 38.7362 378.315 39.3496C377.406 39.779 376.496 40.1981 375.587 40.6275C374.393 41.1898 373.198 41.7419 371.996 42.2838C371.878 42.3349 371.751 42.3962 371.632 42.4473C370.786 42.8256 369.948 43.2039 369.102 43.5822C367.884 44.124 366.666 44.6659 365.448 45.1975C364.507 45.6064 363.557 46.0154 362.616 46.4141C361.398 46.9355 360.18 47.4467 358.962 47.9477C358.013 48.3362 357.064 48.7349 356.115 49.1131C354.889 49.6141 353.663 50.1048 352.43 50.5854C351.488 50.9534 350.555 51.3317 349.614 51.6895C348.357 52.1802 347.099 52.6505 345.842 53.1208C344.924 53.4684 344.015 53.816 343.097 54.1432C341.784 54.6237 340.471 55.094 339.159 55.5643C338.296 55.871 337.427 56.1879 336.564 56.4844C335.125 56.9853 333.686 57.4659 332.246 57.9566C331.503 58.2122 330.759 58.4678 330.008 58.7131C328.474 59.2243 326.931 59.7048 325.389 60.1956C324.685 60.4205 323.981 60.6454 323.278 60.8703C323.111 60.9214 322.945 60.9726 322.779 61.0237C320.802 61.6371 318.817 62.2403 316.832 62.8128C316.761 62.8333 316.689 62.8537 316.618 62.8741C314.42 63.5182 312.221 64.1317 310.014 64.7348C309.295 64.9291 308.567 65.1131 307.847 65.3074C306.36 65.7061 304.881 66.1048 303.395 66.4831C302.525 66.708 301.655 66.9125 300.785 67.1272C299.44 67.4646 298.104 67.7917 296.759 68.1086C295.834 68.3336 294.9 68.538 293.967 68.7527C292.678 69.0492 291.389 69.3457 290.1 69.6217C289.143 69.8364 288.178 70.0307 287.213 70.2352C285.948 70.501 284.69 70.7668 283.425 71.0122C282.444 71.2064 281.471 71.4007 280.49 71.5847C279.162 71.8403 277.841 72.0856 276.512 72.331C275.532 72.5048 274.551 72.6786 273.57 72.8524C272.313 73.0671 271.055 73.2818 269.806 73.4863C268.825 73.6498 267.844 73.8032 266.856 73.9566C265.598 74.1508 264.333 74.3451 263.067 74.5291C262.094 74.6722 261.114 74.8153 260.141 74.9482C258.86 75.122 257.586 75.2958 256.305 75.4594C255.348 75.5821 254.383 75.7048 253.426 75.8275C252.113 75.9911 250.793 76.1342 249.472 76.2773C248.547 76.3796 247.629 76.4818 246.704 76.584C245.304 76.7272 243.912 76.8601 242.512 76.9827C241.666 77.0645 240.827 77.1463 239.981 77.2179C238.328 77.361 236.675 77.4837 235.03 77.5962C234.445 77.6371 233.852 77.6882 233.267 77.7291C228.822 78.0256 224.369 78.2505 219.916 78.3936C219.323 78.4141 218.722 78.4243 218.129 78.4447C218.018 78.4447 217.908 78.4447 217.797 78.4549C216.144 78.4958 214.499 78.547 212.846 78.5674C212 78.5776 211.161 78.5776 210.315 78.5879C208.915 78.5981 207.507 78.6083 206.108 78.6083C205.182 78.6083 204.257 78.5879 203.332 78.5776C202.011 78.5674 200.69 78.547 199.369 78.5265C198.404 78.5061 197.439 78.4754 196.482 78.4549C195.193 78.4141 193.912 78.3834 192.623 78.3323C191.642 78.2914 190.661 78.2505 189.681 78.2096C188.407 78.1482 187.142 78.0869 185.869 78.0153C184.88 77.9642 183.899 77.9029 182.911 77.8415C181.637 77.7597 180.372 77.6677 179.099 77.5757C178.118 77.5042 177.137 77.4326 176.157 77.3508C174.82 77.2383 173.476 77.1259 172.139 77.0032C171.158 76.9112 170.17 76.8192 169.189 76.7272C167.916 76.6045 166.642 76.4613 165.369 76.3182C164.396 76.216 163.423 76.1035 162.458 75.9911C161.153 75.8377 159.856 75.6741 158.551 75.5105C157.61 75.3879 156.677 75.2754 155.736 75.1425C154.376 74.9585 153.015 74.7642 151.655 74.5597C150.777 74.4268 149.899 74.3042 149.021 74.1713C147.519 73.9361 146.008 73.6907 144.505 73.4454C143.778 73.3227 143.05 73.2102 142.315 73.0875C140.084 72.7093 137.854 72.3105 135.624 71.8812C135.568 71.8709 135.505 71.8607 135.45 71.8505C133.283 71.4415 131.108 71.0122 128.941 70.5623C128.205 70.409 127.462 70.2454 126.726 70.0818C125.16 69.7444 123.594 69.4173 122.028 69.0594C121.261 68.8856 120.502 68.7016 119.735 68.5278C118.366 68.2109 117.006 67.894 115.638 67.5566C115.219 67.4543 114.807 67.3521 114.388 67.2499C113.827 67.1067 113.265 66.9636 112.696 66.8205C111.367 66.4831 110.03 66.1457 108.702 65.7981C107.761 65.5527 106.827 65.2971 105.894 65.0416C104.613 64.694 103.34 64.3463 102.058 63.9885C101.093 63.7227 100.137 63.4364 99.1795 63.1604C97.9299 62.8026 96.6724 62.4345 95.4228 62.0563C94.45 61.77 93.4851 61.4735 92.5203 61.1668C91.2786 60.7885 90.0369 60.4 88.7952 60.0013C87.8303 59.6946 86.8575 59.3777 85.8926 59.0607C84.6509 58.6518 83.4092 58.2428 82.1675 57.8237C81.2106 57.4965 80.2457 57.1796 79.2887 56.8422C78.0312 56.4026 76.7737 55.963 75.5241 55.5131C74.5829 55.1758 73.6497 54.8486 72.7164 54.501C71.3877 54.0205 70.059 53.5195 68.7304 53.0186C67.7971 52.671 66.8639 52.3131 65.9306 51.9553C64.6415 51.4544 63.3523 50.9534 62.0711 50.4422C61.1853 50.0946 60.2916 49.747 59.4058 49.379C58.0297 48.8167 56.6535 48.2441 55.2774 47.6716C54.4865 47.3445 53.6877 47.0173 52.8968 46.6799C51.2201 45.9643 49.5434 45.2384 47.8667 44.5023C47.3843 44.2876 46.894 44.0831 46.4036 43.8684C44.2524 42.9074 42.1012 41.9362 39.95 40.9342C39.3489 40.6582 38.7478 40.3617 38.1388 40.0755C36.5966 39.3496 35.0465 38.6237 33.5042 37.8774C32.6896 37.4889 31.8829 37.0799 31.0683 36.6812C29.7396 36.0269 28.4109 35.3726 27.0822 34.6978C26.2043 34.2582 25.3264 33.7982 24.4407 33.3483C18.4615 30.2812 12.5062 27.0608 6.59823 23.6768C6.17115 24.9241 5.74407 26.1816 5.30908 27.4288C10.9797 30.68 16.69 33.7675 22.4318 36.7323C24.4169 49.4403 26.6868 62.1687 29.2334 74.8971H29.2255C29.3125 75.3367 29.4074 75.7764 29.4944 76.216C29.8899 78.1687 30.2932 80.1316 30.7045 82.0843C30.8943 82.9942 31.0841 83.9041 31.2739 84.814C31.875 87.6664 32.4919 90.5086 33.1246 93.361C45.4071 81.7981 57.1597 69.7035 68.3745 57.1591C69.8613 57.7214 71.3482 58.2837 72.8351 58.8154C75.8009 71.1553 79.0514 83.4748 82.5788 95.7533H82.5709C82.6895 96.1827 82.824 96.6019 82.9426 97.0313C83.4883 98.9227 84.0419 100.804 84.6035 102.685C84.8645 103.564 85.1176 104.443 85.3865 105.323C86.209 108.073 87.0394 110.813 87.8936 113.553C99.0846 100.354 109.714 86.7054 119.79 72.6786C121.301 73.0262 122.811 73.3636 124.33 73.6907C128.253 85.5501 132.46 97.3584 136.944 109.095H136.937C137.095 109.504 137.253 109.913 137.411 110.312C138.099 112.111 138.803 113.91 139.507 115.7C139.839 116.538 140.163 117.376 140.495 118.215C141.524 120.822 142.568 123.429 143.627 126.036C143.627 126.046 143.635 126.056 143.635 126.056C144.996 124.073 146.34 122.069 147.677 120.075C151.687 114.074 155.594 108.011 159.414 101.898C163.226 95.784 166.951 89.6089 170.573 83.393C171.024 82.616 171.467 81.839 171.917 81.062C173.444 81.2051 174.97 81.338 176.497 81.4607C181.345 92.7169 186.462 103.881 191.856 114.943H191.848C192.038 115.321 192.227 115.71 192.417 116.088C193.248 117.785 194.094 119.482 194.932 121.179C195.328 121.967 195.715 122.754 196.111 123.541C197.352 126.005 198.602 128.459 199.867 130.912C203.426 124.431 206.883 117.898 210.236 111.324C214.712 102.562 219.015 93.729 223.135 84.8243C223.523 83.9859 223.895 83.1578 224.282 82.3195C225.809 82.2479 227.335 82.1764 228.861 82.0946C234.587 92.6351 240.582 103.043 246.838 113.318H246.83C247.044 113.675 247.265 114.023 247.487 114.381C248.452 115.955 249.424 117.53 250.405 119.104C250.856 119.83 251.307 120.566 251.765 121.292C253.197 123.572 254.636 125.852 256.1 128.111C257.104 125.801 258.093 123.49 259.073 121.169C262.015 114.217 264.855 107.234 267.599 100.231C270.684 92.3489 273.626 84.4358 276.449 76.492C277.968 76.216 279.478 75.9297 280.997 75.6332C287.553 85.3354 294.371 94.8741 301.441 104.239C301.441 104.239 301.433 104.239 301.433 104.249C301.678 104.576 301.924 104.893 302.169 105.21C303.26 106.652 304.359 108.083 305.467 109.525C305.973 110.179 306.479 110.843 306.985 111.498C308.599 113.573 310.22 115.638 311.857 117.703C314.064 111.099 316.183 104.474 318.224 97.8389C318.651 96.4587 319.07 95.0786 319.489 93.6984C320.557 90.161 321.601 86.6134 322.629 83.0658C323.531 79.9476 324.416 76.8294 325.278 73.701C326.212 70.3272 327.113 66.9534 327.999 63.5694C329.486 63.0888 330.981 62.6083 332.468 62.1074C339.799 70.8588 347.376 79.4057 355.198 87.7482C355.198 87.7482 355.19 87.7482 355.19 87.7585C355.459 88.0447 355.736 88.331 356.012 88.6172C357.214 89.8952 358.425 91.1629 359.643 92.4306C360.204 93.0236 360.773 93.6166 361.335 94.1993C363.115 96.0396 364.902 97.8696 366.705 99.6894C367.322 97.154 367.923 94.6185 368.516 92.083C371.363 79.9169 373.942 67.7406 376.267 55.5745C376.481 54.4601 376.686 53.3457 376.9 52.2416C377.438 49.3687 377.959 46.4959 378.466 43.6128C379.921 42.9279 381.368 42.2224 382.816 41.517C390.859 49.2052 399.132 56.648 407.634 63.8454L407.626 63.8556C407.918 64.101 408.219 64.3463 408.511 64.5917C409.824 65.6959 411.137 66.7898 412.458 67.8837C413.067 68.3847 413.676 68.8959 414.293 69.3968C416.223 70.9815 418.16 72.5457 420.114 74.1099C420.944 68.8959 421.727 63.6818 422.463 58.4678C423.198 53.2537 423.886 48.0499 424.535 42.8563C425.183 37.6525 425.777 32.4691 426.338 27.2755C426.718 23.7074 427.074 20.1496 427.406 16.5918C432.934 13.1158 438.447 9.46593 443.904 5.66274Z" fill="#2A282B"/>
<path d="M435.06 0.111328C300.198 93.9949 139.332 102 -0.710861 21.7956C-1.13794 23.0429 -1.56501 24.3004 -2 25.5477C138.944 106.273 300.839 98.2172 436.563 3.73049C436.065 2.5241 435.559 1.31772 435.06 0.111328Z" fill="#075893"/>
<path d="M63.9049 52.0682C51.8359 65.7679 39.1343 78.9257 25.8078 91.4701C21.2681 70.9922 17.456 50.4938 14.3716 30.0568C30.656 38.5526 47.1934 45.8932 63.9049 52.0682Z" fill="#FFAD1D"/>
<path opacity="0.45" d="M21.9165 73.0061C23.1503 79.1607 24.4474 85.3153 25.8156 91.4699C39.1341 78.9256 51.8437 65.7677 63.9126 52.0681C60.2587 50.7186 56.6207 49.3179 52.9826 47.856C48.4824 56.362 37.7738 72.6074 21.9165 73.0061Z" fill="#FF8F1F"/>
<path d="M115.028 67.2191C104.209 82.5034 92.7171 97.3481 80.577 111.671C74.4555 91.9501 69.0616 72.1162 64.4033 52.2517C81.1227 58.4063 98.0239 63.3852 115.028 67.2191Z" fill="#075893"/>
<path d="M75.2544 93.8621C76.9627 99.802 78.7343 105.742 80.5771 111.661C92.7172 97.3381 104.209 82.5037 115.028 67.2091C111.311 66.3708 107.602 65.4813 103.9 64.5305C100.144 73.6193 90.8744 91.2449 75.2544 93.8621Z" fill="#064972"/>
<path d="M166.83 75.2753C157.347 91.95 147.168 108.277 136.309 124.175C128.661 105.404 121.741 86.4395 115.533 67.3315C132.545 71.1347 149.667 73.7826 166.83 75.2753Z" fill="#FFAD1D"/>
<path opacity="0.45" d="M129.609 107.204C131.776 112.878 134.006 118.532 136.308 124.175C147.167 108.267 157.345 91.9501 166.828 75.2652C163.079 74.938 159.33 74.5597 155.59 74.1201C152.6 83.669 144.841 102.46 129.609 107.204Z" fill="#FF8F1F"/>
<path d="M218.865 76.2464C210.798 94.1173 202.011 111.733 192.536 129.021C183.433 111.395 175.034 93.4732 167.346 75.316C184.501 76.778 201.702 77.095 218.865 76.2464Z" fill="#12A1F9"/>
<path d="M184.516 113.052C187.126 118.398 189.791 123.725 192.528 129.021C202.011 111.733 210.789 94.1174 218.856 76.2465C215.108 76.4305 211.359 76.5634 207.602 76.635C205.419 86.5314 199.235 106.263 184.516 113.052Z" fill="#097FD6"/>
<path d="M270.691 70.174C264.103 89.0365 256.795 107.746 248.768 126.22C238.289 109.923 228.482 93.2384 219.378 76.2161C236.533 75.3573 253.663 73.3433 270.691 70.174Z" fill="#FF76D8"/>
<path d="M239.499 111.426C242.528 116.395 245.613 121.323 248.76 126.22C256.788 107.746 264.096 89.0365 270.684 70.174C266.967 70.8692 263.241 71.503 259.516 72.0858C258.14 82.2174 253.585 102.685 239.499 111.426Z" fill="#F451BD"/>
<path d="M321.859 57.0673C316.813 76.7375 311.031 96.3362 304.522 115.812C292.754 101.039 281.634 85.765 271.187 70.0819C288.206 66.8922 305.123 62.5471 321.859 57.0673Z" fill="#12A1F9"/>
<path d="M294.099 102.358C297.515 106.887 300.995 111.365 304.53 115.802C311.039 96.3362 316.813 76.7273 321.867 57.057C318.213 58.2532 314.543 59.3982 310.873 60.4819C310.312 70.7669 307.425 91.7458 294.099 102.358Z" fill="#097FD6"/>
<path d="M371.948 36.9471C368.484 57.2206 364.284 77.5247 359.349 97.7982C346.394 84.7221 334.056 71.0736 322.351 56.9037C339.094 51.3931 355.647 44.7478 371.948 36.9471Z" fill="#FFAD1D"/>
<path opacity="0.45" d="M347.842 85.857C351.622 89.8851 355.458 93.8723 359.349 97.7982C364.284 77.5247 368.476 57.2206 371.948 36.9471C368.389 38.6545 364.814 40.3005 361.232 41.8954C361.5 52.1906 360.298 73.4659 347.842 85.857Z" fill="#FF8F1F"/>
<path d="M420.503 9.84412C418.644 30.5265 416.066 51.3418 412.752 72.2184C398.73 61.0338 385.277 49.1846 372.433 36.722C388.733 28.901 404.78 19.9451 420.503 9.84412Z" fill="#075893"/>
<path d="M400.271 61.9643C404.384 65.4403 408.544 68.8652 412.76 72.2186C416.073 51.3522 418.652 30.5369 420.51 9.84424C417.078 12.0525 413.622 14.1995 410.158 16.2953C411.257 26.5087 411.755 47.8659 400.271 61.9643Z" fill="#064972"/>
</svg>
