<svg width="589" height="320" viewBox="0 0 589 320" fill="none" xmlns="http://www.w3.org/2000/svg">
<path opacity="0.26" d="M44.4718 6.04036C45.426 4.70488 46.3899 3.37212 47.344 2.03663C53.2459 8.95211 59.2553 15.6668 65.3509 22.2291C66.2414 23.1973 67.1416 24.1682 68.0448 25.1264C69.3995 26.5636 70.7669 27.9907 72.1342 29.4179C72.964 30.2877 73.7939 31.1575 74.6265 32.0145C76.2255 33.6556 77.8369 35.2867 79.4416 36.9023C80.0582 37.5225 80.6623 38.1528 81.2721 38.7575C83.4963 40.9805 85.7359 43.1808 87.9883 45.3709C88.4915 45.8508 88.9849 46.328 89.4882 46.808C91.2499 48.5082 93.0047 50.1929 94.7849 51.8575C95.6154 52.6324 96.4488 53.3946 97.289 54.1723C98.7379 55.5136 100.194 56.8704 101.655 58.2017C102.591 59.0604 103.533 59.8935 104.472 60.7395C105.843 61.9642 107.212 63.2016 108.586 64.4136C109.571 65.2859 110.568 66.1481 111.566 67.0104C112.986 68.2487 114.406 69.487 115.832 70.6998C116.833 71.5493 117.836 72.386 118.836 73.2355C120.15 74.349 121.466 75.4498 122.795 76.5405C122.927 76.6452 123.066 76.7654 123.198 76.8701C124.134 77.6339 125.061 78.395 125.998 79.1589C127.347 80.255 128.695 81.3512 130.047 82.4346C131.092 83.2694 132.147 84.107 133.195 84.929C134.549 85.9996 135.906 87.0575 137.267 88.1025C138.327 88.9145 139.385 89.7393 140.448 90.5386C141.818 91.5864 143.191 92.6214 144.577 93.6464C145.633 94.4301 146.677 95.2239 147.736 95.9949C149.148 97.0408 150.566 98.0612 151.984 99.0815C153.017 99.8316 154.04 100.579 155.079 101.303C156.562 102.356 158.048 103.395 159.533 104.434C160.51 105.114 161.493 105.81 162.472 106.477C164.105 107.598 165.744 108.694 167.38 109.802C168.225 110.378 169.069 110.953 169.926 111.518C171.674 112.685 173.439 113.816 175.202 114.96C176.007 115.483 176.811 116.006 177.615 116.53C177.806 116.651 177.996 116.772 178.186 116.893C180.451 118.34 182.728 119.776 185.014 121.175C185.096 121.225 185.178 121.275 185.26 121.325C187.789 122.887 190.326 124.41 192.876 125.923C193.709 126.413 194.554 126.894 195.386 127.384C197.107 128.394 198.818 129.401 200.544 130.386C201.553 130.966 202.568 131.521 203.58 132.089C205.142 132.973 206.698 133.842 208.266 134.7C209.343 135.3 210.436 135.877 211.526 136.466C213.032 137.28 214.537 138.094 216.049 138.883C217.168 139.481 218.303 140.055 219.435 140.643C220.92 141.411 222.395 142.176 223.886 142.918C225.04 143.498 226.184 144.076 227.341 144.643C228.907 145.42 230.466 146.181 232.035 146.945C233.195 147.499 234.355 148.054 235.515 148.609C237.005 149.31 238.494 150.011 239.977 150.697C241.14 151.239 242.306 151.768 243.481 152.3C244.977 152.975 246.482 153.653 247.99 154.319C249.149 154.833 250.318 155.349 251.479 155.85C253.01 156.508 254.53 157.164 256.064 157.809C257.209 158.292 258.364 158.777 259.509 159.26C261.081 159.916 262.669 160.55 264.257 161.183C265.369 161.629 266.471 162.073 267.583 162.519C269.268 163.18 270.947 163.825 272.638 164.46C273.658 164.854 274.668 165.244 275.691 165.625C277.689 166.373 279.692 167.095 281.688 167.802C282.398 168.054 283.115 168.323 283.825 168.575C289.221 170.476 294.646 172.289 300.095 174.001C300.82 174.231 301.558 174.45 302.284 174.68C302.42 174.718 302.557 174.756 302.69 174.807C304.717 175.427 306.73 176.057 308.762 176.652C309.802 176.956 310.836 177.245 311.876 177.549C313.599 178.043 315.331 178.541 317.057 179.023C318.198 179.341 319.344 179.634 320.488 179.94C322.119 180.382 323.753 180.811 325.387 181.24C326.582 181.547 327.78 181.841 328.966 182.145C330.566 182.537 332.154 182.94 333.758 183.32C334.978 183.606 336.199 183.893 337.419 184.179C339.006 184.541 340.584 184.9 342.173 185.249C343.407 185.526 344.633 185.787 345.869 186.05C347.461 186.386 349.047 186.707 350.643 187.031C351.872 187.279 353.101 187.527 354.333 187.762C356.013 188.082 357.702 188.404 359.384 188.711C360.619 188.934 361.863 189.159 363.098 189.382C364.703 189.667 366.313 189.927 367.923 190.186C369.151 190.393 370.382 190.588 371.603 190.779C373.255 191.037 374.9 191.279 376.554 191.524C377.749 191.695 378.931 191.876 380.129 192.033C381.858 192.272 383.589 192.498 385.324 192.71C386.444 192.847 387.56 192.996 388.68 193.132C390.599 193.355 392.53 193.569 394.452 193.78C395.383 193.877 396.312 193.987 397.253 194.087C400.109 194.382 402.971 194.652 405.841 194.883C405.912 194.889 405.993 194.898 406.064 194.905C408.851 195.14 411.653 195.352 414.451 195.536C415.401 195.598 416.364 195.649 417.317 195.698C419.342 195.816 421.365 195.946 423.396 196.038C424.391 196.085 425.378 196.117 426.373 196.164C428.149 196.239 429.915 196.311 431.697 196.361C432.243 196.377 432.778 196.391 433.324 196.408C434.056 196.422 434.789 196.437 435.531 196.454C437.264 196.49 439.007 196.529 440.743 196.552C441.972 196.569 443.195 196.571 444.417 196.573C446.095 196.58 447.762 196.584 449.443 196.578C450.707 196.578 451.967 196.55 453.225 196.535C454.866 196.518 456.52 196.491 458.167 196.449C459.447 196.426 460.72 196.388 461.996 196.337C463.633 196.292 465.273 196.234 466.916 196.163C468.192 196.112 469.481 196.051 470.759 195.988C472.405 195.904 474.051 195.821 475.7 195.725C476.972 195.645 478.251 195.582 479.525 195.49C481.199 195.373 482.874 195.257 484.541 195.125C485.796 195.028 487.039 194.94 488.287 194.827C490.06 194.685 491.839 194.516 493.619 194.348C494.867 194.235 496.118 194.109 497.37 193.983C499.1 193.801 500.83 193.619 502.554 193.422C503.744 193.293 504.943 193.166 506.139 193.011C507.994 192.783 509.852 192.541 511.709 192.3C512.777 192.163 513.853 192.03 514.923 191.88C517.192 191.564 519.464 191.234 521.738 190.892C522.393 190.79 523.055 190.703 523.72 190.604C526.643 190.144 529.568 189.671 532.503 189.16C533.321 189.022 534.146 188.858 534.977 188.71C537.083 188.335 539.198 187.962 541.31 187.56C542.424 187.355 543.533 187.122 544.65 186.904C546.472 186.544 548.295 186.185 550.123 185.799C551.329 185.552 552.541 185.28 553.759 185.023C561.994 183.25 570.243 181.277 578.48 179.083C578.655 180.788 578.827 182.506 579.012 184.214C571.105 186.323 563.196 188.214 555.282 189.941C549.254 205.133 542.869 220.251 536.143 235.275L536.153 235.277C535.921 235.797 535.681 236.313 535.449 236.832C534.412 239.136 533.361 241.449 532.304 243.747C531.814 244.818 531.323 245.889 530.833 246.96C529.288 250.317 527.727 253.655 526.143 257C514.26 238.328 503.181 219.174 492.891 199.643C490.899 199.833 488.908 200.024 486.925 200.176C479.792 214.57 472.313 228.84 464.505 242.964L464.514 242.967C464.247 243.462 463.963 243.94 463.696 244.435C462.49 246.61 461.278 248.769 460.055 250.926C459.486 251.934 458.926 252.946 458.347 253.951C456.558 257.104 454.762 260.241 452.937 263.369C442.861 243.029 433.603 222.32 425.135 201.33C423.175 201.244 421.218 201.145 419.254 201.031C411.076 214.496 402.562 227.798 393.726 240.915L393.736 240.918C393.426 241.375 393.116 241.831 392.808 242.275C391.453 244.285 390.078 246.291 388.706 248.283C388.061 249.216 387.425 250.152 386.779 251.085C384.777 253.988 382.755 256.885 380.714 259.777C380.711 259.789 380.699 259.8 380.699 259.8C379.581 256.854 378.488 253.888 377.402 250.937C374.15 242.06 371.042 233.142 368.056 224.19C365.079 215.24 362.227 206.244 359.514 197.232C359.177 196.106 358.85 194.983 358.513 193.858C356.591 193.511 354.672 193.151 352.756 192.779C343.607 205.171 334.153 217.356 324.387 229.318L324.397 229.32C324.056 229.728 323.713 230.148 323.372 230.555C321.87 232.389 320.349 234.218 318.837 236.049C318.128 236.896 317.428 237.746 316.719 238.593C314.494 241.244 312.262 243.879 310.011 246.508C307.45 237.186 305.03 227.836 302.749 218.469C299.7 205.983 296.885 193.468 294.315 180.926C294.073 179.745 293.848 178.583 293.607 177.402C291.745 176.787 289.884 176.172 288.025 175.545C277.996 186.741 267.673 197.678 257.066 208.36L257.076 208.362C256.712 208.736 256.341 209.094 255.967 209.465C254.334 211.099 252.691 212.731 251.038 214.36C250.278 215.112 249.515 215.876 248.745 216.625C246.338 218.98 243.921 221.333 241.48 223.651C240.893 220.419 240.326 217.193 239.771 213.956C238.103 204.259 236.57 194.559 235.161 184.866C233.58 173.957 232.183 163.06 230.941 152.164C229.146 151.297 227.365 150.419 225.577 149.526C214.76 159.389 203.668 168.958 192.313 178.222C192.313 178.222 192.323 178.225 192.32 178.238C191.925 178.562 191.534 178.873 191.142 179.185C189.391 180.61 187.632 182.019 185.861 183.439C185.053 184.082 184.241 184.738 183.433 185.381C180.859 187.418 178.279 189.44 175.679 191.456C174.819 182.446 174.073 173.441 173.428 164.45C173.29 162.579 173.162 160.71 173.035 158.842C172.715 154.056 172.428 149.265 172.16 144.479C171.927 140.274 171.714 136.073 171.533 131.869C171.333 127.333 171.173 122.808 171.034 118.276C169.337 117.164 167.629 116.049 165.938 114.911C154.434 123.32 142.685 131.388 130.692 139.117C130.692 139.117 130.702 139.119 130.699 139.132C130.287 139.397 129.865 139.66 129.443 139.922C127.601 141.104 125.752 142.271 123.893 143.436C123.034 143.983 122.165 144.528 121.308 145.063C118.596 146.749 115.877 148.42 113.141 150.072C113.095 146.692 113.069 143.318 113.052 139.947C112.971 123.769 113.223 107.671 113.785 91.6728C113.836 90.2072 113.897 88.7444 113.945 87.2916C114.091 83.5178 114.257 79.7494 114.446 75.9737C112.845 74.617 111.26 73.2376 109.674 71.8581C97.5923 78.6932 85.2969 85.1428 72.7879 91.2069L72.7948 91.2224C72.3649 91.4282 71.9252 91.6312 71.4954 91.837C69.5658 92.7644 67.6391 93.6789 65.7026 94.5907C64.8107 95.0069 63.916 95.4358 63.0143 95.8492C60.1889 97.1645 57.3594 98.4514 54.5105 99.7329C54.9561 92.9338 55.4602 86.1509 56.0228 79.3844C56.5853 72.6179 57.2036 65.8805 57.8676 59.1695C58.5345 52.4457 59.2639 45.7665 60.0352 39.0855C60.5727 34.4977 61.1366 29.9308 61.7297 25.3721C55.8942 19.1268 50.1273 12.6698 44.4718 6.04036Z" fill="#2A282B"/>
<path d="M40.9333 3.96052C181.375 165.02 377.393 230.332 571.928 180.884C572.112 182.552 572.294 184.233 572.488 185.904C376.699 235.677 179.428 169.947 38.0899 7.85509C39.0344 6.55599 39.9887 5.25962 40.9333 3.96052Z" fill="#075893"/>
<path d="M481.774 193.646C493.35 215.36 505.873 236.626 519.352 257.353C530.616 233.271 540.965 208.895 550.377 184.325C527.484 188.974 504.582 192.075 481.774 193.646Z" fill="#FFAD1D"/>
<path opacity="0.45" d="M528.946 235.873C525.723 243.159 522.422 250.423 519.03 257.66C505.696 237.018 493.294 215.828 481.844 194.191C486.804 193.831 491.757 193.4 496.727 192.893C500.074 205.232 509.122 229.572 528.946 235.873Z" fill="#FF8F1F"/>
<path d="M414.355 196.394C423.884 219.615 434.379 242.531 445.834 265.031C458.892 242.484 471.061 219.526 482.31 196.258C459.54 197.827 436.858 197.85 414.355 196.394Z" fill="#075893"/>
<path d="M457.321 244.949C453.551 251.809 449.701 258.646 445.766 265.431C434.366 242.927 423.922 220.017 414.45 196.773C419.364 197.079 424.281 197.318 429.204 197.477C431.464 210.31 438.347 235.923 457.321 244.949Z" fill="#064972"/>
<path d="M348.207 189.765C355.664 214.213 364.091 238.481 373.492 262.46C388.201 241.697 402.045 220.422 415.029 198.704C392.553 197.208 370.249 194.22 348.207 189.765Z" fill="#FFAD1D"/>
<path opacity="0.45" d="M386.682 244.005C382.395 250.376 378.033 256.698 373.583 262.981C364.203 238.896 355.794 214.544 348.365 189.983C353.192 190.948 358.033 191.848 362.881 192.667C364.052 205.828 368.727 232.415 386.682 244.005Z" fill="#FF8F1F"/>
<path d="M283.915 173.945C289.257 199.341 295.574 224.681 302.846 249.864C319.059 231.101 334.466 211.706 349.04 191.754C327.045 187.27 305.298 181.331 283.915 173.945Z" fill="#12A1F9"/>
<path d="M317.608 233.219C312.835 239.027 307.998 244.788 303.078 250.483C295.792 225.106 289.487 199.574 284.155 173.98C288.857 175.594 293.573 177.143 298.315 178.617C298.372 191.949 300.809 219.205 317.608 233.219Z" fill="#097FD6"/>
<path d="M222.044 148.917C225.259 175.038 229.423 201.232 234.558 227.396C252.163 210.791 269.026 193.45 285.093 175.426C263.702 168.022 242.652 159.176 222.044 148.917Z" fill="#FF76D8"/>
<path d="M250.687 212.773C245.466 217.959 240.186 223.072 234.833 228.123C229.697 201.72 225.541 175.284 222.343 148.92C226.882 151.174 231.449 153.354 236.029 155.468C234.995 168.831 235.164 196.482 250.687 212.773Z" fill="#F451BD"/>
<path d="M163.114 115.007C164.168 141.607 166.17 168.388 169.124 195.283C187.967 181.049 206.128 165.945 223.55 150.079C202.932 139.785 182.755 128.076 163.114 115.007Z" fill="#12A1F9"/>
<path d="M186.439 182.863C180.822 187.358 175.138 191.764 169.395 196.098C166.451 168.939 164.488 141.871 163.461 114.991C167.8 117.863 172.174 120.677 176.565 123.413C174.442 136.698 172.338 164.44 186.439 182.863Z" fill="#097FD6"/>
<path d="M107.637 72.4145C106.529 99.2195 106.343 126.335 107.094 153.684C127.002 142.007 146.285 129.382 164.91 115.866C145.243 102.742 126.124 88.2587 107.637 72.4145Z" fill="#FFAD1D"/>
<path opacity="0.45" d="M125.448 143.665C119.475 147.395 113.442 151.053 107.355 154.613C106.644 126.954 106.896 99.5311 108.064 72.4144C112.161 75.9091 116.295 79.3314 120.454 82.6916C117.251 95.7085 112.89 123.26 125.448 143.665Z" fill="#FF8F1F"/>
<path d="M56.159 21.3297C52.9065 48.0859 50.5285 75.2758 49.0644 102.815C69.8359 93.9031 90.067 83.9429 109.694 72.9844C91.1903 57.0985 73.3144 39.8757 56.159 21.3297Z" fill="#075893"/>
<path d="M68.2537 95.3792C61.971 98.2891 55.6412 101.116 49.2599 103.831C50.8063 75.9629 53.2883 48.4331 56.6658 21.3273C60.4828 25.4212 64.3475 29.4457 68.2367 33.4078C63.9648 46.0376 57.3575 73.1164 68.2537 95.3792Z" fill="#064972"/>
</svg>
