<?xml version="1.0" standalone="no"?>
<!DOCTYPE svg PUBLIC "-//W3C//DTD SVG 20010904//EN"
 "http://www.w3.org/TR/2001/REC-SVG-20010904/DTD/svg10.dtd">
<svg version="1.0" xmlns="http://www.w3.org/2000/svg"
 width="500.000000pt" height="500.000000pt" viewBox="0 0 500.000000 500.000000"
 preserveAspectRatio="xMidYMid meet">
<metadata>
Created by potrace 1.14, written by Peter Selinger 2001-2017
</metadata>
<g transform="translate(0.000000,500.000000) scale(0.100000,-0.100000)"
fill="#000000" stroke="none">
<path d="M2285 4503 c-283 -43 -424 -84 -639 -187 -149 -71 -236 -123 -331
-196 -33 -26 -69 -52 -80 -58 -39 -21 -285 -278 -346 -362 -158 -215 -267
-434 -333 -667 -58 -204 -71 -308 -71 -578 0 -233 2 -260 28 -393 15 -78 46
-193 68 -255 22 -61 43 -120 46 -130 3 -9 12 -17 19 -17 8 0 13 -3 12 -7 -3
-13 13 -53 21 -53 4 0 7 -10 8 -21 1 -12 9 -29 17 -38 9 -10 16 -21 16 -25 0
-16 64 -143 89 -175 15 -20 49 -65 76 -101 57 -76 195 -220 211 -220 6 0 45
-34 85 -76 41 -41 110 -101 154 -133 78 -56 235 -147 235 -136 0 3 14 -2 31
-10 17 -9 37 -14 44 -11 8 3 12 0 9 -7 -4 -13 53 -43 63 -34 3 4 21 -5 41 -18
19 -13 39 -22 44 -18 6 3 22 -6 36 -19 44 -40 271 -96 478 -119 144 -15 386
-6 534 21 238 43 491 133 588 208 20 16 59 38 85 50 26 13 45 27 42 32 -3 5 0
12 6 16 8 4 9 3 5 -4 -14 -22 11 -12 57 24 26 21 44 41 40 48 -3 6 -3 8 2 4 4
-4 17 -2 28 3 16 9 17 13 6 20 -10 6 -6 9 13 9 15 0 31 8 37 18 5 9 12 15 14
12 3 -3 19 7 35 22 17 14 33 23 37 20 4 -4 5 -2 3 5 -2 6 6 18 17 26 14 11 16
19 10 29 -6 8 -3 6 6 -4 16 -16 22 -12 111 80 130 134 240 288 323 450 93 180
139 311 182 512 31 145 36 188 40 357 4 122 1 228 -6 290 -15 122 -63 342 -97
442 -31 92 -169 374 -221 453 -132 199 -323 401 -513 543 -139 103 -397 235
-575 294 -200 66 -314 83 -580 86 -126 2 -243 1 -260 -2z m390 -123 c659 -63
1238 -464 1539 -1069 83 -166 154 -409 175 -603 12 -106 15 -329 5 -400 l-6
-44 -56 54 c-30 30 -73 62 -94 72 l-39 17 32 7 c17 3 46 6 64 6 32 0 33 1 39
53 17 130 -37 477 -99 641 -32 85 -110 243 -161 328 -146 240 -403 495 -634
628 -258 148 -505 226 -797 251 -217 18 -523 -22 -726 -95 -124 -45 -351 -160
-449 -228 -257 -179 -472 -428 -610 -709 -115 -234 -166 -439 -175 -711 l-6
-158 69 0 c130 0 306 21 417 49 251 64 424 159 549 303 53 61 134 185 126 193
-2 2 -19 -10 -38 -28 -115 -106 -267 -207 -432 -287 -68 -33 -127 -60 -132
-60 -4 0 16 21 45 48 29 26 60 54 69 62 27 27 138 110 147 110 4 0 38 26 75
58 153 132 237 272 303 505 20 71 35 130 33 132 -2 3 -19 -37 -36 -88 -18 -51
-47 -130 -65 -175 -30 -80 -32 -82 -35 -47 -4 46 24 296 44 395 43 208 127
381 231 478 31 28 61 52 67 52 5 0 21 -11 36 -25 l25 -24 30 56 c50 96 134
133 300 133 112 0 174 -14 271 -61 227 -111 356 -311 418 -649 14 -74 47 -352
42 -357 0 -1 -21 48 -45 108 -25 60 -47 107 -49 104 -2 -2 6 -37 18 -77 80
-264 189 -425 367 -545 97 -65 257 -197 244 -201 -22 -7 -147 44 -242 99 -142
82 -263 196 -332 314 -15 26 -30 45 -33 42 -7 -7 59 -169 90 -220 65 -109 212
-245 382 -353 93 -60 272 -141 434 -197 63 -21 127 -45 142 -53 44 -23 42 -34
-4 -18 -24 8 -104 30 -178 49 -268 69 -435 136 -580 234 -86 58 -89 58 -25 -1
120 -112 242 -169 590 -274 50 -15 116 -40 148 -56 64 -32 140 -95 131 -110
-3 -5 -13 -4 -22 4 -15 11 -15 11 -4 -3 10 -14 10 -18 -5 -24 -10 -5 -22 -7
-27 -6 -4 1 -14 -3 -21 -9 -10 -8 -19 -8 -35 0 -15 8 -20 8 -18 -1 2 -7 -6
-14 -17 -16 -16 -3 -17 -2 -5 6 12 9 11 11 -8 11 -13 0 -21 -4 -18 -9 8 -12
-12 -18 -59 -16 -22 1 -43 -3 -47 -9 -5 -7 -8 -4 -8 7 0 19 -30 24 -30 5 0 -9
-3 -9 -8 -3 -11 17 -30 12 -47 -12 -9 -13 -22 -23 -28 -23 -7 0 -6 4 3 10 11
7 12 12 4 20 -16 16 -60 8 -56 -10 2 -11 -1 -11 -11 2 -8 10 -23 21 -34 25
-47 18 -424 369 -502 468 -65 81 -124 192 -160 300 -22 65 -31 81 -31 59 0
-84 53 -293 103 -405 8 -19 28 -63 43 -99 36 -84 184 -320 213 -340 4 -3 29
-32 55 -65 27 -33 57 -67 69 -76 20 -17 20 -17 -11 -33 -32 -17 -57 -22 -33
-7 9 6 2 10 -23 13 -23 2 -37 -1 -40 -9 -6 -16 -36 -6 -36 12 0 7 6 16 13 19
6 3 0 3 -15 1 -18 -2 -33 4 -49 21 -26 27 -20 33 7 7 13 -13 16 -14 12 -3 -2
8 -15 20 -27 26 -12 6 -23 15 -23 20 -1 15 -24 44 -30 38 -9 -8 -91 104 -126
171 -30 58 -31 65 -32 189 0 71 -2 131 -4 134 -2 2 -30 -4 -61 -14 -46 -15
-58 -16 -65 -5 -20 34 -45 241 -44 376 1 116 6 155 26 230 28 100 32 103 108
86 25 -5 46 -9 47 -7 2 1 -30 68 -71 148 -40 80 -76 162 -79 183 -8 48 -63
165 -123 261 -25 41 -48 74 -49 74 -2 0 23 -55 55 -122 33 -68 63 -138 66
-157 l7 -34 -56 46 c-101 83 -104 72 -7 -29 80 -83 104 -117 153 -212 32 -61
55 -112 50 -112 -5 0 -64 27 -131 61 -186 92 -343 218 -438 352 -78 111 -80
112 -43 32 58 -129 134 -230 296 -395 35 -35 60 -66 54 -68 -15 -5 -147 42
-241 86 -162 75 -260 174 -301 302 l-17 55 5 -50 c12 -121 65 -243 131 -303
l37 -33 -44 22 c-68 32 -147 114 -181 183 -30 65 -60 188 -61 258 -1 69 -15
19 -44 -159 -14 -87 -32 -178 -39 -202 l-13 -45 -6 34 c-7 31 -3 96 9 160 4
21 3 22 -6 8 -19 -31 -40 -167 -40 -256 0 -78 10 -174 26 -242 l5 -24 -21 19
c-58 52 -103 194 -117 365 -6 87 -8 91 -14 50 -14 -83 -9 -193 12 -265 57
-201 59 -208 59 -335 -1 -112 -28 -331 -44 -347 -2 -3 -26 2 -52 11 -77 26
-74 32 -74 -119 l0 -136 -41 -72 c-52 -91 -86 -137 -104 -137 -8 0 -17 -4 -20
-10 -4 -6 1 -7 12 -4 14 4 12 1 -6 -15 -19 -18 -26 -19 -39 -9 -13 11 -14 11
-8 -1 5 -8 3 -17 -5 -22 -10 -6 -11 -9 -1 -9 6 0 12 -5 12 -11 0 -8 -4 -8 -15
1 -15 12 -59 4 -51 -9 3 -4 -8 -8 -24 -8 -16 0 -27 4 -25 8 3 4 -2 9 -10 12
-10 4 -12 1 -9 -11 5 -14 3 -13 -10 2 -9 11 -16 25 -15 30 0 6 3 6 5 -1 3 -7
12 -9 20 -6 13 5 13 7 2 15 -10 7 -10 11 5 22 9 7 17 18 17 23 0 5 9 18 20 28
30 27 153 210 187 280 73 145 143 347 162 465 19 118 11 117 -38 -5 -89 -222
-108 -264 -160 -357 -67 -122 -130 -201 -148 -186 -10 8 -12 7 -8 -5 4 -8 1
-18 -4 -22 -6 -3 -9 -11 -6 -16 3 -5 0 -6 -8 -3 -8 3 -38 -6 -65 -20 -36 -18
-52 -22 -55 -13 -3 6 -6 0 -6 -14 -1 -37 -13 -43 -34 -17 l-18 23 6 -24 c5
-16 4 -21 -4 -17 -6 4 -11 2 -11 -4 0 -8 -6 -8 -20 0 -14 7 -26 8 -39 0 -15
-7 -22 -7 -27 2 -4 7 -3 10 1 5 5 -4 19 0 31 8 17 11 24 12 27 2 4 -9 7 -9 18
1 10 9 10 12 0 12 -7 0 -10 4 -7 9 9 14 -20 21 -33 8 -6 -6 -11 -8 -11 -3 0 4
-12 -2 -26 -13 -18 -14 -31 -18 -43 -12 -9 5 -33 7 -53 5 -70 -6 -46 23 77 92
47 26 100 60 118 76 30 27 29 27 -35 -8 -37 -19 -72 -33 -77 -30 -5 4 -11 1
-13 -4 -5 -16 -56 -22 -79 -9 -15 8 -19 8 -15 0 4 -6 2 -11 -4 -11 -6 0 -8 -6
-5 -12 4 -7 -1 -4 -9 6 -13 16 -19 17 -28 8 -16 -16 -28 -15 -28 3 0 21 -30
19 -31 -2 0 -16 -2 -15 -10 2 -8 17 -9 16 -6 -8 4 -24 1 -27 -24 -27 -15 0
-31 -5 -34 -11 -5 -6 -13 -3 -22 10 -13 20 -40 20 -28 1 3 -5 1 -11 -4 -15 -6
-3 -8 4 -6 15 3 15 -1 20 -13 18 -9 -2 -21 -9 -27 -15 -10 -13 -55 -7 -55 7 0
7 31 22 50 25 3 0 30 10 60 22 30 12 114 39 185 59 154 43 223 70 295 118 60
39 160 133 192 180 l22 31 -25 -21 c-44 -39 -224 -142 -338 -193 -177 -80
-319 -118 -538 -146 l-52 -7 -8 39 c-4 21 -8 142 -7 268 0 212 2 239 27 350
63 280 141 460 310 710 60 89 219 261 316 343 394 331 908 498 1396 452z
m1147 -775 l30 -25 -31 -31 c-17 -16 -36 -47 -42 -68 -11 -37 -10 -41 29 -92
54 -73 115 -204 147 -319 33 -120 44 -318 25 -449 -20 -133 -13 -131 -115 -39
-50 44 -117 101 -150 126 -103 80 -189 152 -224 190 -114 126 -219 310 -228
402 -5 44 -4 42 42 -49 103 -210 199 -328 379 -469 61 -47 140 -112 175 -144
36 -32 68 -55 72 -51 16 16 31 199 25 290 -11 162 -71 350 -160 502 -17 31
-37 75 -44 98 -7 22 -25 55 -41 72 l-29 31 34 34 c19 19 37 49 41 67 l6 34 14
-42 c8 -24 28 -54 45 -68z m-2448 -37 c-66 -69 -138 -161 -177 -224 -72 -120
-128 -305 -142 -469 -7 -80 9 -273 23 -287 4 -4 32 15 62 43 30 28 112 96 182
150 181 142 260 238 369 446 29 56 54 101 56 99 9 -9 -22 -107 -53 -170 -82
-163 -176 -269 -394 -443 -69 -55 -152 -126 -185 -157 l-60 -57 -13 53 c-7 29
-16 114 -19 188 -6 147 9 261 47 378 33 99 105 243 150 297 57 69 178 195 187
195 4 0 -11 -19 -33 -42z m844 -200 c57 -134 133 -196 316 -253 71 -23 115
-42 113 -49 -7 -19 46 -56 81 -56 37 0 88 23 94 42 3 9 16 8 51 -6 26 -10 47
-21 47 -24 -1 -27 -34 -140 -50 -172 -30 -59 -116 -139 -206 -191 -109 -64
-144 -74 -202 -59 -80 20 -225 117 -283 191 l-33 42 32 -5 32 -4 -35 42 c-20
24 -46 67 -60 96 -27 57 -35 135 -12 121 6 -4 20 -6 31 -4 11 1 29 -10 46 -31
25 -30 33 -33 80 -33 39 0 55 5 65 19 8 10 19 15 25 11 23 -14 -9 32 -39 58
-31 26 -106 47 -166 47 -37 0 -38 2 -29 38 5 19 14 22 58 24 l51 2 -49 3 c-39
4 -47 7 -43 21 3 9 16 54 28 99 13 46 27 83 30 83 3 0 15 -24 27 -52z m1852
-448 c8 -14 8 -26 0 -40 -11 -21 -11 -21 -30 2 -17 21 -17 25 -3 41 20 21 20
21 33 -3z m-3119 -13 c16 -21 15 -24 -1 -44 l-17 -22 -22 23 c-22 23 -22 25
-5 45 23 26 25 26 45 -2z m1754 -467 c11 -36 43 -67 98 -98 47 -25 48 -26 25
-38 -13 -6 -82 -31 -154 -54 l-130 -43 -32 23 c-18 13 -32 28 -32 33 0 5 25
37 56 70 36 40 73 96 103 157 l46 95 6 -60 c3 -33 9 -71 14 -85z m1303 -35
c135 -17 205 -49 278 -125 27 -28 51 -56 53 -62 2 -5 -23 4 -55 21 -33 17
-133 63 -224 103 -91 39 -167 72 -169 74 -6 6 -6 6 117 -11z m-1858 -135 c107
-37 228 -77 268 -89 l72 -22 0 -404 c0 -223 -2 -405 -4 -405 -1 0 -75 27 -162
61 -133 50 -166 67 -204 103 -51 49 -104 67 -197 65 -99 -2 -130 -16 -39 -18
107 -1 189 -25 222 -64 14 -16 22 -32 19 -35 -3 -3 -39 5 -80 18 -71 22 -78
23 -147 9 l-73 -13 80 -6 c62 -4 88 -11 113 -28 18 -13 32 -28 32 -33 0 -17
-31 -22 -68 -11 -45 14 -186 -5 -157 -21 9 -5 33 -6 53 -2 38 7 152 -13 152
-27 0 -13 -47 -28 -87 -28 -48 0 -113 -63 -113 -108 0 -47 -17 -81 -63 -132
-23 -25 -53 -69 -67 -97 -14 -29 -28 -53 -32 -53 -13 0 -103 145 -117 188 -13
40 -13 49 13 135 44 148 145 400 169 423 12 12 51 33 87 47 64 24 67 25 153
12 49 -7 91 -16 94 -19 9 -9 -35 -22 -117 -36 -41 -7 -86 -18 -100 -26 -25
-13 -25 -13 12 -14 46 0 181 25 208 40 12 6 20 21 20 35 0 27 -30 39 -132 51
l-58 7 0 289 0 290 28 -7 c15 -3 115 -37 222 -75z m960 -204 c0 -319 8 -288
-77 -301 l-43 -7 0 71 c0 71 0 71 -27 70 -16 0 -59 -6 -98 -12 l-70 -12 -6
-195 c-8 -253 -7 -240 -21 -245 -7 -2 -62 -22 -122 -44 -60 -23 -113 -41 -118
-41 -4 0 -8 181 -8 403 l0 402 148 48 c81 26 208 70 282 97 74 27 141 49 148
49 9 1 12 -62 12 -283z m-2335 64 c-3 -5 -11 -10 -16 -10 -6 0 -7 5 -4 10 3 6
11 10 16 10 6 0 7 -4 4 -10z m326 -57 c-5 -10 -9 -22 -9 -28 0 -5 -6 -11 -13
-14 -6 -2 -9 1 -5 7 4 6 -3 6 -18 -1 -14 -7 -22 -17 -19 -27 4 -12 2 -12 -9 1
-12 15 -15 13 -32 -22 -11 -22 -24 -39 -29 -39 -6 0 -8 3 -4 6 3 3 2 17 -3 30
-8 19 -5 26 10 34 14 7 20 7 20 0 0 -5 -8 -10 -17 -10 -15 0 -16 -2 -3 -10 12
-7 18 -3 28 20 10 25 22 35 35 29 1 -1 18 8 37 20 42 25 43 26 31 4z m366 0
c0 -9 -4 -10 -10 -4 -5 5 -17 7 -26 4 -12 -4 -13 -2 -3 4 19 14 39 12 39 -4z
m-277 -25 c0 -16 -20 -47 -20 -32 0 5 -12 15 -27 22 -17 7 -19 9 -6 6 12 -3
24 0 28 6 9 14 25 13 25 -2z m648 -28 c-1 -25 -7 -40 -15 -40 -7 0 -12 6 -10
13 1 6 -4 11 -11 9 -8 -1 -11 2 -7 7 3 6 12 8 20 4 8 -3 15 0 15 6 0 6 -5 11
-11 11 -8 0 -8 5 1 15 19 22 21 19 18 -25z m-623 10 c3 -5 1 -10 -4 -10 -6 0
-11 5 -11 10 0 6 2 10 4 10 3 0 8 -4 11 -10z m1990 -32 c0 -4 10 -15 23 -23
12 -9 22 -23 22 -31 0 -8 5 -13 12 -11 7 1 13 -4 14 -10 1 -7 3 -16 4 -20 1
-5 2 -12 1 -17 -1 -5 6 -5 16 -2 9 4 14 4 11 1 -4 -4 -3 -18 2 -31 11 -28 -2
-40 -20 -19 -10 12 -10 15 1 15 10 1 8 4 -4 11 -9 5 -21 8 -26 5 -9 -6 -26 22
-23 37 1 4 -2 8 -8 8 -5 1 -16 2 -22 3 -7 1 -12 7 -10 14 1 7 -5 15 -13 18
-10 4 -15 20 -15 51 0 42 1 44 18 27 9 -10 17 -21 17 -26z m1125 8 c0 -2 -7
-7 -16 -10 -9 -4 -13 -2 -8 5 4 8 -1 9 -17 4 -21 -7 -22 -6 -10 8 10 13 18 14
32 6 10 -5 19 -11 19 -13z m-3393 -1 c0 -8 -4 -12 -9 -9 -4 3 -8 1 -8 -5 0 -6
-7 -8 -16 -4 -14 5 -12 8 7 19 13 7 24 13 25 14 0 0 1 -7 1 -15z m-72 -46 c-7
-10 -55 -8 -55 2 0 9 41 17 53 11 4 -2 5 -8 2 -13z m81 9 c4 -7 3 -8 -4 -4 -7
4 -12 3 -12 -3 0 -5 5 -11 11 -13 6 -2 0 -9 -15 -16 -15 -7 -26 -8 -26 -2 0 6
4 10 9 10 5 0 11 9 14 20 6 23 13 25 23 8z m-208 -93 c-3 -3 -9 2 -12 12 -6
14 -5 15 5 6 7 -7 10 -15 7 -18z m-21 -17 c-3 -8 -6 -5 -6 6 -1 11 2 17 5 13
3 -3 4 -12 1 -19z m1041 -5 c-12 -15 -22 -18 -14 -4 4 5 0 11 -6 14 -7 3 -3 4
9 4 17 -1 19 -4 11 -14z m-78 3 c0 -2 -8 -10 -17 -17 -16 -13 -17 -12 -4 4 13
16 21 21 21 13z m1680 -32 c0 -2 -7 -4 -15 -4 -8 0 -15 4 -15 10 0 5 7 7 15 4
8 -4 15 -8 15 -10z m-1635 -12 c-3 -3 -11 0 -18 7 -9 10 -8 11 6 5 10 -3 15
-9 12 -12z m-108 -7 c0 -8 -4 -12 -9 -9 -5 3 -6 10 -3 15 9 13 12 11 12 -6z
m1748 -5 c4 -6 -1 -7 -11 -3 -13 5 -15 3 -9 -8 8 -12 6 -12 -8 0 -9 7 -17 15
-17 17 0 9 39 3 45 -6z m-2615 -4 c0 -3 -4 -8 -10 -11 -5 -3 -10 -1 -10 4 0 6
5 11 10 11 6 0 10 -2 10 -4z m2880 -28 c0 -10 5 -18 10 -18 6 0 10 -4 10 -9 0
-5 -9 -7 -19 -4 -11 3 -17 11 -15 18 3 7 1 16 -5 20 -6 3 -11 -1 -11 -11 0
-10 -3 -15 -6 -11 -11 10 3 34 20 34 9 0 16 -9 16 -19z m-127 -18 c-3 -12 -8
-19 -11 -16 -5 6 5 36 12 36 2 0 2 -9 -1 -20z m-2773 -10 c0 -5 -4 -10 -10
-10 -5 0 -10 5 -10 10 0 6 5 10 10 10 6 0 10 -4 10 -10z m2460 -19 c39 -16 80
-37 90 -46 11 -10 30 -51 44 -93 l26 -76 -42 -74 c-23 -40 -64 -93 -90 -118
l-48 -45 -34 26 c-21 16 -46 25 -69 25 -40 0 -87 15 -87 28 0 16 68 32 141 33
56 0 68 2 51 10 -42 16 -128 22 -151 10 -25 -14 -64 -5 -58 12 2 7 18 22 37
35 26 18 47 22 103 22 39 0 68 2 66 5 -3 2 -37 9 -77 15 -65 10 -77 9 -127 -9
-85 -32 -101 -28 -67 17 20 26 142 61 222 63 43 2 43 2 -15 9 -40 6 -87 4
-140 -5 -43 -8 -81 -12 -84 -9 -8 8 32 32 101 60 59 23 76 26 147 22 l81 -5
-38 17 c-20 9 -61 20 -91 24 -95 13 -123 46 -53 64 61 16 86 14 162 -17z
m-2290 -5 c0 -2 -8 -10 -17 -17 -16 -13 -17 -12 -4 4 13 16 21 21 21 13z
m2785 -40 c0 -13 -2 -27 -5 -30 -5 -4 -6 43 -1 52 4 8 7 -1 6 -22z m-102 -14
c-3 -7 -9 -10 -12 -5 -3 4 -10 11 -15 15 -4 4 1 6 12 5 12 -1 18 -6 15 -15z
m230 -116 c3 -8 0 -17 -8 -19 -11 -5 -13 6 -6 31 2 6 9 0 14 -12z m-2613 -10
c0 -2 -7 -7 -16 -10 -8 -3 -12 -2 -9 4 6 10 25 14 25 6z m-34 -52 c-4 -9 -9
-15 -11 -12 -3 3 -3 13 1 22 4 9 9 15 11 12 3 -3 3 -13 -1 -22z m2574 -14 c0
-5 -2 -10 -4 -10 -3 0 -8 5 -11 10 -3 6 -1 10 4 10 6 0 11 -4 11 -10z m-2580
-14 c0 -3 -4 -8 -10 -11 -5 -3 -10 -1 -10 4 0 6 5 11 10 11 6 0 10 -2 10 -4z
m2677 -20 c-3 -8 -2 -17 4 -20 5 -2 4 -3 -2 -2 -15 3 -21 36 -7 36 6 0 8 -6 5
-14z m-52 -26 c10 8 16 3 24 -23 9 -25 19 -36 37 -40 19 -3 24 -1 20 9 -3 8
-9 21 -13 30 -4 12 -2 15 8 12 10 -3 14 -20 13 -56 -1 -29 1 -50 6 -47 4 2 5
-7 2 -20 -2 -14 -9 -25 -14 -25 -5 0 -7 4 -3 9 3 5 1 13 -5 16 -6 4 -10 3 -9
-2 4 -22 -3 -31 -25 -29 -13 0 -22 5 -19 9 2 4 -8 5 -24 2 -23 -5 -25 -4 -10
5 9 6 27 8 40 4 26 -8 32 -7 32 5 0 5 3 13 8 17 4 4 7 18 7 31 0 16 -6 23 -20
23 -11 0 -20 -5 -20 -11 0 -6 -7 -8 -16 -5 -9 3 -12 2 -9 -5 4 -6 13 -8 21 -5
10 4 13 -2 12 -20 -2 -15 -7 -23 -15 -19 -45 18 -46 18 -38 5 6 -10 4 -12 -9
-7 -9 4 -15 3 -13 -1 3 -4 0 -16 -4 -27 -8 -18 -6 43 6 135 5 42 6 45 12 32 4
-9 8 -10 18 -2z m-2664 -37 c-12 -20 -14 -14 -5 12 4 9 9 14 11 11 3 -2 0 -13
-6 -23z m93 18 c-8 -8 -43 -8 -38 0 2 4 13 7 24 6 10 -1 17 -3 14 -6z m2532
-16 c1 -8 -3 -18 -8 -22 -6 -3 -8 -1 -4 5 3 6 2 13 -4 17 -6 4 -8 11 -4 16 7
12 17 4 20 -16z m-2605 -42 c13 -16 12 -17 -3 -4 -10 7 -18 15 -18 17 0 8 8 3
21 -13z m-44 -45 c-3 -8 -6 -5 -6 6 -1 11 2 17 5 13 3 -3 4 -12 1 -19z m43
-13 c0 -8 -2 -15 -4 -15 -2 0 -6 7 -10 15 -3 8 -1 15 4 15 6 0 10 -7 10 -15z
m38 -22 c9 -10 15 -17 13 -16 -5 4 -36 -40 -34 -47 1 -3 -8 -7 -19 -7 -21 -2
-21 -2 -1 12 15 10 19 23 17 45 -4 35 0 37 24 13z m-38 -13 c0 -5 -7 -10 -16
-10 -8 0 -12 5 -9 10 3 6 10 10 16 10 5 0 9 -4 9 -10z m237 -42 c-3 -7 -5 -2
-5 12 0 14 2 19 5 13 2 -7 2 -19 0 -25z m38 22 c3 -5 1 -10 -4 -10 -6 0 -11 5
-11 10 0 6 2 10 4 10 3 0 8 -4 11 -10z m2389 -6 c3 -8 2 -12 -4 -9 -6 3 -10
10 -10 16 0 14 7 11 14 -7z m-2701 -18 c4 -10 1 -13 -8 -9 -8 3 -12 9 -9 14 7
12 11 11 17 -5z m331 -26 c-6 -6 -10 -3 -10 10 0 13 4 16 10 10 7 -7 7 -13 0
-20z m-248 -17 c-3 -4 -6 -1 -6 7 0 10 -3 10 -17 -1 -15 -13 -15 -12 -2 8 11
19 15 20 22 7 5 -9 6 -18 3 -21z m2614 27 c0 -5 -5 -10 -11 -10 -5 0 -7 5 -4
10 3 6 8 10 11 10 2 0 4 -4 4 -10z m-2690 -16 c0 -2 -7 -4 -15 -4 -8 0 -15 4
-15 10 0 5 7 7 15 4 8 -4 15 -8 15 -10z m30 2 c0 -3 -4 -8 -10 -11 -5 -3 -10
-1 -10 4 0 6 5 11 10 11 6 0 10 -2 10 -4z m2597 -18 c-3 -8 -6 -5 -6 6 -1 11
2 17 5 13 3 -3 4 -12 1 -19z m43 3 c0 -6 -4 -13 -10 -16 -5 -3 -10 1 -10 9 0
9 5 16 10 16 6 0 10 -4 10 -9z m-2383 -63 c-3 -8 -6 -5 -6 6 -1 11 2 17 5 13
3 -3 4 -12 1 -19z m2378 12 c3 -5 2 -10 -4 -10 -5 0 -13 5 -16 10 -3 6 -2 10
4 10 5 0 13 -4 16 -10z m-2668 -32 c-3 -8 -6 -5 -6 6 -1 11 2 17 5 13 3 -3 4
-12 1 -19z m28 -8 c3 -5 1 -10 -4 -10 -6 0 -11 5 -11 10 0 6 2 10 4 10 3 0 8
-4 11 -10z m410 -29 c3 -5 2 -12 -3 -15 -5 -3 -9 1 -9 9 0 17 3 19 12 6z
m-148 -33 c-3 -8 -6 -5 -6 6 -1 11 2 17 5 13 3 -3 4 -12 1 -19z m110 -53 c1
-32 -1 -35 -27 -35 -26 0 -29 -3 -27 -30 2 -27 3 -28 15 -13 14 20 14 20 16
-30 0 -22 -2 -41 -7 -44 -4 -2 -7 -1 -6 4 4 22 -2 43 -11 38 -9 -6 -14 8 -11
28 0 4 -4 7 -10 7 -5 0 -8 4 -5 9 4 5 0 12 -6 14 -10 4 -9 8 2 16 12 9 12 11
1 11 -11 0 -10 5 4 20 17 19 41 29 32 13 -6 -10 19 -34 27 -26 3 3 1 12 -5 19
-6 7 -8 18 -4 24 12 19 20 10 22 -25z m133 -81 c0 -8 -4 -12 -10 -9 -5 3 -10
10 -10 16 0 5 5 9 10 9 6 0 10 -7 10 -16z m2045 -12 c-3 -3 -11 0 -18 7 -9 10
-8 11 6 5 10 -3 15 -9 12 -12z m-1981 -42 c6 0 29 -16 49 -35 20 -19 39 -35
41 -35 3 0 47 -28 98 -62 51 -34 125 -76 163 -94 39 -18 65 -33 59 -34 -38 -1
-210 69 -225 92 -3 5 -10 10 -15 11 -5 1 -9 10 -8 19 0 9 -3 15 -8 12 -5 -3
-16 0 -25 8 -14 11 -16 11 -8 -2 7 -12 6 -13 -7 -3 -8 7 -18 10 -22 6 -4 -4
-9 3 -13 15 -3 12 -10 19 -16 15 -6 -4 -7 -1 -2 7 6 10 4 12 -7 7 -9 -3 -24 3
-34 14 -10 11 -12 19 -6 19 7 0 12 4 12 8 0 5 -10 8 -22 8 -14 -1 -22 4 -20
12 1 7 -5 15 -14 19 -13 5 -13 7 -2 14 8 6 14 3 16 -6 2 -8 9 -15 16 -15z
m1890 -6 c3 -8 2 -12 -4 -9 -6 3 -10 10 -10 16 0 14 7 11 14 -7z"/>
<path d="M930 2150 c0 -6 11 -8 28 -4 39 10 40 14 4 14 -18 0 -32 -5 -32 -10z"/>
<path d="M1488 2148 c5 -5 16 -8 23 -6 8 3 3 7 -10 11 -17 4 -21 3 -13 -5z"/>
<path d="M1430 2120 c-13 -8 -12 -10 3 -10 9 0 17 5 17 10 0 12 -1 12 -20 0z"/>
<path d="M1153 2088 c-1 -10 0 -18 2 -18 2 0 9 8 14 18 7 14 6 19 -3 19 -6 0
-13 -9 -13 -19z"/>
<path d="M1366 2097 c3 -10 9 -15 12 -12 3 3 0 11 -7 18 -10 9 -11 8 -5 -6z"/>
<path d="M1205 2081 c-3 -5 -1 -12 5 -16 5 -3 10 -1 10 5 0 6 4 9 9 5 5 -3 12
-1 16 5 3 5 -3 10 -14 10 -11 0 -22 -4 -26 -9z"/>
<path d="M4230 2030 c0 -5 7 -10 16 -10 8 0 12 5 9 10 -3 6 -10 10 -16 10 -5
0 -9 -4 -9 -10z"/>
<path d="M4025 2011 c3 -5 0 -11 -7 -13 -9 -3 -9 -6 0 -12 7 -4 12 -2 12 4 0
6 5 8 10 5 6 -3 10 -2 10 3 0 6 -7 13 -16 16 -8 3 -13 2 -9 -3z"/>
<path d="M4187 2009 c7 -7 15 -10 18 -7 3 3 -2 9 -12 12 -14 6 -15 5 -6 -5z"/>
<path d="M4074 1996 c-19 -15 -19 -15 2 -13 11 0 21 7 21 14 0 16 1 16 -23 -1z"/>
<path d="M3457 1849 c7 -7 15 -10 18 -7 3 3 -2 9 -12 12 -14 6 -15 5 -6 -5z"/>
<path d="M3480 1830 c-12 -8 -11 -10 5 -11 11 -1 27 -2 35 -1 8 0 23 -4 33
-10 15 -8 18 -7 15 4 -3 7 -18 13 -34 12 -16 0 -31 3 -34 7 -3 4 -12 4 -20 -1z"/>
<path d="M2127 2022 l-57 -58 60 -59 59 -59 22 20 c12 10 39 37 60 59 l38 40
-57 58 c-31 31 -59 57 -62 57 -3 0 -31 -26 -63 -58z"/>
<path d="M3178 1553 c7 -3 16 -2 19 1 4 3 -2 6 -13 5 -11 0 -14 -3 -6 -6z"/>
<path d="M3780 1350 c-13 -8 -12 -10 3 -10 9 0 17 5 17 10 0 12 -1 12 -20 0z"/>
<path d="M3756 1312 c-3 -5 1 -9 9 -9 8 0 12 4 9 9 -3 4 -7 8 -9 8 -2 0 -6 -4
-9 -8z"/>
<path d="M1735 750 c3 -5 8 -10 11 -10 2 0 4 5 4 10 0 6 -5 10 -11 10 -5 0 -7
-4 -4 -10z"/>
</g>
</svg>
