<svg width="59" height="60" viewBox="0 0 59 60" fill="none" xmlns="http://www.w3.org/2000/svg">
<g clip-path="url(#clip0_166_842)">
<path d="M38.5479 9.97293C38.2813 17.1955 34.1788 27.7575 29.6056 27.5886C25.0325 27.4198 21.7198 16.5841 21.9864 9.36158C22.2531 2.13902 25.9693 2.04016 30.5425 2.20897C35.1157 2.37779 38.8145 2.75037 38.5479 9.97293Z" fill="#D8405E"/>
<path d="M36.9332 19.1284C38.0086 16.0996 38.6832 12.7672 38.786 9.98211C38.9123 6.56078 38.1853 4.42105 36.4951 3.24493C35.0046 2.21137 32.921 2.05426 30.5512 1.96678C27.6621 1.86013 25.3236 1.89985 23.7257 3.40834C22.501 4.56624 21.8528 6.51083 21.7479 9.35317C21.6129 13.0102 22.3841 17.5532 23.7577 21.2064C25.3343 25.3964 27.4066 27.7485 29.5943 27.8292C30.6443 27.868 31.7067 27.387 32.7518 26.3989C34.303 24.9368 35.7875 22.354 36.9332 19.1284ZM30.5333 2.45194C32.9099 2.53967 34.8385 2.6842 36.2259 3.64748C37.7668 4.71956 38.4289 6.72627 38.3093 9.96681C38.2084 12.7016 37.5424 15.9815 36.4844 18.9652C35.3662 22.1184 33.9269 24.6342 32.4316 26.048C31.4821 26.9456 30.5361 27.3828 29.6143 27.3487C28.5958 27.3111 27.594 26.699 26.6307 25.5313C25.7451 24.4559 24.9064 22.901 24.203 21.0349C22.8499 17.4375 22.0918 12.9683 22.2245 9.37305C22.3244 6.66574 22.9212 4.83154 24.0502 3.76636C25.513 2.38121 27.7544 2.34936 30.5333 2.45194Z" fill="white"/>
<path d="M37.0133 51.5327C37.2799 44.3101 33.9672 33.4745 29.3941 33.3057C24.8209 33.1368 20.7184 43.6988 20.4518 50.9214C20.1852 58.1439 23.884 58.5165 28.4572 58.6853C33.0304 58.8541 36.7466 58.7553 37.0133 51.5327Z" fill="#D8405E"/>
<path d="M37.2495 51.5416C37.3845 47.8845 36.6134 43.3415 35.2397 39.6884C33.6631 35.4983 31.5908 33.1462 29.4031 33.0655C28.3531 33.0267 27.2907 33.5077 26.2456 34.4958C24.6966 35.9603 23.2121 38.5431 22.0686 41.7688C20.9932 44.7976 20.3186 48.1299 20.2158 50.9151C20.0895 54.3364 20.8165 56.4761 22.5067 57.6523C23.9949 58.688 26.0786 58.8428 28.4506 58.9304C31.3397 59.0371 33.6781 58.9996 35.2761 57.4888C36.4988 56.3263 37.1447 54.3816 37.2495 51.5416ZM29.3853 33.5484C30.4015 33.5859 31.4056 34.1981 32.3689 35.3658C33.2545 36.4412 34.0954 37.9961 34.7966 39.8622C36.1496 43.4619 36.9078 47.9288 36.775 51.5263C36.6751 54.2336 36.0783 56.0678 34.9515 57.1331C33.4865 58.5182 31.2451 58.55 28.4684 58.4475C26.0919 58.3598 24.1632 58.2153 22.7759 57.252C21.235 56.1799 20.5728 54.1732 20.6924 50.9327C20.7934 48.1979 21.4594 44.9156 22.5173 41.9343C23.6356 38.7811 25.0771 36.2653 26.5702 34.8515C27.5175 33.9515 28.4657 33.5144 29.3853 33.5484Z" fill="white"/>
<path d="M9.39596 21.2651C16.4918 21.527 26.8636 25.6888 26.6918 30.3436C26.52 34.9985 15.8695 38.3843 8.77369 38.1223C1.67784 37.8604 1.58557 34.0781 1.75739 29.4232C1.92922 24.7684 2.30011 21.0032 9.39596 21.2651Z" fill="#D8405E"/>
<path d="M26.93 30.3525C27.0122 28.1258 24.8607 25.8464 20.8717 23.9392C17.3917 22.273 12.9998 21.1576 9.4047 21.0249C6.61223 20.9218 4.66159 21.4341 3.43451 22.5942C1.83651 24.105 1.62741 26.476 1.51885 29.4168C1.42981 31.8289 1.43011 33.9555 2.33289 35.5426C3.3583 37.345 5.4033 38.2409 8.76461 38.365C11.4986 38.4659 14.8154 38.0269 17.8622 37.1585C21.1068 36.2356 23.7468 34.9191 25.2959 33.4523C26.341 32.4643 26.8905 31.4212 26.93 30.3525ZM9.38688 21.5077C12.9191 21.6381 17.2418 22.7373 20.6687 24.3762C22.4453 25.2256 23.9068 26.1916 24.895 27.1722C25.968 28.2362 26.4938 29.3006 26.4556 30.335C26.421 31.271 25.9229 32.2013 24.9735 33.0967C23.4782 34.5104 20.9072 35.7859 17.7353 36.6909C14.7342 37.5449 11.4716 37.9791 8.78477 37.8799C5.60333 37.7624 3.68387 36.9422 2.74714 35.2989C1.9056 33.8218 1.90621 31.8533 1.99559 29.4321C2.10001 26.6035 2.29648 24.3305 3.75918 22.9477C4.88827 21.8802 6.72706 21.4095 9.38688 21.5077Z" fill="white"/>
<path d="M50.2263 22.7725C43.1304 22.5106 32.48 25.8963 32.3082 30.5512C32.1363 35.206 42.5082 39.3678 49.604 39.6297C56.6999 39.8916 57.0708 36.1264 57.2426 31.4716C57.4144 26.8167 57.3221 23.0344 50.2263 22.7725Z" fill="#D8405E"/>
<path d="M57.4807 31.4808C57.5697 29.0687 57.5694 26.942 56.6667 25.3527C55.6413 23.5503 53.5963 22.6544 50.235 22.5303C47.501 22.4294 44.1842 22.8684 41.1375 23.7367C37.8929 24.6597 35.2529 25.9761 33.7038 27.4429C32.6587 28.431 32.1091 29.474 32.0696 30.5427C31.9874 32.7695 34.139 35.0489 38.1278 36.9584C41.6078 38.6245 46.002 39.74 49.5926 39.8726C52.3851 39.9757 54.338 39.4634 55.5628 38.3032C57.163 36.7925 57.3721 34.4215 57.4807 31.4808ZM41.2643 24.2043C44.2655 23.3503 47.5281 22.9162 50.2149 23.0154C53.3963 23.1328 55.3158 23.953 56.2525 25.5963C57.094 27.0734 57.0934 29.0419 57.004 31.4632C56.8996 34.2918 56.7032 36.5647 55.2382 37.9475C54.1091 39.015 52.2681 39.4855 49.6105 39.3874C46.0783 39.257 41.7556 38.1579 38.3287 36.5189C36.5521 35.6696 35.0906 34.7036 34.1024 33.7229C33.0294 32.659 32.5036 31.5946 32.5418 30.5602C32.5763 29.6242 33.0745 28.6938 34.024 27.7962C35.5215 26.3848 38.0925 25.107 41.2643 24.2043Z" fill="white"/>
<path d="M21.7449 9.54843C26.5747 14.8416 31.0085 25.2512 27.6516 28.425C24.297 31.5965 14.423 26.3279 9.59539 21.0371C4.76559 15.7439 7.32772 12.9991 10.6824 9.82756C14.0392 6.6561 16.9173 4.25758 21.7449 9.54843Z" fill="#D8405E"/>
<path d="M27.9941 19.6993C26.6936 16.0168 24.3675 12.0626 21.9223 9.38283C19.6351 6.87614 17.6318 5.88783 15.6205 6.2742C13.8473 6.61437 12.2628 8.00419 10.5248 9.64731C8.78452 11.2926 7.30836 12.7964 6.84433 14.5714C6.3174 16.5869 7.13804 18.6911 9.42527 21.1978C11.8705 23.8776 15.5707 26.5304 19.085 28.1222C23.113 29.9461 26.2137 30.1156 27.821 28.5982C29.4213 27.0852 29.484 23.9228 27.9941 19.6993ZM15.7064 6.75174C17.5431 6.40017 19.4064 7.33977 21.5724 9.71366C23.9765 12.3484 26.2645 16.237 27.5445 19.8638C28.2091 21.7445 28.5683 23.4788 28.5862 24.8842C28.6065 26.4089 28.2382 27.5412 27.4917 28.2469C26.7452 28.9527 25.6088 29.243 24.1165 29.11C22.7409 28.9882 21.0683 28.4933 19.2746 27.6823C15.8157 26.1155 12.1746 23.5061 9.77062 20.8691C7.60457 18.4952 6.81915 16.5344 7.30128 14.696C7.73376 13.0436 9.10227 11.6504 10.8449 10.0029C12.5898 8.35542 14.0557 7.06893 15.7064 6.75174Z" fill="white"/>
<path d="M49.532 40.0016C44.7022 34.7084 34.8305 29.4422 31.4758 32.6137C28.1212 35.7852 32.5549 46.1971 37.3826 51.4879C42.2124 56.7812 45.0904 54.3826 48.4451 51.2111C51.7997 48.0396 54.3618 45.2948 49.532 40.0016Z" fill="#D8405E"/>
<path d="M52.288 46.4645C52.8148 44.4513 51.9943 42.3447 49.7071 39.8381C47.2619 37.1582 43.5616 34.5054 40.0474 32.9136C36.0193 31.0898 32.9186 30.9203 31.3114 32.4376C29.7064 33.955 29.6437 37.1175 31.1335 41.3409C32.434 45.0235 34.7601 48.9776 37.2053 51.6574C39.4926 54.1641 41.4959 55.1525 43.5072 54.7661C45.2803 54.4259 46.8649 53.0361 48.6028 51.393C50.3456 49.7432 51.824 48.2394 52.288 46.4645ZM35.0113 31.9257C36.387 32.0475 38.0595 32.5424 39.8533 33.3534C43.3122 34.9202 46.9532 37.5296 49.3573 40.1643C51.5234 42.5382 52.3088 44.499 51.8266 46.3375C51.3942 47.9898 50.0256 49.383 48.283 51.0305C46.538 52.6803 45.0744 53.9669 43.4237 54.2818C41.5871 54.6333 39.7238 53.6937 37.5578 51.3198C35.1537 48.6851 32.8657 44.7965 31.5857 41.1697C30.9211 39.289 30.5619 37.5547 30.5439 36.1493C30.5237 34.6246 30.8919 33.4923 31.6384 32.7866C32.3825 32.0853 33.519 31.795 35.0113 31.9257Z" fill="white"/>
<path d="M50.176 22.5355C44.969 27.4582 34.7359 31.9822 31.6242 28.572C28.5125 25.1618 33.7018 15.1051 38.9065 10.1823C44.1133 5.26189 46.8067 7.86607 49.9184 11.2763C53.0301 14.6865 55.3829 17.6127 50.176 22.5355Z" fill="#D8405E"/>
<path d="M53.4009 16.2925C53.069 14.4881 51.7056 12.8772 50.0935 11.1104C48.4791 9.34357 47.0036 7.84079 45.2604 7.37082C43.2831 6.83721 41.2123 7.67514 38.7465 10.0064C36.1104 12.4986 33.4992 16.2682 31.9306 19.8471C30.1312 23.9492 29.9629 27.1054 31.4515 28.7393C32.9403 30.3709 36.0473 30.4306 40.1989 28.9087C43.8187 27.5803 47.7067 25.2076 50.3428 22.7153C52.8043 20.3793 53.7778 18.3413 53.4009 16.2925ZM45.1373 7.83836C46.7602 8.27638 48.1272 9.66745 49.7436 11.439C51.3622 13.2129 52.6244 14.7009 52.9315 16.3828C53.2746 18.2517 52.349 20.1494 50.0138 22.3571C47.422 24.8075 43.5985 27.1413 40.0334 28.4511C38.1847 29.13 36.4803 29.4979 35.0994 29.5179C33.6014 29.5406 32.4895 29.1649 31.797 28.4083C31.1045 27.6495 30.8208 26.4932 30.9534 24.9741C31.0749 23.5738 31.5633 21.8686 32.3624 20.0441C33.9063 16.5216 36.4748 12.8123 39.0688 10.362C41.404 8.15429 43.3316 7.35233 45.1373 7.83836Z" fill="white"/>
<path d="M20.22 50.8538C25.4269 45.9311 30.6138 35.8767 27.5022 32.4664C24.3905 29.0562 14.155 33.5825 8.95044 38.503C3.74352 43.4257 6.09632 46.3519 9.20799 49.7621C12.3219 53.1724 15.0153 55.7766 20.22 50.8538Z" fill="#D8405E"/>
<path d="M27.1984 41.1933C28.9978 37.0912 29.1661 33.935 27.6775 32.3011C26.1887 30.6695 23.0817 30.6098 18.9302 32.1317C15.3103 33.4602 11.4223 35.8329 8.78622 38.3251C6.32041 40.6564 5.34677 42.6966 5.72376 44.7432C6.05566 46.5475 7.4191 48.1585 9.0312 49.9253C10.6455 51.6944 12.121 53.1949 13.8643 53.6649C15.8416 54.1985 17.9124 53.3606 20.3782 51.0293C23.0187 48.5395 25.6299 44.7699 27.1984 41.1933ZM19.0934 32.5892C20.9421 31.9104 22.6465 31.5425 24.0274 31.5224C25.5254 31.4998 26.6373 31.8754 27.3298 32.632C28.0222 33.3909 28.306 34.5472 28.1734 36.0662C28.0519 37.4665 27.5635 39.1695 26.7644 40.9962C25.2204 44.5188 22.652 48.2281 20.0579 50.6783C17.7227 52.8861 15.7952 53.688 13.9896 53.1997C12.3667 52.7617 10.9996 51.3706 9.38329 49.5968C7.7647 47.8229 6.50254 46.3349 6.19531 44.6552C5.85228 42.7863 6.77788 40.8887 9.11306 38.6809C11.7049 36.2306 15.5284 33.8968 19.0934 32.5892Z" fill="white"/>
</g>
<defs>
<clipPath id="clip0_166_842">
<rect width="57" height="56" fill="white" transform="translate(58.5322 3) rotate(92.114)"/>
</clipPath>
</defs>
</svg>
