<svg width="190" height="191" viewBox="0 0 190 191" fill="none" xmlns="http://www.w3.org/2000/svg">
<g id="Frame 101">
<rect width="190" height="191" rx="40" fill="white"/>
<g id="Group">
<path id="Vector" d="M144.951 56.1634C136.142 44.5573 119.505 45.2289 106.912 44.6004C98.8613 44.1992 90.822 44.3137 82.7676 44.3772C77.3672 44.42 71.9494 44.4939 66.5919 45.3149C55.3766 47.0324 44.9739 52.7034 40.313 64.5879C38.0358 70.3898 36.2776 77.6515 38.2306 83.8446C40.7884 91.9556 48.886 92.5206 55.6202 92.6559C57.6516 92.6948 59.693 92.5985 61.706 92.2628C59.4776 99.8543 57.2173 107.513 55.5714 115.284C54.3409 121.086 52.5655 128.438 54.429 134.32C55.9626 139.166 60.0658 142.077 64.3295 143.657C71.5935 146.348 79.7884 146.472 87.3818 146.614C95.2187 146.759 103.093 146.765 110.914 146.149C117.473 145.631 125.108 145.189 130.618 140.757C135.387 136.918 136.007 131.112 135.5 125.06C134.764 116.285 132.11 107.871 129.809 99.4796C129.11 96.9328 128.387 94.3941 127.644 91.8636C135.007 93.0347 145.999 93.9374 150.31 85.6563C152.648 81.1647 151.992 75.5837 151.065 70.7463C150.054 65.4846 148.112 60.3254 144.951 56.1634Z" fill="white"/>
<path id="Vector_2" d="M144.95 56.1635C140.523 50.3309 149.014 61.5172 144.95 56.1635V56.1635Z" fill="white"/>
<g id="Group_2">
<path id="Vector_3" d="M128.121 52.7346C123.709 51.7909 119.117 51.4653 114.741 51.0865C105.422 50.2758 96.0498 50.1039 86.707 50.2758C72.5668 50.5359 54.2034 49.1561 46.3101 64.6518C43.664 69.8497 39.3833 84.5206 47.9018 85.9351C52.8457 86.7562 64.2968 88.14 67.7124 82.7189C69.6959 79.5721 66.7576 73.3834 70.6001 71.8807C71.7555 71.4301 72.9673 71.1211 74.1974 70.8938C70.7279 81.2427 67.4673 91.6757 64.5612 102.232C62.1528 110.971 59.4732 120.229 59.198 129.427C58.988 136.402 65.7297 138.39 70.9804 139.307C78.7707 140.669 86.8006 140.724 94.6676 140.724C102.567 140.722 110.595 140.536 118.426 139.312C123.934 138.449 130.237 136.585 130.25 129.427C130.265 120.329 127.22 110.84 124.885 102.232C122.001 91.5998 118.679 81.1038 115.184 70.6952C116.99 71.0249 118.686 71.547 120.093 72.4069C122.321 73.7683 119.596 81.4025 122.718 83.7794C125.45 85.8593 129.029 86.1438 132.254 86.3651C138.574 86.797 146.877 87.1614 146.445 77.961C146.145 71.5612 144.465 64.8297 140.767 59.9573C137.495 55.6479 133.778 53.9425 128.121 52.7346Z" fill="#68182B"/>
<path id="Vector_4" d="M82.7866 71.8317C82.7194 70.1959 83.2923 69.9318 84.3559 69.8683C91.0374 69.4875 97.7641 69.6287 104.43 69.9933C106.313 70.0936 106.764 70.2942 106.654 71.9709C106.399 75.8012 101.77 74.3007 98.8444 74.3068C97.6291 74.309 96.4136 74.3068 95.1987 74.3068C93.7116 74.3068 92.2268 74.3068 90.7415 74.3068C87.7661 74.3068 82.9534 75.8505 82.7866 71.8317Z" fill="#FF7A0D"/>
<path id="Vector_5" d="M142.137 82.4956C140.883 83.5478 137.019 83.1077 135.502 83.1465C133.158 83.21 130.8 83.0606 128.482 82.6616C125.396 82.1292 123.862 81.3348 123.675 77.6068C123.535 74.7797 123.866 70.6952 121.078 69.2848C116.222 66.83 109.639 67.0308 104.432 66.7176C96.2593 66.2244 88.0199 66.2325 79.8589 66.9326C75.3233 67.3216 69.1042 67.3483 66.1395 71.6741C65.0517 73.2626 65.516 76.1801 65.6172 77.9449C65.8271 81.5931 63.6771 82.064 60.9639 82.6618C57.385 83.4479 50.7671 84.1827 47.3102 82.496C44.3889 81.0689 46.5313 73.6191 47.093 71.3016C47.9449 67.7924 49.5632 64.6029 51.6659 61.8167C54.3029 58.3261 57.6454 56.7273 61.5197 55.8183C69.3531 53.9797 77.604 53.7916 85.5815 53.5764C94.6056 53.335 103.649 53.5519 112.656 54.1966C119.351 54.6757 126.549 55.0751 132.939 57.5317C138.51 60.2403 141.19 65.6062 142.639 71.8871C143.255 74.5625 144.628 80.4034 142.137 82.4956Z" fill="#DDA96B"/>
<path id="Vector_6" d="M126.823 124.522C124.158 106.805 118.326 89.4441 112.652 72.6115C112.184 71.2255 112.166 70.2961 110.965 70.2243C110.487 70.1956 110.012 70.1751 109.538 70.1567C110.036 73.6267 110.134 77.5555 105.986 77.5658C102.074 77.5739 98.1619 77.5822 94.25 77.5822C90.2946 77.5822 86.2555 77.8546 82.3247 77.4492C79.0399 77.1092 79.5009 72.849 79.8977 70.2061C79.8847 70.2061 79.8716 70.2081 79.8586 70.2081C79.5009 70.2429 79.1393 70.2756 78.778 70.3104C77.5381 70.4271 77.4578 70.638 76.9184 72.2451C73.9782 81.0298 71.1747 89.8763 68.6468 98.8124C66.1485 107.642 63.3624 116.812 62.4259 126.039C61.9259 130.979 62.2481 133.094 67.0943 134.969C69.2273 135.796 71.5156 136.165 73.7572 136.435C80.6899 137.273 87.6955 137.481 94.6671 137.448C101.924 137.414 109.25 137.26 116.463 136.308C119.165 135.952 122.199 135.606 124.622 134.113C128.118 131.964 127.386 128.273 126.823 124.522ZM116.54 109.853C115.121 123.941 104.349 132.144 91.7275 130.5C80.6524 129.059 71.9448 121.343 71.2988 108.537C70.4372 91.4342 81.1394 81.8346 96.2442 81.8142C110.858 82.4732 118.079 94.5806 116.54 109.853Z" fill="#DDA96B"/>
<path id="Vector_7" d="M93.2745 111.807C90.9279 111.583 89.3308 109.978 88.8101 107.511C87.8643 103.026 91.0704 100.692 94.7109 100.637C98.3999 100.882 99.7238 104.029 99.1283 107.72C98.6024 110.977 96.0105 112.068 93.2745 111.807Z" fill="#FF2E60"/>
<path id="Vector_8" d="M96.8109 89.4277C98.1744 89.5199 98.6292 90.6706 98.4085 92.034C98.208 93.2787 97.2456 93.635 96.2081 93.5367C95.3374 93.4528 94.7832 92.849 94.5921 91.946C94.2344 90.2486 95.4626 89.4502 96.8109 89.4277Z" fill="#FBE134"/>
<path id="Vector_9" d="M107.414 96.1966C107.212 97.4413 106.249 97.7954 105.214 97.6971C104.341 97.6132 103.787 97.0093 103.598 96.1086C103.24 94.4114 104.467 93.611 105.817 93.5903C107.18 93.6803 107.633 94.8328 107.414 96.1966Z" fill="#FBE134"/>
<path id="Vector_10" d="M109.662 105.772C109.462 107.018 108.497 107.372 107.462 107.274C106.591 107.19 106.037 106.586 105.846 105.684C105.488 103.988 106.717 103.188 108.067 103.167C109.428 103.259 109.883 104.408 109.662 105.772Z" fill="#FBE134"/>
<path id="Vector_11" d="M107.413 115.582C107.21 116.827 106.248 117.183 105.212 117.083C104.339 117.001 103.785 116.397 103.594 115.494C103.236 113.797 104.465 112.998 105.815 112.978C107.176 113.068 107.632 114.218 107.413 115.582Z" fill="#FBE134"/>
<path id="Vector_12" d="M99.8115 121.531C99.611 122.776 98.6467 123.132 97.6112 123.032C96.7383 122.948 96.1841 122.346 95.9949 121.443C95.6355 119.746 96.8659 118.947 98.2142 118.925C99.5773 119.017 100.033 120.165 99.8115 121.531Z" fill="#FBE134"/>
<path id="Vector_13" d="M89.9536 120.329C89.7531 121.576 88.7907 121.93 87.7533 121.832C86.8823 121.748 86.3281 121.144 86.137 120.244C85.7793 118.546 87.0081 117.746 88.3582 117.726C89.7194 117.815 90.1747 118.966 89.9536 120.329Z" fill="#FBE134"/>
<path id="Vector_14" d="M82.9847 112.98C82.7842 114.225 81.8199 114.581 80.7842 114.481C79.9117 114.399 79.3571 113.795 79.1683 112.892C78.8105 111.197 80.039 110.396 81.3872 110.376C82.7507 110.466 83.2056 111.616 82.9847 112.98Z" fill="#FBE134"/>
<path id="Vector_15" d="M81.2328 99.4941C82.5963 99.5864 83.0512 100.737 82.8305 102.1C82.63 103.345 81.6675 103.701 80.63 103.601C79.7593 103.519 79.2029 102.913 79.014 102.012C78.6561 100.315 79.8844 99.5148 81.2328 99.4941Z" fill="#FBE134"/>
<path id="Vector_16" d="M111.412 93.9034C108.125 87.6797 102.597 85.3766 96.2435 85.0898C83.2152 85.1084 72.8895 93.2175 74.2942 108.537C75.2736 119.208 82.0375 126.209 91.7268 127.225C102.339 128.338 111.773 122.801 113.438 110.583C114.176 105.163 113.981 98.7718 111.412 93.9034ZM105.815 91.6247C108.221 91.7843 109.608 93.85 109.189 96.446C108.826 98.6899 107.075 99.9222 105.043 99.6377C103.174 99.3756 101.743 97.8628 101.77 95.7172C101.803 93.0947 103.5 91.6615 105.815 91.6247ZM96.8107 87.4625C99.2172 87.6243 100.605 89.686 100.185 92.284C99.8237 94.5279 98.0729 95.7625 96.0393 95.4777C94.1703 95.2156 92.7397 93.7008 92.7658 91.5552C92.7998 88.9345 94.4964 87.4996 96.8107 87.4625ZM87.193 89.1188C89.5992 89.2785 90.9868 91.3443 90.5673 93.9402C90.2042 96.1861 88.453 97.4165 86.4194 97.1319C84.5504 96.8698 83.1198 95.3568 83.1479 93.2114C83.1799 90.5887 84.8765 89.1558 87.193 89.1188ZM81.2323 97.5291C83.6388 97.6909 85.0265 99.7546 84.607 102.351C84.2454 104.594 82.4946 105.829 80.4609 105.544C78.5919 105.282 77.1613 103.767 77.1874 101.622C77.2209 99.0011 78.9197 97.5659 81.2323 97.5291ZM80.6145 116.423C78.7455 116.161 77.3149 114.646 77.3409 112.503C77.375 109.88 79.0714 108.445 81.3858 108.41C83.7924 108.57 85.1817 110.636 84.7605 113.229C84.3971 115.476 82.6481 116.708 80.6145 116.423ZM91.7321 120.579C91.369 122.825 89.6178 124.058 87.5842 123.773C85.7152 123.511 84.2846 121.998 84.311 119.853C84.3447 117.23 86.043 115.797 88.3578 115.76C90.7621 115.92 92.1498 117.985 91.7321 120.579ZM92.8727 115.027C88.7642 114.452 85.6665 111.084 85.7265 106.398C85.7716 102.719 87.2734 100.129 89.663 98.6939C93.0956 96.6302 97.7435 97.1871 100.184 99.9368C101.893 101.861 102.644 104.705 102.122 107.941C101.303 113.009 97.4494 115.668 92.8727 115.027ZM101.588 121.781C101.227 124.025 99.4736 125.259 97.4418 124.975C95.5728 124.711 94.1422 123.198 94.1686 121.052C94.2023 118.432 95.8989 116.997 98.2135 116.96C100.62 117.121 102.007 119.185 101.588 121.781ZM109.189 115.832C108.828 118.078 107.075 119.31 105.043 119.025C103.172 118.764 101.743 117.248 101.77 115.103C101.802 112.483 103.5 111.047 105.815 111.012C108.221 111.172 109.608 113.236 109.189 115.832ZM111.44 106.021C111.077 108.267 109.326 109.499 107.292 109.215C105.423 108.953 103.992 107.438 104.02 105.294C104.054 102.672 105.751 101.239 108.065 101.202C110.472 101.364 111.857 103.425 111.44 106.021Z" fill="#FF7A0D"/>
<path id="Vector_17" d="M87.194 91.084C88.5552 91.174 89.0104 92.3269 88.7912 93.6903C88.5889 94.935 87.6264 95.289 86.5893 95.191C85.7182 95.107 85.164 94.503 84.9729 93.6023C84.6152 91.905 85.8438 91.1046 87.194 91.084Z" fill="#FBE134"/>
<path id="Vector_18" d="M142.969 79.1138C140.934 81.3761 137.737 81.1468 135.063 81.1551C132.449 81.1631 129.258 81.2266 126.911 79.8038C125.071 78.6879 125.653 74.8309 125.391 72.88C124.938 69.5184 123.316 67.6082 120.389 66.515C117.76 65.5324 114.85 65.4606 112.11 65.2741C108.046 64.9999 103.977 64.83 99.908 64.7091C92.2 64.4798 84.3726 64.1421 76.687 64.9344C72.7938 65.3354 66.5504 65.6733 64.0728 69.6327C63.2303 70.9777 63.1517 72.81 63.084 74.3803C63.0203 75.8646 63.2845 77.4513 62.719 78.8454C62.1291 80.297 60.4436 80.7864 59.1647 81.0748C56.8817 81.5908 54.4345 81.3615 52.1234 81.2529C49.3408 81.1221 47.0937 80.5999 45.8238 78.2086C45.7376 80.1577 46.0541 81.8835 47.3088 82.4956C50.7656 84.1826 57.3835 83.4475 60.9625 82.6614C63.6757 82.0636 65.8257 81.5927 65.6157 77.9445C65.5146 76.1797 65.0503 73.2624 66.1381 71.6737C69.1027 67.3477 75.3218 67.3213 79.8575 66.9322C88.0184 66.2321 96.2579 66.224 104.43 66.7172C109.638 67.0305 116.221 66.8298 121.076 69.2844C123.865 70.695 123.533 74.7793 123.673 77.6064C123.861 81.3346 125.395 82.1288 128.481 82.6612C130.799 83.0604 133.157 83.2099 135.501 83.1462C137.018 83.1075 140.881 83.5474 142.136 82.4952C143.181 81.6169 143.54 80.0752 143.567 78.3882C143.378 78.6367 143.179 78.8802 142.969 79.1138Z" fill="#C48D51"/>
<path id="Vector_19" d="M123.842 132.048C121.973 133.301 119.637 133.69 117.518 134.102C114.401 134.707 111.248 135.082 108.096 135.383C96.8319 136.452 85.1149 136.491 73.922 134.574C70.7141 134.026 65.4055 133.584 64.4314 129.503C63.7366 126.59 64.4671 123.001 64.9184 120.139C65.4127 117.013 66.0457 113.891 66.7497 110.814C68.8679 101.568 71.7687 92.5338 74.2647 83.405C75.1767 80.0618 76.1486 76.6305 76.6186 73.1562C73.789 81.6402 71.0887 90.1854 68.6468 98.8127C66.1485 107.643 63.3624 116.812 62.4259 126.039C61.9259 130.979 62.2481 133.094 67.0943 134.97C69.2273 135.797 71.5156 136.165 73.7572 136.435C80.6899 137.273 87.6955 137.482 94.6671 137.449C101.924 137.414 109.25 137.26 116.463 136.308C119.165 135.952 122.199 135.606 124.622 134.114C127.74 132.197 127.495 129.055 127.006 125.736C126.855 128.261 126.059 130.564 123.842 132.048Z" fill="#C48D51"/>
<path id="Vector_20" d="M141.671 68.4273C140.07 63.6675 137.454 59.7266 132.939 57.5318C126.55 55.0752 119.351 54.6758 112.657 54.1967C103.649 53.552 94.6061 53.3348 85.582 53.5765C77.6045 53.7915 69.3536 53.9797 61.5202 55.8184C57.6459 56.7274 54.3032 58.3262 51.6663 61.8168C49.942 64.1015 48.5524 66.6607 47.6348 69.4408C48.6854 67.3792 49.9943 65.4752 51.5898 63.7759C55.7695 59.3231 61.3667 57.5646 67.0016 56.7559C77.5146 55.2469 88.2451 55.1897 98.8293 55.421C109.133 55.6461 120.078 55.7791 130.119 58.5472C135.7 60.0847 139.183 63.7371 141.671 68.4273Z" fill="#F4C38E"/>
<path id="Vector_21" d="M115.845 98.1305C116.721 101.685 116.965 105.648 116.541 109.853C115.122 123.94 104.35 132.144 91.7289 130.5C80.6538 129.059 71.9462 121.343 71.3003 108.537C71.0698 103.961 71.6745 99.9262 72.9628 96.4644C69.9819 103.292 70.5156 112.2 72.9762 119.084C76.4798 128.889 86.1482 133.082 95.2215 132.938C104.867 132.785 112.676 126.809 116.042 116.927C118.037 111.067 118.045 104.037 115.845 98.1305Z" fill="#F4C38E"/>
<g id="Group_3">
<path id="Vector_22" d="M86.5885 95.1909C87.6257 95.2889 88.5883 94.9348 88.7905 93.6902C88.8469 93.3421 88.8561 93.0085 88.8204 92.7013C88.6332 93.9029 87.6799 94.8426 86.3843 94.5007C85.3149 94.2161 85.122 92.6479 85.5826 91.6099C85.0656 92.0194 84.7755 92.6703 84.972 93.602C85.1632 94.5027 85.7174 95.1069 86.5885 95.1909Z" fill="#FFC522"/>
<path id="Vector_23" d="M99.1263 107.721C99.3716 106.204 99.2856 104.785 98.8511 103.616C99.4465 106.365 97.9952 109.373 95.2838 110.278C91.1976 111.641 88.5758 106.388 89.8157 102.67C88.8344 103.812 88.3699 105.426 88.8081 107.512C89.3286 109.979 90.9259 111.584 93.2725 111.807C96.0083 112.069 98.6002 110.978 99.1263 107.721Z" fill="#EA0F4D"/>
<path id="Vector_24" d="M109.707 105.063C109.475 106.208 108.548 107.078 107.295 106.746C106.106 106.431 105.998 104.531 106.668 103.532C106.016 103.923 105.623 104.629 105.846 105.684C106.037 106.587 106.591 107.19 107.462 107.274C108.497 107.372 109.462 107.018 109.662 105.772C109.702 105.526 109.713 105.29 109.707 105.063Z" fill="#FFC522"/>
<path id="Vector_25" d="M105.009 97.1051C103.878 96.8062 103.732 95.0721 104.299 94.0444C103.725 94.4479 103.389 95.1213 103.597 96.1083C103.786 97.009 104.34 97.6129 105.213 97.6968C106.249 97.7951 107.211 97.441 107.413 96.1963C107.464 95.8768 107.475 95.5718 107.451 95.2871C107.269 96.4992 106.312 97.4491 105.009 97.1051Z" fill="#FFC522"/>
<path id="Vector_26" d="M107.45 114.722C107.246 115.901 106.304 116.814 105.023 116.477C103.894 116.178 103.746 114.45 104.31 113.422C103.727 113.824 103.387 114.501 103.594 115.494C103.786 116.397 104.34 117.001 105.213 117.083C106.248 117.183 107.211 116.827 107.413 115.582C107.462 115.281 107.471 114.992 107.45 114.722Z" fill="#FFC522"/>
<path id="Vector_27" d="M96.0146 92.9062C94.9022 92.6116 94.7433 90.9307 95.2769 89.8989C94.7133 90.3022 94.3874 90.9717 94.5934 91.946C94.7845 92.849 95.3387 93.4528 96.2094 93.5367C97.2469 93.635 98.2096 93.2789 98.4099 92.034C98.4622 91.7167 98.4717 91.4118 98.4471 91.1272C98.2506 92.3187 97.303 93.2461 96.0146 92.9062Z" fill="#FFC522"/>
<path id="Vector_28" d="M99.8553 120.825C99.5857 121.91 98.6794 122.714 97.4679 122.393C96.3368 122.094 96.1909 120.364 96.7545 119.336C96.142 119.734 95.7787 120.424 95.994 121.443C96.1833 122.346 96.7377 122.948 97.6104 123.032C98.6459 123.132 99.6102 122.776 99.8107 121.531C99.8499 121.285 99.8593 121.05 99.8553 120.825Z" fill="#FFC522"/>
<path id="Vector_29" d="M89.9883 119.378C89.7711 120.542 88.8368 121.435 87.5692 121.101C86.5146 120.821 86.3088 119.291 86.7433 118.253C86.2281 118.663 85.9397 119.314 86.1364 120.244C86.3274 121.144 86.8816 121.748 87.7527 121.832C88.7898 121.93 89.7525 121.576 89.953 120.329C90.0072 119.996 90.0205 119.674 89.9883 119.378Z" fill="#FFC522"/>
<path id="Vector_30" d="M79.0134 102.013C79.2022 102.913 79.7586 103.519 80.6293 103.601C81.6668 103.702 82.6295 103.345 82.8298 102.101C82.8803 101.783 82.8916 101.48 82.867 101.196C82.6387 102.344 81.7098 103.218 80.4532 102.887C79.3839 102.604 79.1909 101.038 79.6497 100C79.1164 100.407 78.8128 101.067 79.0134 102.013Z" fill="#FFC522"/>
<path id="Vector_31" d="M83.0257 112.169C82.7747 113.287 81.8587 114.124 80.6249 113.799C79.5273 113.508 79.3569 111.872 79.8608 110.836C79.2914 111.24 78.9601 111.913 79.1679 112.892C79.3567 113.795 79.9115 114.399 80.7838 114.48C81.8197 114.581 82.784 114.225 82.9843 112.98C83.0311 112.697 83.0387 112.427 83.0257 112.169Z" fill="#FFC522"/>
</g>
<path id="Vector_32" d="M110.062 91.731C110.76 93.0351 111.354 94.4088 111.852 95.803C113.545 100.532 113.403 105.71 112.382 110.582C110.695 118.653 106.094 124.195 98.53 125.673C90.5486 127.233 82.071 124.274 77.6012 116.595C74.045 110.482 73.9645 102.632 76.3128 95.9708C74.6181 99.3876 73.8388 103.583 74.294 108.537C75.2734 119.207 82.0373 126.209 91.7266 127.224C102.339 128.338 111.773 122.8 113.438 110.582C114.176 105.163 113.981 98.7716 111.412 93.9031C110.996 93.1192 110.547 92.3963 110.062 91.731Z" fill="#EF6200"/>
<path id="Vector_33" d="M101.792 100.815C98.9994 96.0981 92.2694 95.2503 88.3518 98.7943C84.5934 102.195 83.7114 108.48 87.6252 112.11C86.4152 110.625 85.6981 108.668 85.728 106.398C85.7732 102.719 87.275 100.129 89.6645 98.694C93.0971 96.6303 97.7451 97.1872 100.185 99.9369C101.895 101.861 102.645 104.705 102.123 107.942C101.912 109.248 101.496 110.39 100.921 111.361C103.241 108.607 103.691 104.025 101.792 100.815Z" fill="#EF6200"/>
<path id="Vector_34" d="M104.432 69.9933C97.7661 69.6287 91.0394 69.4875 84.3579 69.8683C83.2943 69.9318 82.7212 70.1959 82.7885 71.8317C82.7961 72.0263 82.8242 72.1984 82.8542 72.3662C83.783 71.5369 84.9367 71.2012 86.4045 71.144C88.7435 71.0558 91.0846 71.0437 93.4252 71.0293C97.8408 71.0026 102.397 70.6833 106.659 71.8667C106.739 70.2942 106.269 70.0916 104.432 69.9933Z" fill="#EF6200"/>
<path id="Vector_35" d="M77.6133 93.7519C82.0964 89.428 87.3284 86.9018 93.6767 86.2528C97.9933 85.8126 102.396 86.396 106.364 88.126C103.477 86.1465 100.006 85.2599 96.2443 85.0898C88.3922 85.1022 81.5254 88.0563 77.6133 93.7519Z" fill="#FFB85A"/>
</g>
</g>
</g>
</svg>
