<svg width="331" height="247" viewBox="0 0 331 247" fill="none" xmlns="http://www.w3.org/2000/svg">
<path d="M108.442 77.9398C112.684 50.834 94.1467 25.4219 67.0373 21.1804C39.928 16.939 14.5127 35.4742 10.2707 62.5801C6.02867 89.686 24.5663 115.098 51.6757 119.34C78.785 123.581 104.2 105.046 108.442 77.9398Z" fill="#EFFBFC"/>
<path d="M60.6129 20.6133C60.2917 31.9884 58.2216 43.5419 52.7876 53.6055C47.4607 63.4728 39.2071 71.6629 30.5253 78.6039C25.1984 82.8595 19.6484 86.785 14.0449 90.6392C21.8256 107.903 39.1804 119.929 59.3458 119.929C86.7834 119.929 109.028 97.6873 109.028 70.2532C109.028 43.2385 87.4615 21.2824 60.6129 20.6133Z" fill="#D1ECED"/>
<path d="M82.7465 93.6487C95.6706 80.7262 95.6706 59.7748 82.7465 46.8523C69.8224 33.9298 48.8683 33.9299 35.9441 46.8523C23.02 59.7748 23.02 80.7262 35.9441 93.6487C48.8683 106.571 69.8224 106.571 82.7465 93.6487Z" fill="#BEE6E8"/>
<path d="M59.3452 37.1631C58.9169 37.1631 58.4975 37.1809 58.0782 37.1988C58.6582 42.7213 58.7206 48.2973 58.2031 53.793C56.6773 70.0126 51.3326 85.2596 43.543 99.338C48.2363 101.898 53.6257 103.344 59.3452 103.344C77.619 103.344 92.4398 88.5249 92.4398 70.2534C92.4398 51.973 77.619 37.1631 59.3452 37.1631Z" fill="#A5CECE"/>
<path d="M295.869 105.377C315.271 85.9778 315.271 54.5252 295.869 35.1258C276.467 15.7264 245.011 15.7264 225.609 35.1258C206.207 54.5252 206.207 85.9778 225.609 105.377C245.011 124.776 276.467 124.776 295.869 105.377Z" fill="#EFFBFC"/>
<path d="M293.666 68.7991C288.438 65.6498 283.548 61.9473 278.533 58.4768C267.157 50.6258 255.611 42.6142 245.805 32.8093C243.512 30.5253 241.281 28.0808 239.211 25.5024C222.561 33.523 211.068 50.5365 211.068 70.2534C211.068 97.6874 233.313 119.929 260.75 119.929C285.948 119.929 306.756 101.167 309.977 76.8465C304.338 74.5714 298.851 71.9217 293.666 68.7991Z" fill="#D1ECED"/>
<path d="M284.139 93.6496C297.063 80.7272 297.063 59.7757 284.139 46.8533C271.215 33.9308 250.261 33.9308 237.337 46.8533C224.413 59.7757 224.413 80.7272 237.337 93.6496C250.261 106.572 271.215 106.572 284.139 93.6496Z" fill="#BEE6E8"/>
<path d="M267.121 75.2937C262.267 63.5975 258.698 50.2685 258.707 37.2251C241.379 38.2779 227.646 52.6506 227.646 70.2441C227.646 88.5156 242.467 103.334 260.741 103.334C267.576 103.334 273.92 101.265 279.193 97.7138C274.232 90.6925 270.28 82.895 267.121 75.2937Z" fill="#A5CECE"/>
<path d="M319.73 247C316.634 181.185 295.085 19.3735 157.978 19.3735C20.8704 19.3735 1.9987 181.185 0 247H319.73Z" fill="#EFFBFC"/>
<path d="M153.427 247V19.4448C20.451 22.9867 1.98086 181.926 0 247H153.427Z" fill="#DAF1F2"/>
<path d="M111.757 103.531C116.887 103.531 121.046 99.3733 121.046 94.244C121.046 89.1147 116.887 84.9565 111.757 84.9565C106.627 84.9565 102.469 89.1147 102.469 94.244C102.469 99.3733 106.627 103.531 111.757 103.531Z" fill="#488787"/>
<path d="M119.369 90.2286C119.369 91.3348 118.468 92.2359 117.361 92.2359C116.255 92.2359 115.354 91.3348 115.354 90.2286C115.354 89.1223 116.255 88.2212 117.361 88.2212C118.468 88.2212 119.369 89.1223 119.369 90.2286Z" fill="#EFFBFC"/>
<path d="M210.515 103.531C215.645 103.531 219.804 99.3733 219.804 94.244C219.804 89.1147 215.645 84.9565 210.515 84.9565C205.385 84.9565 201.227 89.1147 201.227 94.244C201.227 99.3733 205.385 103.531 210.515 103.531Z" fill="#488787"/>
<path d="M150.134 141.047C150.134 141.047 148.867 155.66 159.583 155.66C170.3 155.66 169.033 141.047 169.033 141.047C169.033 141.047 157.701 135.801 159.583 119.929C159.583 119.92 162.376 132.767 150.134 141.047Z" fill="#FBB8A4"/>
<path d="M160.094 124.685C170.166 124.685 178.332 120.055 178.332 114.345C178.332 108.634 170.166 104.004 160.094 104.004C150.021 104.004 141.855 108.634 141.855 114.345C141.855 120.055 150.021 124.685 160.094 124.685Z" fill="#488787"/>
<path d="M159.583 124.685C159.583 135.114 151.124 143.572 140.693 143.572" stroke="#64A9AC" stroke-width="0.7173" stroke-miterlimit="10"/>
<path d="M159.584 124.685C159.584 135.114 168.043 143.572 178.473 143.572" stroke="#64A9AC" stroke-width="0.7173" stroke-miterlimit="10"/>
<path d="M217.591 90.2286C217.591 91.3348 216.69 92.2359 215.584 92.2359C214.477 92.2359 213.576 91.3348 213.576 90.2286C213.576 89.1223 214.477 88.2212 215.584 88.2212C216.69 88.2212 217.591 89.1223 217.591 90.2286Z" fill="#EFFBFC"/>
<path d="M175.279 111.373C175.279 112.479 174.378 113.38 173.271 113.38C172.165 113.38 171.264 112.479 171.264 111.373C171.264 110.266 172.165 109.365 173.271 109.365C174.378 109.365 175.279 110.257 175.279 111.373Z" fill="#EFFBFC"/>
<path d="M156.926 184.843L128.185 168.356C124.598 166.295 120.119 168.891 120.119 173.031V200.215C120.119 203.944 123.822 206.549 127.329 205.283L159.031 193.863L156.926 184.843Z" fill="#C94571"/>
<path d="M164.412 184.843L193.153 168.356C196.74 166.295 201.219 168.891 201.219 173.031V200.215C201.219 203.944 197.516 206.549 194.009 205.283L162.307 193.863L164.412 184.843Z" fill="#E8527D"/>
<path d="M169.57 198.026C174.083 193.514 174.083 186.199 169.57 181.687C165.058 177.175 157.742 177.175 153.229 181.687C148.717 186.199 148.717 193.514 153.229 198.026C157.742 202.538 165.058 202.538 169.57 198.026Z" fill="#E8527D"/>
<path d="M166.219 194.676C168.881 192.014 168.881 187.699 166.219 185.037C163.557 182.375 159.24 182.375 156.578 185.037C153.916 187.699 153.916 192.014 156.578 194.676C159.24 197.338 163.557 197.338 166.219 194.676Z" fill="#C94571"/>
</svg>
