<svg width="191" height="191" viewBox="0 0 191 191" fill="none" xmlns="http://www.w3.org/2000/svg">
<g id="Frame 102">
<rect width="191" height="191" rx="40" fill="white"/>
<g id="Group">
<path id="Vector" d="M141.051 54.401C139.884 53.784 138.705 53.3416 137.569 53.0159C137.097 48.7336 135.451 43.1744 129.501 40.4352C120.065 35.9884 109.704 42.2609 108.738 50.6953C100.913 50.4903 93.1266 50.5182 85.4262 50.8028C84.2788 40.9102 71.2715 35.3171 62.4634 41.6791C56.7084 46.4761 57.2474 49.7725 56.4943 53.8153C46.5897 55.8699 40.4536 64.6307 39.5814 74.1272C37.1948 91.824 38.2597 111.789 40.0598 127.356C40.6598 137.823 46.1595 147.456 58.2914 149.542C80.1027 152.969 106.405 151.862 127.536 149.982C132.777 149.473 138.681 149.443 143.96 145.426C153.942 137.188 152.322 119.388 152.793 107.656C152.856 98.4569 152.467 78.8461 150.55 68.941C149.177 61.9014 145.98 57.0101 141.051 54.401Z" fill="white"/>
<g id="Group_2">
<path id="Vector_2" d="M137.712 60.0779C136.091 59.2201 134.246 58.8586 132.383 58.6403C131.27 58.5096 130.929 58.1402 130.916 57.0575C130.869 53.1402 130.56 48.1488 126.506 46.2827C123.932 45.0973 120.681 45.2246 118.357 46.8784C116.487 48.2092 115.769 50.1292 115.408 52.2381C115.117 53.9325 114.945 55.6639 114.878 57.4047C102.977 56.9144 91.027 56.921 79.1359 57.6076C79.103 53.6219 78.966 48.2384 74.72 46.2827C72.1445 45.0973 68.895 45.2246 66.5706 46.8784C64.7008 48.2092 63.9833 50.1292 63.621 52.2381C63.307 54.0684 63.1294 55.9426 63.077 57.8265C63.0358 59.2947 63.421 59.0717 61.6778 59.3696C56.7898 60.1989 52.1522 61.6529 49.3592 65.969C47.576 68.7248 46.839 71.8978 46.3571 75.0576C45.0571 83.5882 45.02 92.3092 45.1704 100.91C45.32 109.456 45.7166 118.053 46.8528 126.537C47.2017 129.144 47.5073 131.87 48.4297 134.366C50.2471 139.281 54.3519 142.148 59.6567 143.175C64.8517 144.18 70.2557 144.517 75.5395 144.802C81.4624 145.12 87.3993 145.216 93.3319 145.181C104.495 145.116 115.696 144.659 126.798 143.521C130.973 143.093 136.205 143.089 139.575 140.43C142.572 138.064 143.887 134.005 144.517 130.465C145.866 122.861 145.894 114.984 145.94 107.295C146.01 95.8398 145.402 78.2711 143.812 70.1246C143.066 66.3046 141.488 62.0762 137.712 60.0779Z" fill="#68182B"/>
<path id="Vector_3" d="M59.6493 97.894C59.6241 96.4922 59.6695 95.0918 59.7564 93.692C59.8962 91.4365 59.6298 91.329 61.4857 90.8944C64.1199 90.2768 75.1349 88.8033 76.3608 91.7509C77.395 94.2385 76.9643 97.7301 76.9308 100.355C76.9286 100.584 76.9267 101.312 76.9062 102.077C76.8502 104.281 76.1796 104.473 73.8497 104.87C70.3953 105.458 66.0703 105.852 62.3424 105.227C61.1389 105.025 59.9719 104.432 59.7431 102.781C59.5108 101.102 59.6703 99.0549 59.6493 97.894Z" fill="#FFC522"/>
<path id="Vector_4" d="M76.9403 123.379C76.9655 124.78 76.9201 126.181 76.8332 127.58C76.6934 129.836 76.9605 129.943 75.104 130.378C73.167 130.832 66.6986 131.749 62.9225 131.031C60.3352 130.538 60.0946 129.658 59.7702 127.929C59.3491 125.677 59.6318 123.02 59.659 120.916C59.6626 120.667 59.6653 119.821 59.6905 118.981C59.75 116.967 60.8787 116.718 62.7393 116.402C65.9804 115.851 69.988 115.471 73.5481 115.941C75.967 116.26 76.7103 117.081 76.8941 118.892C77.0541 120.485 76.9206 122.308 76.9403 123.379Z" fill="#FFC522"/>
<path id="Vector_5" d="M86.8908 97.894C86.8656 96.4922 86.9111 95.0918 86.9986 93.692C87.1377 91.4365 86.8713 91.329 88.7279 90.8944C91.3619 90.2768 102.377 88.8033 103.602 91.7509C104.636 94.2385 104.206 97.7294 104.173 100.355C104.139 102.97 103.937 104.386 101.092 104.87C97.6996 105.447 93.4668 105.837 89.7843 105.259C87.6312 104.921 87.2705 105.264 86.9565 102.553C86.7671 100.921 86.9112 99.0031 86.8908 97.894Z" fill="#FFC522"/>
<path id="Vector_6" d="M118.922 54.0884C119.194 51.7644 119.461 49.9593 121.531 49.2768C122.727 48.8814 125.834 48.5032 126.654 52.3821C127.006 54.0313 127.111 55.8702 127.145 57.747C127.156 58.3526 126.972 63.4039 126.765 64.8792C126.44 67.213 126.093 69.3724 123.748 69.941C120.887 70.631 119.684 68.4981 119.183 65.8C118.517 62.2069 118.479 57.9169 118.922 54.0884Z" fill="#DDA96B"/>
<path id="Vector_7" d="M67.1348 54.0883C67.1664 53.8196 67.4152 50.8508 68.7725 49.767C70.304 48.5423 73.0003 49.2422 73.7219 49.9295C74.6673 50.8284 74.9952 52.9328 75.1134 53.8463C75.2736 55.0901 75.3336 56.409 75.3574 57.7471C75.4007 60.122 75.3085 62.5222 74.9784 64.8793C74.612 67.5096 73.9707 70.1406 71.0512 70.0333C69.0134 69.9584 67.9478 68.7696 67.396 65.8001C66.7292 62.2068 66.6921 57.9168 67.1348 54.0883Z" fill="#DDA96B"/>
<path id="Vector_8" d="M49.6983 77.8498C50.2171 72.6248 51.4451 66.8745 56.4841 64.4259C58.5399 63.4275 60.9048 63.0221 63.2202 62.705C63.3314 64.0053 63.4957 65.295 63.7209 66.5634C64.1516 68.9888 64.9055 70.9212 67.1034 72.3913C69.0377 73.6856 71.4487 73.943 73.5521 73.2578C77.0128 72.1281 78.0282 69.7808 78.6276 65.7773C78.8554 64.2561 78.9947 62.727 79.0715 61.1932C90.9893 60.5032 102.965 60.4954 114.892 60.9882C114.979 62.8676 115.184 64.7384 115.508 66.5634C115.938 68.9888 116.692 70.9212 118.889 72.3913C121.14 73.8958 124.033 74.0008 126.339 72.8458C129.065 71.4832 129.846 69.5765 130.415 65.7773C130.6 64.5394 130.731 63.2969 130.816 62.0504C132.953 62.2275 135.214 62.5128 136.81 63.8315C138.455 65.1895 139.213 67.3197 139.751 69.2588C140.445 71.7599 140.681 74.1016 140.945 76.6384C141.204 79.1162 140.808 79.3676 138.626 79.2534C109.8 77.7323 80.827 77.7389 52.0285 79.7211C50.199 79.8492 49.5087 79.7583 49.6983 77.8498Z" fill="#DDA96B"/>
<path id="Vector_9" d="M131.42 123.379C131.446 124.78 131.401 126.18 131.313 127.58C131.173 129.834 131.439 129.943 129.583 130.378C126.949 130.995 115.934 132.469 114.709 129.521C113.675 127.034 114.104 123.542 114.139 120.916C114.181 117.726 114.711 116.827 117.22 116.402C120.544 115.837 124.675 115.451 128.305 115.98C131.258 116.412 131.267 117.057 131.417 119.416C131.508 120.871 131.404 122.425 131.42 123.379Z" fill="#FF2E60"/>
<path id="Vector_10" d="M114.131 97.894C114.106 96.4922 114.152 95.0918 114.239 93.692C114.379 91.4365 114.11 91.3304 115.968 90.8944C118.603 90.2768 129.616 88.8033 130.842 91.7509C131.877 94.2399 131.446 97.7294 131.413 100.355C131.375 103.236 131.005 104.414 128.332 104.87C125.308 105.384 121.618 105.749 118.243 105.414C115.803 105.171 114.359 104.443 114.164 102.227C114.026 100.671 114.15 98.9296 114.131 97.894Z" fill="#FFC522"/>
<path id="Vector_11" d="M142.152 101.421C142.097 96.2304 141.972 91.028 141.676 85.8368C141.541 83.4864 141.172 82.9675 138.276 82.8164C109.78 81.3244 81.1438 81.3258 52.6732 83.2608C50.2117 83.4254 49.2257 83.8904 49.109 86.2614C48.758 93.444 48.8559 100.658 49.1496 107.835C49.4461 115.093 49.8027 122.508 51.1202 129.64C51.6258 132.375 52.3377 135.176 54.5692 137.142C58.0068 140.172 63.7716 140.272 68.1982 140.687C79.2572 141.724 90.4331 141.761 101.531 141.464C111.302 141.202 121.135 140.728 130.828 139.48C132.703 139.238 134.799 139.116 136.45 138.173C138.365 137.078 139.276 134.981 139.952 133.055C140.837 130.536 141.133 128.14 141.386 125.595C142.183 117.574 142.234 109.47 142.152 101.421ZM58.4633 88.046C61.9604 86.688 66.2526 86.6296 69.972 86.7079C72.0112 86.7517 76.8523 86.3477 78.3858 88.0645C81.0654 91.065 80.7695 95.5735 80.7228 99.2753C80.6913 101.705 81.1983 106.403 78.2005 107.51C73.5432 109.23 66.4945 109.802 61.1415 108.7C58.3088 108.115 57.169 107.839 56.3053 104.502C55.6535 101.981 55.8402 98.9336 55.8717 96.7696C55.908 94.2925 55.4234 89.2268 58.4633 88.046ZM78.1276 133.227C74.6298 134.585 70.3383 134.643 66.6182 134.565C65.3973 134.538 63.1692 134.674 61.2498 134.417C58.7248 134.078 57.287 133.122 56.3577 129.646C55.6996 127.183 55.8368 124.418 55.8683 121.997C55.8998 119.569 55.3928 114.868 58.3899 113.761C63.6988 111.802 72.1091 111.332 77.5802 113.132C77.955 113.17 78.3326 113.331 78.6704 113.673C81.1494 116.179 80.7647 121.304 80.7185 124.503C80.6822 126.979 81.1675 132.046 78.1276 133.227ZM85.7037 88.046C89.2008 86.688 93.4929 86.6296 97.2132 86.7079C99.2516 86.7517 104.095 86.3463 105.627 88.0645C108.304 91.0671 108.011 95.5721 107.963 99.2753C107.932 101.703 108.439 106.403 105.441 107.51C100.133 109.47 91.7188 109.939 86.2499 108.14C85.8758 108.101 85.4982 107.939 85.1611 107.599C82.6814 105.095 83.0661 99.967 83.113 96.7694C83.1485 94.2925 82.6639 89.2268 85.7037 88.046ZM105.366 133.227C101.87 134.586 97.5782 134.643 93.8593 134.565C91.8202 134.521 86.9778 134.926 85.445 133.208C82.7661 130.207 83.0613 125.701 83.1094 121.997C83.1402 119.568 82.6325 114.868 85.6311 113.761C90.9392 111.802 99.353 111.332 104.821 113.132C105.195 113.171 105.573 113.333 105.909 113.673C108.39 116.175 108.006 121.305 107.96 124.503C107.923 126.98 108.407 132.045 105.366 133.227ZM112.945 88.046C116.442 86.688 120.734 86.6296 124.453 86.7079C126.491 86.7517 131.335 86.3463 132.866 88.0645C135.545 91.0671 135.252 95.5708 135.204 99.2753C135.171 101.703 135.679 106.403 132.682 107.51C128.037 109.226 121.014 109.799 115.668 108.71C112.963 108.158 111.845 108.086 110.886 104.858C110.118 102.274 110.32 99.037 110.353 96.7694C110.39 94.2925 109.904 89.2268 112.945 88.046ZM132.607 133.227C129.111 134.586 124.82 134.643 121.1 134.565C119.061 134.521 114.219 134.926 112.685 133.208C110.007 130.207 110.302 125.7 110.35 121.997C110.381 119.569 109.874 114.868 112.873 113.761C118.18 111.802 126.594 111.332 132.062 113.132C132.436 113.171 132.813 113.333 133.15 113.673C135.631 116.175 135.247 121.305 135.2 124.503C135.164 126.98 135.648 132.045 132.607 133.227Z" fill="#E5E5E5"/>
<path id="Vector_12" d="M104.181 123.379C104.206 124.78 104.16 126.18 104.073 127.58C103.932 129.836 104.2 129.942 102.343 130.378C99.7085 130.996 88.6942 132.469 87.469 129.521C86.4341 127.034 86.8649 123.542 86.8983 120.916C86.9382 117.9 87.3264 116.851 89.9786 116.402C93.2387 115.848 97.273 115.466 100.85 115.95C102.966 116.236 103.958 117.211 104.129 118.844C104.298 120.449 104.162 122.298 104.181 123.379Z" fill="#FFC522"/>
<path id="Vector_13" d="M140.944 76.6383C140.856 75.7979 140.765 74.9818 140.667 74.1712C139.879 75.3701 138.527 76.3014 136.353 76.8122C132.221 77.7815 127.646 77.1286 123.426 77.0636C113.92 76.9184 104.41 76.9833 94.9035 77.067C85.5773 77.1492 76.2495 77.264 66.9268 77.5114C63.8541 77.5936 60.769 77.8333 57.6962 77.8299C55.4032 77.8272 52.8592 77.4331 51.5312 75.4742C50.8578 74.4803 50.6879 73.2333 50.7432 71.9502C50.1859 73.8555 49.8907 75.8894 49.6963 77.8497C49.5068 79.7583 50.197 79.8491 52.0264 79.7213C80.8248 77.739 109.797 77.7324 138.624 79.2536C140.806 79.3675 141.202 79.1162 140.944 76.6383Z" fill="#C48D51"/>
<path id="Vector_14" d="M64.1216 68.2825C63.9572 67.7392 63.8292 67.166 63.7224 66.563C63.4972 65.2945 63.3328 64.0048 63.2217 62.7046C60.9063 63.0217 58.5413 63.427 56.4855 64.4255C54.7884 65.2507 53.531 66.4555 52.5801 67.8824C54.2976 66.931 56.0911 66.1662 58.1351 65.6547C60.4994 65.0617 62.4741 66.555 64.1216 68.2825Z" fill="#F4C38E"/>
<path id="Vector_15" d="M136.81 63.8315C135.214 62.5126 132.953 62.2274 130.816 62.0503C130.731 63.2968 130.6 64.5393 130.415 65.7772C130.187 67.3011 129.917 68.5084 129.51 69.5107C130.013 69.0761 130.465 68.5628 130.866 68.014C132.078 66.3602 132.998 65.0705 135.346 65.1018C136.405 65.1164 137.431 65.401 138.418 65.8142C137.998 65.0694 137.481 64.3848 136.81 63.8315Z" fill="#F4C38E"/>
<path id="Vector_16" d="M110.136 63.865C112.102 64.2206 113.817 65.1307 115.453 66.1841C115.168 64.4785 114.973 62.7385 114.893 60.9877C102.965 60.4949 90.9897 60.5028 79.0719 61.1927C78.9949 62.7264 78.8558 64.2556 78.6279 65.7767C78.516 66.5236 78.3811 67.1938 78.2266 67.8273C78.4104 67.5924 78.5978 67.3563 78.7965 67.1221C80.0769 65.6142 81.9748 64.9203 83.8929 64.487C88.2536 63.5032 93.0331 63.5217 97.4933 63.4562C101.619 63.3947 106.072 63.1292 110.136 63.865Z" fill="#F4C38E"/>
<path id="Vector_17" d="M125.484 64.3752C124.209 66.4807 122.459 67.2543 120.703 65.091C119.405 63.4943 119.098 61.5253 118.635 59.6313C118.655 61.7681 118.827 63.8837 119.182 65.8002C119.684 68.4983 120.887 70.631 123.747 69.9412C126.093 69.3726 126.439 67.2132 126.764 64.8794C126.862 64.1816 126.954 62.6876 127.024 61.2386C126.572 62.3247 126.081 63.3882 125.484 64.3752Z" fill="#C48D51"/>
<path id="Vector_18" d="M73.2648 65.5999C71.3536 67.896 69.5502 66.668 68.1614 64.5903C67.4846 63.5786 67.153 62.4507 66.8965 61.3037C66.9735 62.8627 67.1349 64.3865 67.3972 65.8003C67.9489 68.7696 69.0146 69.9584 71.0523 70.0335C73.9719 70.141 74.6131 67.51 74.9796 64.8795C75.0936 64.0621 75.1711 63.2382 75.2327 62.4117C74.6914 63.5288 74.085 64.6147 73.2648 65.5999Z" fill="#C48D51"/>
<path id="Vector_19" d="M124.851 51.0447C125.727 51.5031 126.344 52.3284 126.795 53.1915C126.749 52.9194 126.709 52.6455 126.654 52.3821C125.834 48.5032 122.727 48.8814 121.53 49.2768C119.825 49.8399 119.347 51.1721 119.078 52.9215C120.359 51.0187 122.242 49.6774 124.851 51.0447Z" fill="#F4C38E"/>
<path id="Vector_20" d="M72.0879 50.9055C73.6458 51.1675 74.5151 52.4194 75.1059 53.7892C74.9827 52.8499 74.6514 50.8112 73.7226 49.9295C73.001 49.2422 70.3045 48.5423 68.7732 49.767C67.8642 50.4926 67.4578 52.051 67.2754 53.0905C68.3223 51.5794 69.7866 50.5179 72.0879 50.9055Z" fill="#F4C38E"/>
<path id="Vector_21" d="M97.0018 104.097C95.292 104.131 93.5514 104.07 91.8424 104.013C89.5299 103.936 87.8222 103.352 86.8672 101.112C86.8785 101.599 86.9028 102.087 86.9574 102.553C87.2714 105.264 87.6323 104.921 89.7851 105.259C93.4675 105.838 97.7003 105.447 101.093 104.87C103.938 104.386 104.14 102.97 104.174 100.355C104.188 99.2448 104.268 97.9811 104.283 96.7026C104.198 97.6221 104.075 98.539 103.865 99.459C103.082 102.885 100.398 104.031 97.0018 104.097Z" fill="#FFA222"/>
<path id="Vector_22" d="M69.9727 104.097C68.2629 104.131 66.5225 104.07 64.8135 104.013C62.4247 103.934 60.6737 103.33 59.7387 100.902C59.6911 100.78 59.6569 100.651 59.6191 100.526C59.6199 101.28 59.6456 102.063 59.745 102.781C59.9736 104.433 61.1408 105.025 62.3443 105.227C66.0721 105.852 70.3971 105.458 73.8516 104.87C76.1817 104.473 76.8523 104.281 76.9081 102.078C76.9283 101.312 76.9305 100.584 76.9326 100.355C76.9396 99.8273 76.9627 99.2587 76.9865 98.6743C76.9396 98.9364 76.8941 99.1971 76.8347 99.4591C76.0529 102.885 73.3684 104.031 69.9727 104.097Z" fill="#FFA222"/>
<path id="Vector_23" d="M76.8359 124.947C76.0534 128.373 73.3689 129.519 69.9724 129.585C68.2633 129.619 66.5228 129.559 64.8139 129.502C62.4251 129.422 60.6742 128.818 59.7392 126.39C59.6713 126.213 59.6167 126.031 59.5664 125.848C59.5929 126.56 59.6454 127.263 59.7699 127.93C60.0945 129.658 60.3349 130.538 62.9222 131.031C66.6984 131.749 73.1668 130.833 75.1037 130.378C76.9603 129.944 76.6932 129.836 76.833 127.581C76.898 126.534 76.9281 125.486 76.9343 124.438C76.9008 124.608 76.8749 124.777 76.8359 124.947Z" fill="#FFA222"/>
<path id="Vector_24" d="M131.189 99.459C130.407 102.885 127.722 104.031 124.327 104.097C122.617 104.131 120.877 104.07 119.167 104.013C116.789 103.934 115.043 103.333 114.105 100.929C114.111 101.363 114.129 101.802 114.166 102.227C114.362 104.443 115.805 105.172 118.246 105.414C121.621 105.749 125.311 105.385 128.335 104.87C131.008 104.415 131.378 103.236 131.415 100.355C131.426 99.5069 131.476 98.5669 131.507 97.6016C131.428 98.2197 131.331 98.8388 131.189 99.459Z" fill="#FFA222"/>
<path id="Vector_25" d="M97.0011 129.585C95.2913 129.619 93.5508 129.559 91.8417 129.502C89.5097 129.424 87.791 128.834 86.8398 126.547C86.9202 127.61 87.0985 128.631 87.4693 129.522C88.6944 132.469 99.7087 130.996 102.343 130.378C104.2 129.943 103.932 129.836 104.073 127.581C104.16 126.181 104.206 124.781 104.181 123.379C104.18 123.292 104.18 123.192 104.181 123.096C104.101 123.713 104.004 124.329 103.864 124.948C103.081 128.373 100.397 129.52 97.0011 129.585Z" fill="#FFA222"/>
<path id="Vector_26" d="M64.1002 92.4314C62.7443 92.5827 62.1226 93.3349 61.8464 94.5138C61.4065 96.3945 61.7617 97.8513 62.8303 98.6854C63.5324 99.2327 64.5422 99.5112 65.835 99.4642C67.7399 99.3952 69.8629 99.4039 71.739 99.1172C73.2423 98.8876 74.3145 97.9271 74.6759 96.455C74.9408 95.3737 74.815 94.2584 74.3626 93.4179C73.8388 92.446 73.2416 92.1542 72.4137 92.0958C71.7887 92.0513 66.0792 92.2125 64.1002 92.4314Z" fill="#FBE134"/>
<path id="Vector_27" d="M64.1002 118.377C62.7443 118.529 62.1226 119.281 61.8464 120.46C61.4065 122.341 61.7617 123.797 62.8303 124.631C63.5324 125.178 64.5422 125.457 65.835 125.41C67.7399 125.341 69.8629 125.35 71.739 125.063C73.2423 124.834 74.3145 123.873 74.6759 122.401C74.9408 121.32 74.815 120.204 74.3626 119.364C73.8388 118.392 73.2416 118.1 72.4137 118.042C71.7887 117.997 66.0792 118.158 64.1002 118.377Z" fill="#FBE134"/>
<path id="Vector_28" d="M91.2433 92.4314C89.8874 92.5827 89.265 93.3349 88.989 94.5138C88.5491 96.3945 88.9043 97.8513 89.9728 98.6854C90.6749 99.2327 91.6848 99.5112 92.9776 99.4642C94.8825 99.3952 97.0062 99.4039 98.8817 99.1172C100.386 98.8876 101.458 97.9271 101.819 96.455C102.083 95.3737 101.958 94.2584 101.505 93.4179C100.982 92.446 100.384 92.1542 99.5564 92.0958C98.9311 92.0513 93.2221 92.2125 91.2433 92.4314Z" fill="#FBE134"/>
<path id="Vector_29" d="M118.669 92.4314C117.313 92.5827 116.691 93.3349 116.415 94.5138C115.975 96.3945 116.33 97.8513 117.398 98.6854C118.101 99.2327 119.11 99.5112 120.403 99.4642C122.308 99.3952 124.432 99.4039 126.307 99.1172C127.812 98.8876 128.883 97.9271 129.244 96.455C129.508 95.3737 129.383 94.2584 128.93 93.4179C128.408 92.446 127.809 92.1542 126.982 92.0958C126.357 92.0513 120.648 92.2125 118.669 92.4314Z" fill="#FBE134"/>
<path id="Vector_30" d="M91.2433 118.377C89.8874 118.529 89.265 119.281 88.989 120.46C88.5491 122.341 88.9043 123.797 89.9728 124.631C90.6749 125.178 91.6848 125.457 92.9776 125.41C94.8825 125.341 97.0062 125.35 98.8817 125.063C100.386 124.834 101.458 123.873 101.819 122.401C102.083 121.32 101.958 120.204 101.505 119.364C100.982 118.392 100.384 118.1 99.5564 118.042C98.9311 117.997 93.2221 118.158 91.2433 118.377Z" fill="#FBE134"/>
<path id="Vector_31" d="M129.583 130.378C131.439 129.943 131.173 129.835 131.313 127.58C131.365 126.746 131.396 125.912 131.411 125.077C130.796 127.109 129.59 128.516 126.895 129.251C124.273 129.968 121.076 129.955 118.389 129.5C114.861 128.902 115.191 125.016 115.311 122.462C115.385 120.89 115.382 118.258 116.427 116.575C114.6 117.071 114.177 118.099 114.139 120.916C114.105 123.542 113.675 127.034 114.709 129.522C115.934 132.469 126.949 130.995 129.583 130.378Z" fill="#EA0F4D"/>
<path id="Vector_32" d="M125.392 117.91C123.813 118.017 122.033 118.18 121.251 118.261C119.862 118.403 119.136 119.284 118.894 120.52C118.676 121.643 118.54 123.748 119.347 124.712C120.379 125.946 122.346 125.862 123.864 125.913C125.058 125.953 127.23 126.074 128.243 125.258C129.255 124.442 129.467 123.009 129.549 121.718C129.749 118.738 127.877 117.743 125.392 117.91Z" fill="#FF6699"/>
<g id="Group_3">
<path id="Vector_33" d="M81.3164 122.778C81.403 119.472 81.5667 115.753 79.3367 112.988C77.1647 110.294 72.3062 111.196 69.281 111.268C65.6441 111.353 59.5918 110.888 56.8919 113.714C54.5647 116.149 55.5192 121.703 55.7018 124.58C55.7354 125.096 55.7941 125.599 55.869 126.093C55.8074 124.694 55.8507 123.297 55.8675 121.997C55.899 119.57 55.3921 114.868 58.3892 113.762C63.698 111.803 72.1084 111.332 77.5794 113.133C77.9543 113.17 78.3318 113.332 78.6696 113.674C81.1487 116.179 80.764 121.304 80.7178 124.504C80.6995 125.717 80.8051 127.554 80.5611 129.25C81.3653 127.256 81.2632 124.829 81.3164 122.778Z" fill="#C6C6C6"/>
<path id="Vector_34" d="M79.3367 87.7662C77.1647 85.0729 72.3062 85.975 69.281 86.0467C65.6441 86.1316 59.5918 85.6673 56.8919 88.4926C54.5647 90.9273 55.5192 96.4812 55.7018 99.3583C55.7311 99.8173 55.7787 100.265 55.8401 100.705C55.7983 99.2866 55.8548 97.9062 55.8709 96.7697C55.9073 94.2926 55.4227 89.2269 58.4625 88.0461C61.9596 86.6881 66.2519 86.6297 69.9713 86.708C72.0105 86.7518 76.8516 86.3478 78.385 88.0646C81.0647 91.0652 80.7688 95.5736 80.7221 99.2754C80.7052 100.542 80.8311 102.421 80.5353 104.089C81.3669 102.086 81.262 99.629 81.3164 97.5573C81.403 94.2503 81.5667 90.5314 79.3367 87.7662Z" fill="#C6C6C6"/>
<path id="Vector_35" d="M108.398 122.778C108.485 119.472 108.648 115.753 106.419 112.988C104.247 110.294 99.3881 111.196 96.3637 111.268C92.7266 111.353 86.6737 110.888 83.9738 113.714C81.6466 116.149 82.6011 121.703 82.7843 124.58C82.8444 125.528 82.9758 126.435 83.1926 127.295C83.0184 125.506 83.087 123.67 83.1094 121.997C83.1401 119.568 82.6325 114.869 85.631 113.762C90.9391 111.803 99.3529 111.332 104.821 113.133C105.195 113.172 105.573 113.333 105.909 113.674C108.39 116.176 108.006 121.306 107.96 124.504C107.944 125.556 108.02 127.076 107.883 128.566C108.425 126.718 108.351 124.6 108.398 122.778Z" fill="#C6C6C6"/>
<path id="Vector_36" d="M135.628 122.778C135.716 119.472 135.879 115.753 133.649 112.988C131.477 110.294 126.619 111.196 123.594 111.268C119.957 111.353 113.904 110.888 111.204 113.714C108.877 116.149 109.832 121.703 110.014 124.58C110.076 125.55 110.213 126.478 110.441 127.356C110.258 125.548 110.328 123.688 110.35 121.997C110.381 119.57 109.874 114.868 112.873 113.762C118.18 111.803 126.594 111.332 132.062 113.133C132.437 113.172 132.813 113.333 133.151 113.674C135.631 116.176 135.247 121.306 135.2 124.504C135.185 125.544 135.259 127.041 135.128 128.513C135.654 126.676 135.582 124.582 135.628 122.778Z" fill="#C6C6C6"/>
<path id="Vector_37" d="M133.649 87.7662C131.477 85.0729 126.619 85.975 123.594 86.0467C119.957 86.1316 113.904 85.6673 111.204 88.4926C108.877 90.9273 109.832 96.4812 110.014 99.3583C110.072 100.262 110.192 101.13 110.39 101.955C110.244 100.114 110.332 98.2384 110.353 96.7697C110.39 94.2926 109.904 89.2269 112.946 88.0461C116.442 86.6881 120.734 86.6297 124.454 86.708C126.491 86.7518 131.335 86.3464 132.867 88.0646C135.546 91.0672 135.252 95.5709 135.204 99.2754C135.19 100.338 135.279 101.835 135.132 103.276C135.652 101.443 135.581 99.3564 135.628 97.5573C135.716 94.2503 135.879 90.5314 133.649 87.7662Z" fill="#C6C6C6"/>
<path id="Vector_38" d="M106.419 87.7662C104.247 85.0729 99.3881 85.975 96.3637 86.0467C92.7266 86.1316 86.6737 85.6673 83.9738 88.4926C81.6466 90.9273 82.6011 96.4812 82.7843 99.3583C82.8408 100.255 82.9592 101.118 83.1548 101.938C83.0107 100.101 83.0913 98.2345 83.1129 96.7697C83.1486 94.2926 82.664 89.2269 85.7038 88.0461C89.2009 86.6881 93.493 86.6297 97.2133 86.708C99.2517 86.7518 104.096 86.3464 105.627 88.0646C108.305 91.0672 108.011 95.5723 107.963 99.2754C107.949 100.353 108.04 101.879 107.884 103.34C108.425 101.492 108.351 99.3777 108.397 97.5572C108.485 94.2503 108.648 90.5314 106.419 87.7662Z" fill="#C6C6C6"/>
<path id="Vector_39" d="M141.386 125.596C142.149 117.923 142.227 110.175 142.16 102.47C141.992 110.275 141.496 118.083 140.159 125.742C139.54 129.276 138.845 134.798 135.553 136.903C133.726 138.07 130.746 138.056 128.642 138.344C124.936 138.852 121.196 139.163 117.466 139.459C103.053 140.602 88.6286 140.844 74.1921 139.907C69.33 139.591 64.1826 139.399 59.5015 138.012C51.1102 135.524 51.4444 124.756 50.8725 117.992C50.1158 109.029 49.4572 100.032 48.9466 91.0425C48.8186 96.6409 48.9201 102.249 49.1494 107.835C49.4459 115.093 49.8025 122.508 51.12 129.64C51.6256 132.375 52.3375 135.176 54.5689 137.142C58.0066 140.173 63.7714 140.272 68.1979 140.687C79.257 141.724 90.4329 141.761 101.531 141.464C111.301 141.202 121.135 140.728 130.827 139.48C132.703 139.238 134.799 139.116 136.45 138.173C138.365 137.078 139.275 134.981 139.952 133.055C140.837 130.536 141.133 128.141 141.386 125.596Z" fill="#C6C6C6"/>
</g>
</g>
</g>
</g>
</svg>
