<svg width="191" height="191" viewBox="0 0 191 191" fill="none" xmlns="http://www.w3.org/2000/svg">
<g id="Frame 100">
<rect width="191" height="191" rx="40" fill="white"/>
<g id="Group">
<path id="Vector" d="M152.084 98.4307C151.858 88.2528 151.481 78.0776 151.192 67.9021C150.988 60.7187 152.61 50.694 145.841 45.8622C139.136 41.0762 132.283 45.4829 126.524 49.197C118.413 54.4239 112.237 57.1963 103.58 51.5809C96.5917 47.0461 89.0026 40.2556 80.4693 39.1471C71.3568 37.9632 62.1753 42.7311 54.64 47.2997C48.0151 51.3181 40.6443 56.4673 39.1904 64.6497C37.5015 74.1508 38.6325 84.7424 38.5197 94.3647C38.4077 103.836 38.4946 113.326 38.2246 122.795C37.9767 131.446 39.4658 141.957 49.7793 143.473C57.644 144.627 64.9568 139.125 71.9187 136.342C76.6259 134.463 89.3062 143.957 93.2259 145.747C100.422 149.031 107.987 153.077 116.115 151.339C124.15 149.621 132.424 145.066 139.272 140.696C145.051 137.009 150.194 133.288 151.752 126.212C153.771 117.047 152.289 107.685 152.084 98.4307C152.129 100.453 151.941 91.9969 152.084 98.4307Z" fill="white"/>
<g id="Group_2">
<path id="Vector_2" d="M144.287 56.6872C144.24 54.1571 143.174 50.7975 140.021 50.569C137.565 50.3927 135.899 50.6144 133.982 52.0726C130.621 54.6301 126.962 56.7877 123.236 58.7577C115.685 62.7488 109.448 63.0159 102.127 58.5112C95.587 54.4885 89.6843 49.6842 82.6152 46.5461C74.3391 42.8729 61.0598 50.955 54.4763 55.2473C51.703 57.0575 49.3358 59.1876 47.3568 61.8342C45.061 64.9037 45.501 68.9129 45.4472 72.5127C45.2917 82.9552 45.1594 93.3982 45.0494 103.841C44.9912 109.416 44.9442 114.988 44.9088 120.562C44.8801 124.96 44.3114 129.57 46.1509 133.679C48.0264 137.867 53.6843 137.492 57.1001 135.837C61.1309 133.743 65.2378 131.869 69.456 130.183C74.6111 128.121 78.5972 130.647 82.9455 133.09C88.8723 136.42 95.0442 139.43 101.321 142.04C104.786 143.483 108.757 145.558 112.63 145.181C116.693 144.787 120.674 142.881 124.354 141.233C129.071 139.124 133.615 136.571 137.885 133.668C140.26 132.052 143.848 129.76 144.742 126.83C147.333 118.332 145.647 107.288 145.453 98.58C145.142 84.6126 144.546 70.6546 144.287 56.6872Z" fill="#68182B"/>
<path id="Vector_3" d="M142.679 116.06C142.852 102.785 142.288 89.5011 141.878 76.2358C141.757 72.3048 141.634 68.3737 141.534 64.44C141.46 61.5398 142.07 57.5264 141.077 54.7723C139.45 50.2583 131.16 57.6156 129.47 58.6164C126.813 60.1911 124.115 61.7225 121.257 62.9086C119.534 63.6243 117.772 64.2298 115.992 64.6231C113.645 65.1444 113.316 66.1682 113.533 68.8788C115.389 92.0911 114.35 115.411 112.922 138.635C112.737 141.647 113.718 142.13 116.216 141.327C120.585 139.924 124.792 137.958 128.807 135.755C133.026 133.442 138.244 130.864 141.274 126.992C143.297 124.404 142.638 119.15 142.679 116.06ZM128.207 124.962C125.297 125.092 122.196 123.047 121.855 119.984C121.508 116.869 123.656 113.84 126.799 113.367C126.83 113.363 126.854 113.372 126.883 113.369C126.934 113.36 126.975 113.338 127.032 113.335C130.076 113.244 133.539 115.465 133.44 118.843C133.357 121.712 131.338 124.823 128.207 124.962Z" fill="#C18957"/>
<path id="Vector_4" d="M75.3059 52.224C73.6876 75.921 74.1621 99.6888 75.0214 123.418C75.0991 125.562 74.6683 126.179 72.1494 126.435C66.3509 127.022 60.0791 130.997 55.6237 133.312C48.7383 136.649 47.7907 129.419 47.8149 124.128C47.8501 116.124 47.9278 108.118 48.0147 100.114C48.0892 93.2342 48.1784 86.3547 48.2732 79.475C48.3624 72.998 47.1087 65.6909 52.0866 60.7766C56.7139 56.2101 63.5067 53.1839 69.489 50.9281C70.4661 50.5603 71.4604 50.2287 72.4664 49.9408C75.4589 49.0813 75.4817 49.6392 75.3059 52.224Z" fill="#C18957"/>
<path id="Vector_5" d="M111.147 138.946C110.992 141.48 110.075 142.175 107.975 141.592C105.007 140.769 102.108 139.236 99.4664 138.068C92.5858 135.026 86.1736 130.935 79.334 127.858C77.4873 127.026 76.8816 126.345 76.7881 123.806C75.9297 100.214 75.443 76.5812 77.0064 53.0147C77.3367 48.0413 77.234 48.3635 80.3434 48.9371C83.4893 49.5153 86.5362 51.7438 89.1131 53.3228C94.6922 56.7423 99.7385 61.0483 105.712 63.7959C106.742 64.2711 107.779 64.6023 108.819 64.8127C111.186 65.2952 111.526 65.8388 111.73 68.3028C113.66 91.8075 112.597 115.427 111.147 138.946Z" fill="#C18957"/>
<path id="Vector_6" d="M128.469 123.159C126.179 123.806 123.798 121.653 123.556 119.486C123.315 117.312 125.121 115.47 127.121 115.096C132.105 115.029 133.4 121.772 128.469 123.159Z" fill="#FF2E60"/>
<path id="Vector_7" d="M76.7891 123.806C76.8825 126.345 77.4885 127.027 79.335 127.858C85.8043 130.768 91.8955 134.576 98.3578 137.554C96.3315 136.308 94.3295 135.021 92.3253 133.748C88.7483 131.479 85.1336 129.17 82.5472 125.747C79.7098 121.989 79.6904 117.299 79.3727 112.812C78.6261 102.308 77.9075 91.8217 77.8608 81.2875C77.8229 72.7414 77.0927 64.2278 76.8573 55.6909C75.5009 78.3711 75.9625 101.105 76.7891 123.806Z" fill="#AF7341"/>
<path id="Vector_8" d="M137.459 128.672C134.81 130.534 131.824 131.917 128.842 133.142C126.531 134.091 124.031 135.087 121.514 134.409C116.545 133.074 116.486 124.658 116.354 120.77C116.08 112.616 116.099 104.454 115.767 96.2966C115.443 88.3538 115.118 80.2039 113.779 72.3003C115.28 94.3813 114.28 116.551 112.922 138.635C112.737 141.647 113.718 142.129 116.216 141.327C120.585 139.924 124.792 137.958 128.807 135.755C133.026 133.442 138.244 130.863 141.274 126.992C141.842 126.265 142.183 125.321 142.404 124.281C140.97 125.949 139.266 127.401 137.459 128.672Z" fill="#AF7341"/>
<path id="Vector_9" d="M55.6246 133.311C59.6606 131.216 65.1863 127.764 70.5001 126.694C67.9246 126.413 64.863 127.035 63.1248 127.558C60.0609 128.479 57.1684 129.976 53.8693 129.529C49.2375 128.9 49.8078 123.321 49.9952 119.925C50.4307 112.042 50.3998 104.131 50.3325 96.2392C50.2751 89.5949 50.1049 82.9509 50.0548 76.3066C50.0205 71.8385 49.8821 66.8514 50.8283 62.2686C47.3553 67.1004 48.3541 73.6212 48.2742 79.4743C48.1794 86.3541 48.0904 93.2336 48.0157 100.113C47.9288 108.117 47.8511 116.124 47.8159 124.128C47.7915 129.419 48.739 136.648 55.6246 133.311Z" fill="#AF7341"/>
<path id="Vector_10" d="M93.2707 126.073C104.545 131.266 106.705 122.135 107.824 106.618C108.478 97.551 108.927 88.3357 108.569 79.2503C108.206 70.0738 105.14 68.179 101.332 66.2525C94.4124 62.7554 91.5292 60.4262 88.0425 58.1866C84.1889 55.7111 81.6691 59.0849 81.6827 62.5886C81.7294 74.6517 82.3979 95.9212 84.1385 109.063C85.0107 115.651 86.782 123.086 93.2707 126.073Z" fill="#E2A97A"/>
<path id="Vector_11" d="M138.277 97.7733C137.193 82.9218 138.067 71.8275 138.272 64.8976C138.372 61.4829 136.615 59.6454 132.925 61.419C130.725 62.4774 124.213 66.781 122.646 67.7955C120.342 69.2926 119.262 70.4928 119.351 73.2333C119.526 78.609 120.152 95.9038 119.932 104.425C119.794 109.773 124.832 109.272 128.795 108.767C136.177 107.83 138.775 104.603 138.277 97.7733Z" fill="#E2A97A"/>
<path id="Vector_12" d="M53.8996 74.5511C54.0549 79.2159 54.0366 83.8784 54.2753 88.5438C54.6399 95.6726 54.8352 102.895 55.4856 110.003C56.9393 125.845 67.1944 122.311 68.789 107.192C69.805 97.5512 70.7033 81.5085 70.4642 75.4406C70.2597 70.2476 71.328 56.2894 62.4143 59.2336C55.673 61.4594 53.5235 63.4021 53.8996 74.5511Z" fill="#E2A97A"/>
<path id="Vector_13" d="M130.967 117.145C131.499 119.289 130.787 121.611 128.002 121.705C126.221 121.762 124.958 120.457 124.572 118.821C124.361 117.924 124.497 117.097 124.805 116.315C123.957 117.129 123.419 118.247 123.556 119.486C123.799 121.652 126.179 123.805 128.469 123.159C131.606 122.277 132.215 119.232 130.967 117.145Z" fill="#EA0F4D"/>
<path id="Vector_14" d="M126.428 118.508C127.099 119.283 128.182 119.253 128.879 118.526C129.795 117.573 129.447 116.679 128.725 116.227C128.021 115.786 127.154 116.016 126.607 116.528C126.062 117.041 125.841 117.831 126.428 118.508Z" fill="#FF6699"/>
<g id="Group_3">
<path id="Vector_15" d="M63.2451 77.0731C62.2901 76.5814 61.409 75.9827 60.5748 75.3291C59.7634 76.4672 58.9745 77.626 58.2216 78.8077C57.6159 79.7584 56.096 78.8784 56.7063 77.9209C57.5177 76.6473 58.3758 75.4088 59.2536 74.1838C58.5952 73.555 57.9633 72.8944 57.3919 72.1749C56.6961 71.2992 57.929 70.0491 58.6329 70.9337C59.154 71.5898 59.7209 72.1907 60.3106 72.7644C61.0981 71.7155 61.8876 70.6664 62.7265 69.6561C63.4487 68.783 64.6839 70.0308 63.9673 70.8969C63.1537 71.8799 62.3746 72.8856 61.6133 73.9045C62.3962 74.524 63.2234 75.0884 64.1321 75.5571C65.1377 76.0766 64.25 77.5917 63.2451 77.0731Z" fill="#68182B"/>
<path id="Vector_16" d="M67.2664 71.9822C68.7486 71.674 70.0971 71.1069 71.3771 70.3C72.338 69.6945 73.218 71.2146 72.2639 71.8156C70.8674 72.6952 69.3511 73.34 67.7328 73.6759C66.6286 73.9044 66.1581 72.2134 67.2664 71.9822Z" fill="#68182B"/>
<path id="Vector_17" d="M79.0264 70.6824C78.1294 70.0148 79.0036 68.4905 79.9134 69.1669C81.2368 70.1498 82.5603 71.1326 83.8846 72.1156C84.7818 72.7805 83.9085 74.3075 82.9976 73.6307C81.6741 72.6482 80.3498 71.6652 79.0264 70.6824Z" fill="#68182B"/>
<path id="Vector_18" d="M87.6037 76.7044C86.7535 75.9548 88.0006 74.7183 88.845 75.4631C90.077 76.5513 91.5237 77.2207 93.1338 77.525C94.2457 77.7354 93.7739 79.4291 92.6676 79.2187C90.759 78.8575 89.0563 77.9867 87.6037 76.7044Z" fill="#68182B"/>
<path id="Vector_19" d="M97.8775 78.9074C99.5687 79.5242 101.297 79.9039 103.094 80.0204C104.218 80.0913 104.226 81.8491 103.094 81.7758C101.142 81.65 99.2499 81.2705 97.411 80.6011C96.3565 80.2171 96.8112 78.5211 97.8775 78.9074Z" fill="#68182B"/>
<path id="Vector_20" d="M111.622 81.8474C111.622 82.2883 111.221 82.773 110.744 82.7249C109.773 82.6245 108.802 82.526 107.83 82.4278C107.355 82.3797 106.952 82.0646 106.952 81.5503C106.952 81.1066 107.353 80.6242 107.83 80.6723C108.802 80.7707 109.773 80.8689 110.744 80.9694C111.22 81.0175 111.622 81.3306 111.622 81.8474Z" fill="#68182B"/>
<path id="Vector_21" d="M116.605 79.1617C117.85 78.3072 119.135 77.5231 120.464 76.8074C121.461 76.2726 122.348 77.7881 121.351 78.323C120.022 79.0382 118.736 79.8223 117.492 80.6772C116.555 81.3193 115.678 79.7972 116.605 79.1617Z" fill="#68182B"/>
<path id="Vector_22" d="M124.459 74.9796C125.302 74.4836 126.146 73.9896 126.988 73.4936C127.966 72.9177 128.848 74.4332 127.875 75.0091C127.033 75.5051 126.188 75.9987 125.346 76.4947C124.368 77.0704 123.485 75.5532 124.459 74.9796Z" fill="#68182B"/>
<path id="Vector_23" d="M129.823 76.0263C129.207 75.0729 130.727 74.1933 131.338 75.1391C132.178 76.4399 132.825 77.8385 133.289 79.3148C133.629 80.396 131.934 80.8577 131.595 79.7812C131.176 78.4445 130.583 77.2032 129.823 76.0263Z" fill="#68182B"/>
<path id="Vector_24" d="M133.808 83.7718C133.804 84.741 133.8 85.7125 133.796 86.6812C133.792 87.8128 132.036 87.8148 132.041 86.6812C132.044 85.7125 132.049 84.741 132.052 83.7718C132.057 82.6402 133.812 82.6382 133.808 83.7718Z" fill="#68182B"/>
<path id="Vector_25" d="M129.987 92.0928C130.439 91.0602 131.951 91.9536 131.502 92.9801C130.687 94.8404 129.416 96.3693 127.809 97.599C126.909 98.2869 126.036 96.7626 126.922 96.0839C128.286 95.0393 129.3 93.661 129.987 92.0928Z" fill="#68182B"/>
<path id="Vector_26" d="M118.525 100.657C120.065 100.456 121.5 99.7907 122.673 98.7804C123.526 98.0444 124.774 99.2809 123.915 100.021C122.354 101.365 120.564 102.145 118.525 102.412C117.405 102.559 117.419 100.801 118.525 100.657Z" fill="#68182B"/>
<path id="Vector_27" d="M109.963 101.677C109.356 101.558 108.749 101.435 108.142 101.316C107.033 101.094 107.504 99.4029 108.608 99.6221C109.215 99.7433 109.822 99.8646 110.429 99.9833C111.539 100.203 111.068 101.896 109.963 101.677Z" fill="#68182B"/>
<path id="Vector_28" d="M104.316 100.637C102.263 100.317 100.343 99.5583 98.6138 98.4064C97.6778 97.7804 98.5551 96.2603 99.5006 96.8909C101.116 97.9698 102.864 98.6462 104.782 98.9435C105.899 99.1196 105.423 100.811 104.316 100.637Z" fill="#68182B"/>
<path id="Vector_29" d="M93.7582 97.3709C92.1959 96.7284 90.635 96.0866 89.074 95.444C88.0432 95.0167 88.4934 93.3187 89.54 93.7503C91.1012 94.3949 92.6633 95.0347 94.2247 95.6772C95.2566 96.1024 94.8051 97.8006 93.7582 97.3709Z" fill="#68182B"/>
<path id="Vector_30" d="M82.8815 93.9903C81.3364 93.5008 79.7901 93.0118 78.245 92.5228C77.1696 92.1824 77.6289 90.4887 78.7114 90.8291C80.2574 91.3182 81.8024 91.8072 83.3475 92.2966C84.423 92.6371 83.9636 94.3308 82.8815 93.9903Z" fill="#68182B"/>
<path id="Vector_31" d="M72.7661 92.6006C70.4428 93.2567 68.3346 94.3216 66.409 95.7756C65.5037 96.4565 64.6307 94.9321 65.5222 94.26C67.5643 92.7198 69.8395 91.6041 72.2999 90.9069C73.3915 90.5988 73.8541 92.292 72.7661 92.6006Z" fill="#68182B"/>
<path id="Vector_32" d="M63.2111 104.271C63.3633 105.377 61.6729 105.855 61.5174 104.738C61.2903 103.089 61.5359 101.535 62.3256 100.064C62.8605 99.0648 64.3756 99.9516 63.8407 100.95C63.2935 101.97 63.0512 103.117 63.2111 104.271Z" fill="#68182B"/>
<path id="Vector_33" d="M64.8326 113.975C64.468 113.735 64.1034 113.493 63.7376 113.253C62.7984 112.631 63.6771 111.112 64.6244 111.738C64.989 111.978 65.3537 112.218 65.7194 112.46C66.6599 113.079 65.7813 114.599 64.8326 113.975Z" fill="#68182B"/>
<path id="Vector_34" d="M72.7228 115.874C71.8737 115.874 71.0248 115.874 70.1755 115.874C69.0431 115.874 69.0431 114.119 70.1755 114.119H72.7228C73.8552 114.119 73.8552 115.874 72.7228 115.874Z" fill="#68182B"/>
<path id="Vector_35" d="M86.9348 117.415C84.5761 116.243 82.0743 115.763 79.4494 115.918C78.3181 115.987 78.3251 114.229 79.4494 114.163C82.3866 113.989 85.1897 114.592 87.8217 115.9C88.8353 116.402 87.9451 117.916 86.9348 117.415Z" fill="#68182B"/>
<path id="Vector_36" d="M96.1424 121.182C94.5462 120.501 92.9473 119.824 91.3498 119.143C90.3108 118.702 91.2069 117.192 92.2366 117.628C93.8341 118.307 95.4316 118.986 97.0294 119.667C98.067 120.11 97.1721 121.621 96.1424 121.182Z" fill="#68182B"/>
<path id="Vector_37" d="M105.794 124.572C103.971 123.977 102.148 123.385 100.325 122.791C99.2526 122.442 99.712 120.748 100.791 121.098C102.613 121.692 104.437 122.286 106.26 122.878C107.332 123.228 106.873 124.924 105.794 124.572Z" fill="#68182B"/>
<path id="Vector_38" d="M119.161 123.785C118.091 124.313 117.022 124.843 115.954 125.373C114.943 125.876 114.054 124.361 115.067 123.858C116.137 123.328 117.206 122.797 118.274 122.269C119.285 121.769 120.174 123.282 119.161 123.785Z" fill="#68182B"/>
<path id="Vector_39" d="M53.8439 130.066C52.6521 130.069 51.6774 129.517 50.9618 128.59C50.6694 128.208 50.9035 127.607 51.2763 127.387C51.7287 127.122 52.1859 127.323 52.4773 127.703C52.8027 128.126 53.3287 128.313 53.8439 128.311C54.9766 128.311 54.9752 130.066 53.8439 130.066Z" fill="#68182B"/>
<path id="Vector_40" d="M55.5393 127.296C53.5566 127.371 51.7096 125.949 51.2974 124.002C51.0642 122.898 52.7565 122.43 52.9911 123.536C53.2482 124.754 54.2901 125.588 55.5393 125.54C56.6717 125.497 56.6672 127.253 55.5393 127.296Z" fill="#68182B"/>
</g>
</g>
</g>
</g>
</svg>
