<svg
                  xmlns="http://www.w3.org/2000/svg"
                  width="202"
                  height="202"
                  viewBox="0 0 202 202"
                  fill="none"
                >
                  <rect width="202" height="202" rx="16" fill="#7A9D42" />
                  <mask
                    id="mask0_46_485"
                    style="mask-type: alpha"
                    maskUnits="userSpaceOnUse"
                    x="77"
                    y="77"
                    width="48"
                    height="48"
                  >
                    <rect x="77" y="77" width="48" height="48" fill="#7A9D42" />
                  </mask>
                  <g mask="url(#mask0_46_485)">
                    <path
                      d="M92.95 111L101 107.35L109.05 111L109.8 110.25L101 89L92.2 110.25L92.95 111ZM101 121C98.2333 121 95.6333 120.475 93.2 119.425C90.7667 118.375 88.65 116.95 86.85 115.15C85.05 113.35 83.625 111.233 82.575 108.8C81.525 106.367 81 103.767 81 101C81 98.2333 81.525 95.6333 82.575 93.2C83.625 90.7667 85.05 88.65 86.85 86.85C88.65 85.05 90.7667 83.625 93.2 82.575C95.6333 81.525 98.2333 81 101 81C103.767 81 106.367 81.525 108.8 82.575C111.233 83.625 113.35 85.05 115.15 86.85C116.95 88.65 118.375 90.7667 119.425 93.2C120.475 95.6333 121 98.2333 121 101C121 103.767 120.475 106.367 119.425 108.8C118.375 111.233 116.95 113.35 115.15 115.15C113.35 116.95 111.233 118.375 108.8 119.425C106.367 120.475 103.767 121 101 121ZM101 117C105.467 117 109.25 115.45 112.35 112.35C115.45 109.25 117 105.467 117 101C117 96.5333 115.45 92.75 112.35 89.65C109.25 86.55 105.467 85 101 85C96.5333 85 92.75 86.55 89.65 89.65C86.55 92.75 85 96.5333 85 101C85 105.467 86.55 109.25 89.65 112.35C92.75 115.45 96.5333 117 101 117Z"
                      fill="#fff"
                    />
                  </g>
                </svg>