<svg width="48" height="48" viewBox="0 0 48 48" fill="none" xmlns="http://www.w3.org/2000/svg">
<rect width="48" height="48" rx="24" fill="#B55200"/>
<path d="M26.113 23.9987L35.5572 14.5695C35.8395 14.2873 35.998 13.9044 35.998 13.5052C35.998 13.106 35.8395 12.7231 35.5572 12.4409C35.2749 12.1586 34.892 12 34.4928 12C34.0936 12 33.7108 12.1586 33.4285 12.4409L23.9993 21.885L14.5702 12.4409C14.2879 12.1586 13.905 12 13.5058 12C13.1066 12 12.7238 12.1586 12.4415 12.4409C12.1592 12.7231 12.0006 13.106 12.0006 13.5052C12.0006 13.9044 12.1592 14.2873 12.4415 14.5695L21.8856 23.9987L12.4415 33.4279C12.301 33.5673 12.1894 33.733 12.1133 33.9157C12.0372 34.0984 11.998 34.2943 11.998 34.4922C11.998 34.6901 12.0372 34.8861 12.1133 35.0687C12.1894 35.2514 12.301 35.4172 12.4415 35.5566C12.5808 35.6971 12.7466 35.8086 12.9293 35.8847C13.112 35.9608 13.3079 36 13.5058 36C13.7037 36 13.8996 35.9608 14.0823 35.8847C14.265 35.8086 14.4308 35.6971 14.5702 35.5566L23.9993 26.1124L33.4285 35.5566C33.5679 35.6971 33.7337 35.8086 33.9163 35.8847C34.099 35.9608 34.2949 36 34.4928 36C34.6907 36 34.8867 35.9608 35.0694 35.8847C35.252 35.8086 35.4178 35.6971 35.5572 35.5566C35.6977 35.4172 35.8092 35.2514 35.8853 35.0687C35.9614 34.8861 36.0006 34.6901 36.0006 34.4922C36.0006 34.2943 35.9614 34.0984 35.8853 33.9157C35.8092 33.733 35.6977 33.5673 35.5572 33.4279L26.113 23.9987Z" fill="#FFFADD"/>
</svg>
