<svg width="48" height="48" viewBox="0 0 48 48" fill="none" xmlns="http://www.w3.org/2000/svg">
<path d="M24 0C10.766 0 0 10.766 0 24C0 37.234 10.766 48 24 48C37.234 48 48 37.234 48 24C48 10.766 37.234 0 24 0ZM32 34H16C14.896 34 14 33.104 14 32C14 30.896 14.896 30 16 30H32C33.104 30 34 30.896 34 32C34 33.104 33.104 34 32 34ZM32 26H16C14.896 26 14 25.104 14 24C14 22.896 14.896 22 16 22H32C33.104 22 34 22.896 34 24C34 25.104 33.104 26 32 26ZM32 18H16C14.896 18 14 17.104 14 16C14 14.896 14.896 14 16 14H32C33.104 14 34 14.896 34 16C34 17.104 33.104 18 32 18Z" fill="#2E97C2"/>
</svg>
